<?xml version="1.0" encoding="UTF-8"?>
<svg id="Content" xmlns="http://www.w3.org/2000/svg" version="1.1" viewBox="0 0 169.6 338.96">
  <!-- Generator: Adobe Illustrator 29.0.0, SVG Export Plug-In . SVG Version: 2.1.0 Build 186)  -->
  <defs>
    <style>
      .st0 {
        fill: none;
      }

      .st1 {
        fill: #bf665d;
        opacity: .08;
      }
    </style>
  </defs>
  <path class="st0" d="M116.58,138.77c-1.86,2.37-3.64,4.81-5.49,7.19,16.32-10.46,20.03-11.47,31.5-28.02,2.87-4.34,3.86-6.95,4.95-10.06-7.67,9.67-20.24,17.29-30.96,30.89Z"/>
  <path class="st0" d="M139.26,127.9c-3.98,5.19-5.03,7.15-24.84,24.04-3.89,3.32-6.56,4.28-10.83,7.72,13.28-7.76,18.77-10.11,27.69-17.66,8.06-7.24,9.06-11.64,11.6-17.73-1.13,1.28-2.36,2.46-3.61,3.63Z"/>
  <path class="st0" d="M134.27,215.9c3.94-.12,7.34-1.03,10.95-3.05-8.62,1.96-15.71.85-23.61-.21-14.81-1.99-17.58-4.82-30.94-2.97,6.86.45,10.85,1.52,13.09,2.11,9.04,2.34,27.25,4.22,30.51,4.12Z"/>
  <path class="st0" d="M152.23,199.29c-3.46-2.71-7.33-2.81-16.86-3.67-13.8-1.15-31.06.3-43.76,5.95,7.54-1.22,13.84-1.81,19.87-2.08,24.47-2.63,27.23-1.09,40.75-.19Z"/>
  <path class="st0" d="M125.78,78.72c16.32-10.75,8.28-7.05,33.68-24.01-11.37,2.96-20.33,12.44-33.68,24.01Z"/>
  <path class="st0" d="M113.38,203.23c8.37,1.21,17.78,4.1,32.57.25-10.28,1.12-31.82-.22-32.57-.25Z"/>
  <path class="st0" d="M157.59,58.67c-5.73,2.32-7.4,3.88-12.99,8.18-19.51,15.14-17.51,11.08-27.6,21.64,20.97-12.48,15.35-6.41,27.74-18.57,4.32-4.27,3.83-4.83,12.86-11.25Z"/>
  <path class="st0" d="M133.38,104.26c-18.23,9.68-29.25,36.41-41.27,54,1.99-2.55,12.57-17.53,12.89-17.99,17.85-26.4,11.47-18.62,28.38-36.02Z"/>
  <path class="st0" d="M119.64,121.03c-15.27,22.64-5.3,8.22-17.15,26.86,6.06-4.8,11.73-11.3,16.48-15.7,16.66-15.42,17.95-13.84,26.43-27.81-7.94,3.72-17.79,5.49-25.76,16.64Z"/>
  <path class="st0" d="M159.62,53.01c-7.56.6-14,5.86-18.55,10.55,4.33-4.14,12.8-8.25,14.1-8.79,1.39-.58,3.59-1.3,4.45-1.76Z"/>
  <path class="st0" d="M5.93,281.67c-3.12,15.26,1.39,21.84-2.77,36.81,20.67-33.23,48.12-82.53,10.85-96.08-8.21-2.85-11.83-3.82-14.01-4.21v9.76c.21.25.4.51.59.78,13.74,21.04,8.12,39.32,5.34,52.94Z"/>
  <path class="st0" d="M23.49,225.53c-6.16-9.33-14.03-9.5-17.14-10.3-1.41-.36-3.67-1.32-6.35-2.53v2.02c2.17.54,5.51,1.56,12.13,3.98,2.25.79,5.64,1.6,11.36,6.83Z"/>
  <path class="st0" d="M92.53,205.96c7.87.09,11.82,1.07,18.08,2.55,9.03,2.15,20.94,3.32,25.33,3.23,6.17-.12,10.33-1.19,16.89-5.49-28.03,5.29-47.47-4.82-60.29-.29Z"/>
  <path class="st0" d="M47.8,240.3c-3.41,6.93-8.83,17.82-12.53,24.6-38.82,71.12-14.36,26.76-35.27,62.61v1.34c9.5-12.83,28.73-48.06,33.23-56.58,4.73-8.93,4.86-8.55,14.57-31.97Z"/>
  <path class="st0" d="M8.61,204.7c-2.64-2.13-5.66-3.78-8.61-5.13v5.6c5.92,2.14,11.2,4.08,14.27,6.03-3.07-3.35-3.52-3.72-5.66-6.5Z"/>
  <path class="st0" d="M0,206.75v4.22c6.49,2.34,8.86,1.66,11.43,1.97-4.28-2.84-8.06-4.74-11.43-6.18Z"/>
  <path class="st0" d="M111.94,94.12c14.35-8.34,19.4-6.69,32.39-16.67-6.29,2.58-28.71,12.74-32.39,16.67Z"/>
  <path class="st0" d="M85.75,245.44c3.17-3.15,10.9-13.06,11.7-14.38-8.15,8.66-10.53,10.86-31.24,27.96-3.12,2.56-7.76,4.33-14.5,8.59,26.4-9.69,27.58-15.72,34.04-22.17Z"/>
  <path class="st0" d="M97.88,239.41c-5.9,10.16-4.41,5.67-14.77,15.23-3.18,2.94-4.49,4.19-11.73,8.12-14.38,7.8-12.76,3.98-27.3,11.43,17.92-5.64,21.34-3.9,38.61-16.35,12.18-8.78,14.06-15.17,15.18-18.44Z"/>
  <path class="st0" d="M92.07,232.77c-8.97,5.72-9.78,7.86-14.74,10.85-7.14,4.28-13.59,11.1-24.21,19.88,11.16-5.58,12.64-8.88,19.35-13.54,15.06-10.45,6.89-6.89,19.61-17.2Z"/>
  <path class="st0" d="M76.76,237.19c-3.8,3.28-5.67,5.78-7.09,7.6,8.32-6.73,23.74-16.11,24.46-16.59-2.28.8-12.27,4.83-17.37,8.99Z"/>
  <path class="st0" d="M.43,232.21c5.22,15.4-1.07,29.72.47,46.76.8,8.84-1.47,6.4.86,24.17.03-.75-.22-15.01.62-20.82-.84-21.21,8.39-36.85-1.94-50.11Z"/>
  <path class="st0" d="M45.07,331.89c-16.58-.83-12.63-2.37-21.43-.94,9.82.11,9.3,3.5,28.23,1.95,7.06-.59,12.64-.84,19.75-5.46-.67.21-19.57,4.79-26.55,4.45Z"/>
  <path class="st0" d="M21.74,119.92c5.63,10.2,8.32,16.29,12.34,27.17,3.57,9.66,15.41,29.84,16.13,31.17-1.05-3.2-2.38-6.91-3.8-9.93-13.68-28.12-15.79-42.66-24.67-48.41Z"/>
  <path class="st0" d="M17.16,61.39c.79.49,9.3,6.75,12.68,10.57,6.6,7.47,12.6,21.12,20.15,28.73,9.25,9.32,11.02,10.07,15.33,15.44-11.24-15.94-8.67-6.25-30.42-41.47-5.6-9.05-13.82-13.31-17.74-13.26Z"/>
  <path class="st0" d="M47.23,326.16c-10.89,0-8.38-.16-13.03.01,1.85.18,15.8,3.17,25.17,1.58,10.59-2.06,15.91-1.03,23-10.8-7.05,3.69-11.01,7.46-20.73,8.26-6.93.57-4,.93-14.41.94Z"/>
  <path class="st0" d="M26.18,121.43c6.06,7.59,9.37,16.75,14.31,28.52-3.26-11.25-5.46-22.23-14.31-28.52Z"/>
  <path class="st0" d="M17.21,134.66c-1.23-3.09-2.09-5.05-3.11-8.01-1.19,6.97,3.03,15.39,6.95,21.24,10.47,15.7,20.08,25.7,26.87,32.93-10.31-16.92-15.21-16.31-23.72-30.14-3.52-5.71-5.05-11.17-6.99-16.02Z"/>
  <path class="st0" d="M63.17,322.38c5.58-1.37,7.62-2.45,14.93-6.5-7.62,2.34-16.37,4.44-20.58,5.22-13.13,2.28-27.51-1.6-45.23,8.36,5.78-2.4,7.31-2.11,13.4-3.64,10.96-2.77,18.48,1.28,37.48-3.43Z"/>
  <path class="st0" d="M64.1,314.47c5.52-.18,5.86-.1,20.37-4.05,0,0-15.26-.03-20.86-.26-5.88-.25-8.24-.27-14.04.75-6.32,1.16-13.44,2.88-24.49,8.32,7.58-2.93,16.78-3.79,24.87-4.05,4.83-.15,12.08-.65,14.16-.72Z"/>
  <path class="st0" d="M70.84,25.45c.44,5.5,1.66,12.34,3.71,24.01,3.45,17.7,8.85,23.39,13.67,32.18-1.65-5.03-8.77-23.36-12-32.26-3.18-8.78-3.03-13-5.38-23.93Z"/>
  <path class="st0" d="M107.33,51.54c1.57-17.2.64-28.27,5.21-37.66,1.69-3.47,5.27-8.35,6.58-9.79-5.26,2.04-10.79,12.9-11.57,21.53-.7,11.46.07,12.35-.23,25.92Z"/>
  <path class="st0" d="M110.11,29.57c-.05.76-.15,1.87-.3,5.2,2.98-14.57,10.49-28.75,11.34-30.06-3.14,1.9-9.35,9.32-11.05,24.87Z"/>
  <path class="st0" d="M72.3,16.99c3.34,20.03,1.14,19.09,8.27,37.27-2.44-9.91-3.56-23.16-8.27-37.27Z"/>
  <path class="st0" d="M31.6,85.05c-1.37-1.67-2.76-3.32-4.07-5.04-5.89-7.73-9.09-14.81-14.28-17.73,0,0,5.91,11.63,7.26,14.57,1.65,3.6,3.01,7.53,5.91,10.99,2.21,2.45,9.9,9.74,14.76,13.13,3.65,2.44,3.86,2.95,11.37,6.68-9.66-9.02-7.42-6.09-20.95-22.6Z"/>
  <path class="st0" d="M116.65,41.42c1.87-5.04,9.14-19.57,8.66-32.94-3.93,6.3-3.33,11.93-6.07,22.44-1.11,4.26-1.71,6.92-2.59,10.51Z"/>
  <path class="st0" d="M59.81,19.6c-1.23,10.93,1.19,19.27,4.7,30.27,4.64,14.62,16.34,26.07,18.63,28.68-8.48-13.88-10.19-19.14-14.09-27.68-4.77-10.44-6.15-16.28-9.25-31.27Z"/>
  <path class="st0" d="M15.39,88.89c-3.46-6.24-5.53-14.42-6.35-16.38,0,7.53,2.57,11.84,6.35,16.38Z"/>
  <path class="st0" d="M14.04,73.79c1.29,11.61,11.95,21.9,24.05,27.07-14.3-11.93-16.42-15.08-24.05-27.07Z"/>
  <path class="st0" d="M109.79,72.07c1.61-3.07,2.4-4.67,4.22-9.22,7.48-18.64,11.19-22.39,11.44-37.78-.53,1.87-5.42,16.59-8.23,23.67-3.75,9.43-4.76,15.96-7.43,23.34Z"/>
  <path class="st1" d="M92.06,211.13s0,0,0,0c0,0,0,0,.01,0,0,0-.01,0-.02,0Z"/>
  <path class="st1" d="M32.24,335.61c15.66,2.42,33.46,1.83,39.74-.11,25.55-7.96,31.77-34.43,3.6-31.26-15.96,1.8-15.05.94-22.96,2.48-6.54,1.28-22.41,5.6-31.09,10.11-8.74,4.53-13.66,8.88-20.14,14.59,8.59-13.72,6.52-3.25,26.28-42.81,2.26-3.07,2.83-3.88,10.97-9.57,3.79-2.64,13.75-5.84,19.71-6.98,9.89-1.88,26.31-4.25,37.12-15.49,7.97-8.27,10.16-19.28,8.99-26.31-.43-2.58-.85-6.54-5.48-6.34-6.58.3-18.61,7.08-20.75,8.68-8.58,6.44-10.4,11.96-21.71,23.82-6.78,7.1-20.98,18.68-21.57,19.12,22.12-39.32,27.76-66.82,57.11-64.43,0,0,0,0,0,0,0,0,.01,0,.02,0,0,0,0,0-.01,0,10.04,1,18.67,10.85,39.97,11.98,8.9.47,18.85-2.77,27.01-10.51,10-9.47,5.72-22.14-8.93-23.39-3.89-.32-8.85.33-13.99.22-15.73-.34-46.42-2.83-70.39,22.79,1.38-3.78,7.41-23.18,18.15-34.73,5.84-6.31,7.7-7.39,16.02-12.23,20.75-12.15,25.6-16.51,33.46-20.74,2.54-1.37,5.2-2.51,7.65-4.05,10.23-6.44,18.64-23.09,15.08-35.38-4.33-14.98-16.28-10.19-28.21-.03-.66.57-10.63,9.77-17.99,21.73-16.61,26.99-17.53,29.74-30.82,47.16,3.56-11.22,4.75-17.71,8.9-30.67,11.8-34.47,9.97-44.38,45.28-56.31,9.67-3.25,24.03-6.3,31.12-15.92,10.35-14.14,3.56-24.74-5.35-21.1-12.95,5.32-15.91,9.58-22.06,15-10.11,8.95-25.61,19.16-30.98,24.76,1.05-2.59,1.81-5.3,2.73-7.94,3.06-8.14,5.5-10.12,19.02-32.1,6.75-10.96,13.47-33.09,5.67-45.51-2.89-4.58-7.55-5.15-11.12-2.78-5.22.89-8.07,4.38-11,8.81-4.58,6.93-5.81,15.94-9.25,44.93-.64,5.36-1.44,10.45-1.14,21.16-1.12,11.54-.82,12.15-4.36,25.22-.05-11.76-5.95-22.54-10.99-41.16-2.88-10.69-2.95-36.28-11.34-53.73-2.78-5.79-9.88-8.79-15-2.5-9.7,11.96-4.87,32.11.36,46.52,6.38,17.57,28.28,33.13,30.9,42.13,3.4,11.7,1.93,16.16,1.31,20.99-2.08,16.27-5.36,19-12.53,40.01-.25-26.5-14.33-40.88-25.76-53.96,0,0,0,0,0,0-14.25-16.62-15.66-27.87-27.93-37.95-13.76-11.35-23.94-2.85-22.08,12.36,2.25,18.27,17.89,27.59,37.33,37.64,1.59.82,16.18,6.41,23.43,17.69,9.37,14.59,8.87,22.55,9.95,31.27,1.11,8.92-1.74,13.6-13.39,46.14-1.1-5.36-.62-8.4-1.89-15.17-.86-4.6-4.83-17.37-8.01-22.71-4.49-7.54-6.54-18.85-11.52-34.98-3.09-9.99-8.54-18.1-11.97-21.18-9.82-8.81-21.2-1.4-23.57,11.08-1.66,8.75,1.66,20.09,5.99,26.35,6.01,8.69,12.07,11.45,20.08,18.62,5.65,5.04,28.29,20.53,26.87,44.79-1.03,8.38-4.33,12.48-21.25,45.21,1.62-9.55,1-13.79-1.41-21.69-5.37-17.6-4.64-16.93-9.28-24.13-5.84-9.07-5.94-8.22-11.16-12.66-3.07-2.63-8.24-10.33-10.47-13.23-.93-1.21-2.03-2.31-3.22-3.29v15.64c2.95,1.35,5.97,2.99,8.61,5.13,2.14,2.78,2.59,3.15,5.66,6.5-3.07-1.94-8.35-3.89-14.27-6.03v1.58c3.38,1.45,7.15,3.34,11.43,6.18-2.57-.31-4.94.38-11.43-1.97v1.73c2.68,1.21,4.94,2.17,6.35,2.53,3.11.8,10.98.97,17.14,10.3-5.73-5.23-9.11-6.04-11.36-6.83-6.62-2.42-9.96-3.43-12.13-3.98v3.47c2.18.39,5.8,1.36,14.01,4.21,37.27,13.55,9.82,62.85-10.85,96.08,4.17-14.97-.35-21.55,2.77-36.81,2.78-13.61,8.4-31.9-5.34-52.94-.18-.28-.38-.54-.59-.78v99.56c20.92-35.85-3.54,8.51,35.27-62.61,3.7-6.78,9.12-17.68,12.53-24.6-9.71,23.42-9.84,23.04-14.57,31.97-4.51,8.52-23.74,43.76-33.23,56.58v10.1c9.11-4.59,21.95-4.94,32.24-3.35ZM76.76,237.19c5.1-4.16,15.1-8.19,17.37-8.99-.72.48-16.14,9.86-24.46,16.59,1.42-1.82,3.29-4.32,7.09-7.6ZM77.33,243.62c4.96-2.99,5.77-5.14,14.74-10.85-12.72,10.31-4.55,6.75-19.61,17.2-6.71,4.66-8.19,7.96-19.35,13.54,10.63-8.78,17.07-15.61,24.21-19.88ZM66.21,259.02c20.71-17.1,23.09-19.3,31.24-27.96-.79,1.32-8.53,11.23-11.7,14.38-6.46,6.45-7.64,12.48-34.04,22.17,6.75-4.26,11.38-6.03,14.5-8.59ZM71.38,262.77c7.24-3.93,8.55-5.18,11.73-8.12,10.35-9.56,8.87-5.07,14.77-15.23-1.12,3.27-3,9.66-15.18,18.44-17.27,12.45-20.69,10.71-38.61,16.35,14.54-7.45,12.92-3.64,27.3-11.43ZM152.83,206.26c-6.56,4.3-10.72,5.37-16.89,5.49-4.39.09-16.29-1.08-25.33-3.23-6.26-1.49-10.21-2.46-18.08-2.55,12.82-4.53,32.26,5.58,60.29.29ZM113.38,203.23c.75.03,22.29,1.36,32.57.25-14.79,3.85-24.2.96-32.57-.25ZM135.37,195.61c9.53.86,13.39.97,16.86,3.67-13.52-.9-16.28-2.44-40.75.19-6.03.27-12.33.86-19.87,2.08,12.7-5.65,29.96-7.09,43.76-5.95ZM121.6,212.64c7.91,1.06,14.99,2.17,23.61.21-3.61,2.02-7.01,2.93-10.95,3.05-3.26.1-21.47-1.78-30.51-4.12-2.24-.58-6.24-1.65-13.09-2.11,13.36-1.85,16.13.97,30.94,2.97ZM131.27,142c-8.92,7.55-14.41,9.9-27.69,17.66,4.28-3.44,6.94-4.4,10.83-7.72,19.81-16.89,20.86-18.85,24.84-24.04,1.24-1.17,2.47-2.35,3.61-3.63-2.54,6.09-3.54,10.49-11.6,17.73ZM147.55,107.88c-1.1,3.11-2.08,5.72-4.95,10.06-11.47,16.54-15.18,17.55-31.5,28.02,1.85-2.38,3.62-4.82,5.49-7.19,10.72-13.6,23.29-21.22,30.96-30.89ZM118.98,132.19c-4.75,4.4-10.42,10.9-16.48,15.7,11.85-18.65,1.88-4.22,17.15-26.86,7.97-11.15,17.82-12.92,25.76-16.64-8.48,13.97-9.78,12.39-26.43,27.81ZM133.38,104.26c-16.91,17.4-10.52,9.61-28.38,36.02.01-.02.02-.02,0,.01,0,0,0,0,0-.01-.33.46-10.91,15.44-12.89,17.99,12.03-17.59,23.04-44.32,41.27-54ZM159.62,53.01c-.86.46-3.06,1.17-4.45,1.76-1.3.55-9.77,4.66-14.1,8.79,4.56-4.7,10.99-9.96,18.55-10.55ZM159.45,54.71c-25.4,16.97-17.36,13.27-33.68,24.01,13.35-11.57,22.3-21.05,33.68-24.01ZM144.6,66.85c5.59-4.3,7.26-5.86,12.99-8.18-9.03,6.42-8.53,6.98-12.86,11.25-12.39,12.17-6.77,6.09-27.74,18.57,10.1-10.55,8.09-6.5,27.6-21.64ZM144.32,77.44c-12.98,9.98-18.03,8.33-32.39,16.67,3.67-3.93,26.09-14.1,32.39-16.67ZM114.01,62.85c-1.82,4.55-2.61,6.15-4.22,9.22,2.67-7.38,3.68-13.91,7.43-23.34,2.81-7.08,7.7-21.8,8.23-23.67-.25,15.39-3.95,19.14-11.44,37.78ZM125.31,8.48c.48,13.37-6.78,27.9-8.66,32.94.87-3.59,1.48-6.25,2.59-10.51,2.74-10.51,2.14-16.14,6.07-22.44ZM109.81,34.77c.14-3.33.24-4.43.3-5.2,1.7-15.55,7.91-22.97,11.05-24.87-.85,1.32-8.36,15.49-11.34,30.06ZM107.56,25.63c.78-8.63,6.31-19.49,11.57-21.53-1.31,1.44-4.89,6.32-6.58,9.79-4.58,9.39-3.65,20.46-5.21,37.66.31-13.57-.47-14.45.23-25.92ZM80.57,54.26c-7.13-18.17-4.93-17.24-8.27-37.27,4.71,14.11,5.83,27.36,8.27,37.27ZM64.52,49.87c-3.51-11-5.93-19.34-4.7-30.27,3.1,14.99,4.48,20.83,9.25,31.27,3.9,8.54,5.6,13.8,14.09,27.68-2.29-2.61-13.99-14.06-18.63-28.68ZM74.55,49.46c-2.05-11.67-3.27-18.5-3.71-24.01,2.35,10.92,2.2,15.15,5.38,23.93,3.23,8.9,10.35,27.23,12,32.26-4.82-8.8-10.22-14.48-13.67-32.18ZM9.04,72.51c.82,1.97,2.89,10.15,6.35,16.38-3.78-4.54-6.34-8.85-6.35-16.38ZM14.04,73.79c7.63,11.98,9.75,15.14,24.05,27.07-12.1-5.17-22.76-15.46-24.05-27.07ZM41.18,100.97c-4.86-3.39-12.55-10.68-14.76-13.13-2.89-3.46-4.26-7.39-5.91-10.99-1.35-2.94-7.26-14.57-7.26-14.57,5.19,2.92,8.39,10,14.28,17.73,1.31,1.72,2.7,3.37,4.07,5.04,13.53,16.51,11.29,13.58,20.95,22.6-7.51-3.73-7.72-4.24-11.37-6.68ZM49.99,100.69c-7.55-7.61-13.55-21.26-20.15-28.73-3.38-3.82-11.89-10.08-12.68-10.57,3.92-.05,12.14,4.21,17.74,13.26,21.75,35.22,19.17,25.53,30.42,41.47-4.3-5.36-6.08-6.12-15.33-15.44ZM40.49,149.95c-4.95-11.77-8.25-20.93-14.31-28.52,8.85,6.29,11.05,17.27,14.31,28.52ZM21.05,147.89c-3.92-5.86-8.14-14.27-6.95-21.24,1.02,2.96,1.87,4.93,3.11,8.01,1.94,4.85,3.47,10.3,6.99,16.02,8.51,13.83,13.42,13.22,23.72,30.14-6.79-7.23-16.4-17.23-26.87-32.93ZM34.08,147.09c-4.02-10.88-6.71-16.97-12.34-27.17,8.87,5.76,10.99,20.3,24.67,48.41,1.42,3.02,2.75,6.73,3.8,9.93-.72-1.33-12.56-21.52-16.13-31.17ZM1.75,303.14c-2.33-17.77-.06-15.34-.86-24.17-1.54-17.04,4.76-31.36-.47-46.76,10.34,13.26,1.1,28.9,1.94,50.11-.83,5.81-.59,20.07-.62,20.82ZM51.87,332.9c-18.94,1.56-18.42-1.84-28.23-1.95,8.8-1.43,4.85.11,21.43.94,6.97.34,25.87-4.25,26.55-4.45-7.1,4.62-12.69,4.87-19.75,5.46ZM59.38,327.76c-9.37,1.58-23.32-1.4-25.17-1.58,4.65-.17,2.13-.01,13.03-.01,10.41-.01,7.48-.37,14.41-.94,9.72-.8,13.68-4.57,20.73-8.26-7.09,9.77-12.41,8.74-23,10.8ZM49.56,310.91c5.8-1.02,8.17-1,14.04-.75,5.6.23,20.86.26,20.86.26-14.51,3.95-14.85,3.87-20.37,4.05-2.08.07-9.32.56-14.16.72-8.09.25-17.29,1.12-24.87,4.05,11.04-5.44,18.17-7.15,24.49-8.32ZM57.52,321.09c4.21-.78,12.96-2.88,20.58-5.22-7.31,4.05-9.36,5.14-14.93,6.5-19,4.71-26.52.66-37.48,3.43-6.09,1.54-7.62,1.24-13.4,3.64,17.71-9.96,32.09-6.08,45.23-8.36Z"/>
  <path class="st1" d="M105,140.28s0,0,0,.01c.03-.04.02-.03,0-.01Z"/>
</svg>