<!-- Generated by IcoMoon.io -->
<svg version="1.1" xmlns="http://www.w3.org/2000/svg" width="32" height="32" viewBox="0 0 32 32" fill="#fff">
<path d="M28.063 15.313h-24.125c-0.25 0-0.5 0.125-0.688 0.313-0.188 0.25-0.25 0.5-0.188 0.813l2.25 10.375c0.188 0.813 1 1.438 2 1.438h17.375c1 0 1.813-0.625 2-1.438l2.25-10.375c0.063-0.313 0-0.563-0.188-0.813-0.188-0.188-0.438-0.313-0.688-0.313zM30.375 11.313h-3.25l-6-7.188c-0.313-0.438-0.875-0.5-1.25-0.188-0.438 0.375-0.438 0.938-0.125 1.313l5 6.063h-17.5l5-6.063c0.375-0.375 0.313-1-0.125-1.313-0.375-0.313-0.938-0.25-1.25 0.188l-6 7.188h-3.25c-0.5 0-0.875 0.438-0.875 0.938s0.375 0.938 0.875 0.938h28.75c0.5 0 0.875-0.438 0.875-0.938s-0.375-0.938-0.875-0.938z"></path>
</svg>
