<!-- Generated by IcoMoon.io -->
<svg version="1.1" xmlns="http://www.w3.org/2000/svg" width="32" height="32" viewBox="0 0 32 32" fill="#fff">
<path d="M4.938 23.313h22.063c0.875 0 1.625-0.75 1.625-1.625v-0.75c0-5.563-3.563-10.25-8.438-12 0-0.125 0-0.188 0-0.313 0-2.375-1.938-4.313-4.313-4.313s-4.313 1.938-4.313 4.313c0 0.125 0.063 0.25 0.063 0.375-4.875 1.813-8.313 6.438-8.313 11.938v0.75c0 0.875 0.688 1.625 1.625 1.625zM15.875 5.875c1.5 0 2.75 1.188 2.75 2.688-0.813-0.188-1.75-0.313-2.688-0.313s-1.938 0.125-2.813 0.313c0.063-1.5 1.25-2.688 2.75-2.688zM30.563 24.813h-29.125c-0.813 0-1.438 0.688-1.438 1.438 0 0.813 0.625 1.438 1.438 1.438h29.125c0.813 0 1.438-0.688 1.438-1.438s-0.625-1.438-1.438-1.438z"></path>
</svg>
