<?xml version="1.0" encoding="UTF-8"?><svg id="Content" xmlns="http://www.w3.org/2000/svg" viewBox="0 0 48.85 28.69"><defs><style>.cls-1{fill:#efcca9;}.cls-2{fill:#cd9f74;}.cls-3{fill:#95d2fb;}</style></defs><path class="cls-3" d="m23.38,16.1h-2.76l1.66-1.66c.23-.23.23-.61,0-.85-.23-.23-.61-.23-.85,0l-2.51,2.51h-1.88l1-1c.23-.23.23-.61,0-.85-.23-.23-.61-.23-.85,0l-1.85,1.85h-1.92l3.61-3.62h3.55c.33,0,.6-.27.6-.6s-.27-.6-.6-.6h-2.35l2.22-2.22c.23-.23.23-.61,0-.85s-.61-.23-.85,0l-2.22,2.22v-2.35c0-.33-.27-.6-.6-.6s-.6.27-.6.6v3.55l-3.61,3.62v-1.92l1.84-1.85c.23-.23.23-.61,0-.85-.23-.23-.61-.23-.85,0l-1,1v-1.88l2.51-2.51c.23-.23.23-.61,0-.85-.23-.23-.61-.23-.85,0l-1.66,1.66v-2.76c0-.33-.27-.6-.6-.6s-.6.27-.6.6v2.76l-1.66-1.66c-.23-.23-.61-.23-.85,0-.23.23-.23.61,0,.85l2.51,2.51v1.88l-1-1c-.23-.23-.61-.23-.85,0-.23.23-.23.61,0,.85l1.84,1.85v1.92l-3.62-3.61v-3.55c0-.33-.27-.6-.6-.6s-.6.27-.6.6v2.35l-2.22-2.22c-.23-.23-.61-.23-.85,0-.23.23-.23.61,0,.85l2.22,2.22h-2.35c-.33,0-.6.27-.6.6s.27.6.6.6h3.55l3.62,3.61h-1.92l-1.85-1.84c-.23-.23-.61-.23-.85,0-.23.23-.23.61,0,.85l1,1h-1.88l-2.51-2.51c-.23-.23-.61-.23-.85,0-.23.23-.23.61,0,.85l1.66,1.66H.6c-.33,0-.6.27-.6.6s.27.6.6.6h2.76l-1.66,1.66c-.23.23-.23.61,0,.85.12.12.27.18.42.18s.31-.06.42-.18l2.51-2.51h1.88l-1,1c-.23.23-.23.61,0,.85.12.12.27.17.42.17s.31-.06.42-.17l1.85-1.85h1.92l-3.61,3.62h-3.55c-.33,0-.6.27-.6.6s.27.6.6.6h2.35l-2.22,2.22c-.23.23-.23.61,0,.85.12.12.27.18.42.18s.31-.06.42-.18l2.22-2.22v2.35c0,.33.27.6.6.6s.6-.27.6-.6v-3.55l3.61-3.62v1.92l-1.85,1.85c-.23.23-.23.61,0,.85.12.12.27.18.42.18s.31-.06.42-.18l1-1v1.88l-2.51,2.51c-.23.23-.23.61,0,.85.12.12.27.18.42.18s.31-.06.42-.18l1.66-1.66v2.76c0,.33.27.6.6.6s.6-.27.6-.6v-2.76l1.66,1.66c.12.12.27.18.42.18s.31-.06.42-.18c.23-.23.23-.61,0-.85l-2.51-2.51v-1.88l1,1c.12.12.27.18.42.18s.31-.06.42-.18c.23-.23.23-.61,0-.85l-1.85-1.85v-1.92l3.61,3.62v3.55c0,.33.27.6.6.6s.6-.27.6-.6v-2.35l2.22,2.22c.12.12.27.18.42.18s.31-.06.42-.18c.23-.23.23-.61,0-.85l-2.22-2.22h2.35c.33,0,.6-.27.6-.6s-.27-.6-.6-.6h-3.55l-3.62-3.62h1.92l1.85,1.85c.12.12.27.17.42.17s.31-.06.42-.17c.23-.23.23-.61,0-.85l-1-1h1.88l2.51,2.51c.12.12.27.18.42.18s.31-.06.42-.18c.23-.23.23-.61,0-.85l-1.66-1.66h2.76c.33,0,.6-.27.6-.6s-.27-.6-.6-.6Z"/><path class="cls-1" d="m46.28,14.56l-3.11,2.21s-1.55-4.37-2.75-7.11c-.5-1.13-2-1.52-2.69-3.1-1.21-2.74.21-5.11,1.66-3.4,1.67,1.97,4.11,3.43,4.61,4.56.83,1.88,2.29,6.84,2.29,6.84Z"/><path class="cls-1" d="m48.77,16.35c.22,1.49.03,3.84-1.28,6.59,0,0-2.7-3.23-3.01-4.71,0,0-.77-5.63-1.54-9.22-.31-1.48-2.02-2.33-2.47-4.39-.78-3.59,1.53-6.09,2.85-3.67,1.52,2.78,4.08,5.14,4.4,6.62.52,2.46.72,6.59,1.05,8.78Z"/><path class="cls-2" d="m44.77,13.53s-.25-2.13-1.02-5.72c-.31-1.48-2.02-2.33-2.47-4.39-.27-1.24-.17-2.34.13-3.16-.81.62-1.47,2.32-1.02,4.37.44,2.06,2.16,2.92,2.48,4.4.32,1.54.6,3.15.6,3.15l-2.37-.88,3.67,2.23Z"/><path class="cls-1" d="m47.63,15.8c-3.14-2.85-6.62-4.58-8.88-5.69-3.35-1.65-2.47.62-8.19,2.12-.76.2-1.65.75-.97,2.18.66,1.38,6.06.33,6.9-.49,0,0,2.26,2.76,4.52,2.7,0,0-.39,1.83.16,2.72,0,0-3.2,1.66-4.57,3.12l-3.8-2.55c-.28-3.94-.99-5.1-2.93-4.92-1.81.17-1.6,1.87-1.56,3.26.07,2.51-.59,2.92.02,3.91,2.35,3.81,5.29,6.17,10.77,6.17,2.05,0,3.36-.05,4.62-.68,2.11-1.05,7.37-8.73,3.91-11.87Z"/><path class="cls-2" d="m48.24,16.54c1.17,3.6-3.02,9.49-4.85,10.4-1.26.62-2.56.68-4.62.68-5.42,0-8.38-2.32-10.7-6.05.06.21.13.4.25.6,2.35,3.81,5.29,6.17,10.77,6.17,2.05,0,3.36-.05,4.62-.68,1.96-.97,6.62-7.65,4.52-11.12Z"/><path class="cls-2" d="m32.14,20.03s3.53,2.27,4.39,2.39l-3.73-2.52c.15-3.97-1.01-5.24-2.93-4.92-.16.03-.3.06-.42.09,1.92-.19,2.84,1.07,2.69,4.94Z"/><path class="cls-2" d="m36.51,13.91s2.26,2.76,4.52,2.7v-.51c-2.26.06-4.52-2.7-4.52-2.7-.84.83-6.24,1.87-6.9.49-.12-.24-.18-.46-.22-.65-.06.3-.01.68.22,1.17.66,1.38,6.06.33,6.9-.49Z"/></svg>