<!-- Generated by IcoMoon.io -->
<svg version="1.1" xmlns="http://www.w3.org/2000/svg" width="32" height="32" viewBox="0 0 32 32">
<path d="M28.75 15.125c-0.125 3.438-1.313 6.5-3.125 8.813-1.938 2.5-4.688 4.063-7.75 4.063h-3.75c-3.063 0-5.813-1.563-7.813-4.063-1.813-2.313-2.938-5.438-3.125-8.813-0.688-0.188-1.438-0.625-1.938-1.188-0.75-0.688-1.25-1.688-1.25-2.75 0-0.438 0.375-0.813 0.813-0.813s0.75 0.375 0.75 0.813c0 0.563 0.313 1.188 0.813 1.625 0.25 0.313 0.625 0.5 0.938 0.688 0.688-2.25 3.813-3.625 7.625-4.25h0.25c0-0.188 0-0.313 0-0.438 0-1.313 0.563-2.563 1.438-3.375 0.875-0.875 2.063-1.438 3.375-1.438s2.5 0.563 3.375 1.438c0.875 0.813 1.438 2.063 1.438 3.375 0 0.125 0 0.313 0 0.438h0.25c3.813 0.625 6.938 2 7.625 4.25 0.313-0.188 0.688-0.375 0.938-0.688 0.438-0.438 0.813-1.063 0.813-1.625 0-0.438 0.313-0.813 0.75-0.813s0.813 0.375 0.813 0.813c0 1.063-0.5 2.063-1.188 2.75-0.625 0.563-1.313 1-2.063 1.188zM12.813 9.063c1-0.125 2.125-0.188 3.188-0.188s2.125 0.063 3.188 0.188c0-0.125 0-0.188 0-0.25 0-0.875-0.375-1.688-0.938-2.25-0.563-0.625-1.375-1-2.25-1s-1.688 0.375-2.25 1c-0.563 0.563-0.938 1.375-0.938 2.25 0 0.063 0 0.125 0 0.25zM5 13.625h22c-0.688-1.375-3.188-2.313-6.188-2.813-1.5-0.188-3.188-0.313-4.813-0.313-1.688 0-3.313 0.125-4.813 0.313-3 0.5-5.5 1.438-6.188 2.813zM24.375 22.938c1.625-2 2.625-4.688 2.813-7.75h-22.375c0.188 3.063 1.188 5.75 2.813 7.75 1.625 2.125 3.938 3.5 6.5 3.5h3.75c2.563 0 4.875-1.375 6.5-3.5z"></path>
</svg>
