<!-- Generated by IcoMoon.io -->
<svg version="1.1" xmlns="http://www.w3.org/2000/svg" width="32" height="32" viewBox="0 0 32 32">
<path d="M1.688 8.563h3.688c0.688 2 2.563 3.5 4.813 3.5s4.125-1.5 4.875-3.5h15.25c0.938 0 1.688-0.75 1.688-1.688s-0.75-1.688-1.688-1.688h-15.25c-0.75-2-2.625-3.438-4.875-3.438s-4.125 1.438-4.813 3.438h-3.688c-0.938 0-1.688 0.75-1.688 1.688s0.75 1.688 1.688 1.688zM6.75 6.875c0-0.625 0.188-1.188 0.438-1.688 0.625-1.063 1.75-1.75 3-1.75 1.313 0 2.438 0.688 3 1.75 0.313 0.5 0.5 1.063 0.5 1.688s-0.188 1.188-0.5 1.688c-0.563 1.063-1.688 1.813-3 1.813-1.25 0-2.375-0.75-3-1.813-0.25-0.5-0.438-1.063-0.438-1.688zM30.313 14.313h-2.563c-0.688-2-2.563-3.438-4.813-3.438-2.313 0-4.188 1.438-4.875 3.438h-16.375c-0.938 0-1.688 0.75-1.688 1.688s0.75 1.688 1.688 1.688h16.375c0.75 2 2.625 3.438 4.875 3.438s4.125-1.438 4.813-3.438h2.563c0.938 0 1.688-0.75 1.688-1.688s-0.75-1.688-1.688-1.688zM26.375 16c0 0.625-0.188 1.188-0.438 1.688-0.625 1.063-1.75 1.75-3 1.75-1.313 0-2.438-0.688-3-1.75-0.313-0.5-0.438-1.063-0.438-1.688s0.125-1.188 0.438-1.688c0.563-1.063 1.688-1.75 3-1.75 1.25 0 2.375 0.688 3 1.75 0.25 0.5 0.438 1.063 0.438 1.688zM30.313 23.438h-18.75c-0.688-2-2.563-3.5-4.813-3.5s-4.125 1.5-4.875 3.5h-0.188c-0.938 0-1.688 0.75-1.688 1.688s0.75 1.688 1.688 1.688h0.25c0.688 2 2.563 3.438 4.813 3.438s4.125-1.438 4.875-3.438h18.688c0.938 0 1.688-0.75 1.688-1.688s-0.75-1.688-1.688-1.688zM10.188 25.125c0 0.625-0.125 1.188-0.438 1.688-0.563 1.063-1.688 1.75-3 1.75-1.25 0-2.375-0.688-3-1.75-0.25-0.5-0.438-1.063-0.438-1.688s0.188-1.188 0.438-1.688c0.625-1.063 1.75-1.813 3-1.813 1.313 0 2.438 0.75 3 1.813 0.25 0.5 0.438 1.063 0.438 1.688z"></path>
</svg>
