<!-- Generated by IcoMoon.io -->
<svg version="1.1" xmlns="http://www.w3.org/2000/svg" width="32" height="32" viewBox="0 0 32 32">
<path d="M9.625 22.375c0.313 0 0.563 0 0.813-0.063 4.938-0.375 9.938-2.813 13.688-6.188 1.25-1.125 2.375-2.375 3.25-3.625-0.688 0.188-1.5 0.313-2.313 0.313-1.125-0.063-2.25-0.313-3.25-0.875-1.063-0.625-2-1.563-2.563-2.813-0.188-0.438 0-0.875 0.438-1.063 0.375-0.188 0.875 0 1.063 0.438 0.375 0.938 1.063 1.625 1.813 2.063 0.75 0.375 1.688 0.625 2.5 0.625 0.938 0.063 1.75-0.125 2.5-0.438 0.688-0.25 1.25-0.688 1.563-1.188 0.813-1.75 1.25-3.5 1.25-5.313v-0.313c-2.25-0.75-4.438-0.938-6.438-0.688-1.875 0.25-3.625 0.813-5.25 1.688-0.125 0.188-0.25 0.313-0.438 0.313-0.063 0.063-0.063 0.063-0.125 0.063-0.875 0.5-1.688 1.125-2.438 1.813-2.25 2.125-4 4.875-5.063 7.813-0.813 2.438-1.188 4.938-1 7.438zM30.813 9.813c-0.063 0.063-0.063 0.188-0.125 0.313-0.063 0.063-0.063 0.125-0.125 0.25-1.188 2.5-3.063 4.875-5.313 6.938-0.563 0.438-1.125 0.938-1.688 1.375 0.375 1.125 0.75 2.25 1.188 3.375 0.125 0.438-0.125 0.875-0.563 1-3.438 1.063-6.063 1.063-11.063 1-0.938 0-2 0-3.563-0.063v7.188c0.063 0.188-0.063 0.438-0.188 0.625-0.313 0.313-0.813 0.313-1.125 0l-8-8.063c-0.125-0.125-0.25-0.313-0.25-0.563 0-0.438 0.375-0.813 0.813-0.813h7.25c-0.063-0.5-0.063-1-0.063-1.563v-0.938c0-9.5 0-17.188 8.563-19.813 0.438-0.188 0.875 0.063 1 0.5l0.875 2.688c1.625-0.813 3.438-1.375 5.313-1.625 2.375-0.25 4.938 0 7.625 0.938 0.313 0.063 0.563 0.375 0.563 0.688 0.063 0.375 0.063 0.688 0.063 1 0 1.875-0.438 3.75-1.188 5.563zM16.813 22.438c2.375 0 4.188-0.188 6.125-0.688l-0.688-2.125c-1.688 1.125-3.563 2.125-5.438 2.813zM17.063 4.063l-0.75-2.25c-4.75 1.813-6.188 5.813-6.563 11.063 1.125-2.625 2.813-5 4.875-6.938 0.75-0.688 1.563-1.313 2.438-1.875zM23.125 5.5c0.438-0.5 1.063-0.688 1.688-0.688s1.188 0.188 1.688 0.688c0.5 0.438 0.688 1.063 0.688 1.688s-0.188 1.25-0.688 1.688c-0.438 0.5-1.063 0.688-1.688 0.688s-1.25-0.188-1.688-0.688c-0.5-0.438-0.688-1.063-0.688-1.688-0.063-0.625 0.188-1.188 0.688-1.688zM24.25 6.625c-0.188 0.188-0.25 0.375-0.25 0.563s0.063 0.438 0.25 0.563c0.125 0.188 0.375 0.25 0.563 0.25s0.375-0.063 0.563-0.25c0.125-0.125 0.25-0.375 0.25-0.563s-0.125-0.438-0.25-0.563c-0.188-0.125-0.375-0.25-0.563-0.25s-0.438 0.125-0.563 0.25zM8 29.25v-5.25h-5.313z"></path>
</svg>
