<?xml version="1.0" encoding="UTF-8"?><svg id="Content" xmlns="http://www.w3.org/2000/svg" viewBox="0 0 42.18 23.19"><defs><style>.cls-1{fill:#9f542e;}.cls-2{stroke:#917f51;stroke-linecap:round;stroke-miterlimit:10;}.cls-2,.cls-3{fill:none;}.cls-4{fill:#d1b04f;}.cls-5{fill:#77903f;}.cls-6{fill:#3e9ae0;opacity:.09;}.cls-7{fill:#917f51;}.cls-8{fill:#e6b86d;}.cls-9{fill:#e0dbd0;}.cls-10{fill:#f8f6e4;}</style></defs><polygon class="cls-7" points="40.7 12.27 14.57 6.45 .57 10.73 2.38 15.88 27.48 22.98 36.4 19.15 40.23 16.4 40.7 12.27"/><path class="cls-1" d="m39.43,12.3c.46-2.84-9.46-4.07-17.51-4.86s-13.61.28-15.95,1.92c-1.54,1.08-5.74,1.67-2.39,2.5.71.17,9.98,2.41,9.62,2.87-.62.77,4.17,1.65,5.8,1.17,1.64-.47-.2.47.56.98.77.51,3.1.88,4.43.44,1.33-.44,2.56.05,4.65.28,2.09.23,3.35-1.47,4.51-1.94,0,0,.63,0,.63,0,1.97-.68,5.46-2.19,5.65-3.36Z"/><path class="cls-8" d="m34.47,11.58c-.71-1.11-2.88.15-4-.17-2.42-.68-.95,1.99,0,2.22,1.15.27,4.72-.94,4-2.05Z"/><path class="cls-8" d="m25.31,13.12c-1.74-.21-1.94-.6-2.91-.11-2.1,1.06,3.52,3.02,4.3,2.58.93-.53.35-2.26-1.38-2.47Z"/><path class="cls-8" d="m29.38,7.98c-2.05-.25-2.13-.49-3.28.08-2.48,1.24.22,3.13,1.13,2.61,1.1-.62,4.19-2.45,2.14-2.7Z"/><path class="cls-8" d="m18.77,11.75c-1.62-.27-3.93.25-4.25,1.23-.32.98.57,1.8,1.76,1.67,1.19-.13,2.07-1.29,2.71-1.63.64-.34.76-1.11-.22-1.27Z"/><path class="cls-10" d="m22.76,4.51c-.77-.16-1.46.83-2.23.66-.5-.11-1.55-.97-2.07-.97-.63,0-1.56,1.15-2.19,1.19-.86.06-1-1.16-1.85-1.08-1.99.19-3.4,2.32-5.58,2.13-1.63-.14-4,3.75-2.26,3.92,3.18.32,2.66,1.62,3.07,1.7.45.08.62-1.01,1.03-1.17.51-.19,1.78.37,2.24.13.37-.19.18-1.12.56-1.29.48-.22,1.66.45,2.19.33.31-.07.58-1,.78-.81,1.57,1.48,2.82,1.07,3.25.53.3-.38-.57-1.53-.1-1.78.51-.27,1.42,1.26,2.02,1.13.23-.05.15-.6.36-.69.39-.16,1.42.54,1.73.3.24-.19-.6-.84-.36-1.04.29-.24,1.26.36,1.66.26.61-.16,1.44-1.39,1.39-1.88-.07-.65-2.81-1.41-3.63-1.58Z"/><path class="cls-9" d="m12.86,5.41c-.8.62-1.19,1.33-.88,1.58.31.25,1.2-.05,2-.67.79-.62,1.19-1.33.88-1.58-.31-.25-1.2.05-2,.67Z"/><path class="cls-9" d="m14.55,9.32c-.95-.48-1.93-.64-2.18-.36-.25.28.31.9,1.26,1.38.95.48,1.93.64,2.18.36.25-.28-.31-.9-1.26-1.38Z"/><path class="cls-9" d="m9.21,7.87c-.97.42-1.55,1-1.31,1.3.11.14.87-.23.5.87-.24.71,1.24.13,2.15-.35,2.13-1.1.9-2.8-1.35-1.82Z"/><path class="cls-9" d="m18.82,8.34c.49.03-.07-.96-.85-1.58-.78-.61-1.86-.97-1.97-.64-.24.77-.79.44-.95.6-.28.28.17.96,1,1.52.84.56,1.74.79,2.03.51.09-.09-.32-.47.74-.41Z"/><path class="cls-9" d="m23.93,6.66c.97-.42,1.55-1,1.31-1.3-.24-.3-2.42.5-4.26-.05-1.05-.32-2.08.02-2.15.36-.04.23.35.49.97.67-.36.33-.51.64-.34.82.27.29,1.24.13,2.15-.35.03-.01,1.35.26,2.31-.16Z"/><path class="cls-5" d="m13.72,8.06c-.23-.81-1.19-1.44-1.19-1.44,0,0-.03.81.04,1.22-1.1-.43-.88-2.03-.88-2.03,0,0-.83.28-.86.9-1.14-.92-2.28-.65-2.28-.65,0,0,1.5.86,1.65,1.35-.91-.04-1.48.15-1.88.69,0,0,1.89-.48,3.14.13-.57.28-.45,1.13-.45,1.13,2.39-1.52,3.53.17,4.51-.17-.63-.89-1.8-1.12-1.8-1.12Z"/><path class="cls-5" d="m26.63,5.1s-1.36.48-1.87.37c.38-.49.43-.87.09-1.3,0,0-.29,1.22-1.33,1.67-.03-.42-.86-.68-.86-.68.47,1.9-1.52,1.86-1.58,2.53,1.06,0,1.72-.54,1.72-.54.83.19,1.78-.09,1.78-.09,0,0-.73-.34-1.13-.45.82-.43,2.2.31,2.2.31,0,0,.06-.56-.49-.82,1.28-.27,1.48-.99,1.48-.99Z"/><path class="cls-3" d="m36.82,6.45c-.17.01-.36.04-.51.11-1.56.75-3.12,1.5-4.67,2.26-.15.07-.19.27-.28.41.03,0,.06,0,.1,0l5.45-2.71s-.06-.07-.09-.07Z"/><path class="cls-3" d="m24.96,10.19c-6.23-1.49-12.45-2.99-18.67-4.48-.15-.04-.3-.07-.5-.12-.08.04-.26.09-.26.14,0,.05.02.11.05.16l1.01.12-1.01-.12c.03.05.07.1.12.12.17.08.39.12.59.16,6.07,1.46,12.14,2.93,18.22,4.37,1.29.31,2.13.85,2.45,1.93.39,1.32.9,2.62,1.39,3.92.04.11.16.21.28.31v-.53s0,.53,0,.53c.06.05.13.1.18.16.05-.19.19-.4.13-.58-.47-1.37-1-2.72-1.47-4.09-.1-.29-.24-.55-.41-.78l-.28.14.28-.14c-.45-.6-1.14-1-2.09-1.23Z"/><path class="cls-3" d="m29.91,9.71c-.5.21-.99.45-1.46.7-.03.01.05.16.11.27l1.64-.82c-.15-.1-.25-.16-.29-.15Z"/><path class="cls-3" d="m31.91,9.2c1.59-.75,3.16-1.52,4.74-2.29.13-.06.26-.13.41-.2-.07-.08-.12-.15-.16-.2l-5.45,2.71c.16,0,.34.02.46-.03Z"/><path class="cls-3" d="m28.58,10.73c.56-.24,1.11-.47,1.8-.76-.07-.04-.13-.08-.19-.11l-1.64.82s.02.04.03.06Z"/><path class="cls-3" d="m14.67,13.02c-.88-.25-1.77-.48-2.67-.7-.19-.05-.41,0-.62,0-.02.07-.04.13-.06.2.16.08.31.19.49.24.89.24,1.78.47,2.68.67.18.04.4-.04.6-.06-.14-.12-.25-.29-.42-.34Z"/><path class="cls-4" d="m27.6,21.62c.22-1.15.44-2.3.66-3.46-8.95-2.2-17.85-4.38-26.92-6.6.39,1.44.69,2.73,1.12,3.99.09.28.6.57.99.68,3.32.92,6.67,1.79,10,2.68,4.2,1.13,8.39,2.28,12.59,3.39.47.12.95.2,1.43.2l.33-.83c-.07-.02-.14-.03-.2-.05Z"/><path class="cls-4" d="m33.52,16.06c-1.41.72-2.65,1.68-4.34,2.05-.15.03-.29.27-.32.43-.2.85-.35,1.7-.55,2.55-.05.22-.22.42-.33.62-.05-.01-.11-.03-.16-.04l-.33.83c.65,0,1.3-.12,1.9-.42,3.02-1.54,6.04-3.08,9.01-4.68.53-.29.97-.84,1.16-1.34.47-1.21.76-2.46,1.15-3.78-.24.1-.38.15-.5.21-2.22,1.19-4.41,2.43-6.68,3.57Z"/><path class="cls-6" d="m41.06,10.46c-.69-.39-1.02-.91-1.3-1.49-.23-.46-.55-.9-.71-1.37-.23-.69-.69-1.16-1.3-1.51-.46-.26-1-.44-1.61-.58-6.38-1.52-12.75-3.06-19.12-4.58-.45-.11-.91-.16-1.51-.27-.5.12-1.13.19-1.67.41-3.55,1.45-7.07,2.95-10.61,4.4-.09.03-.17.07-.24.11-.52.27-.82.63-.94,1.11-.21.83-.38,1.66-.62,2.48-.09.29-.31.58-.57.8-.55.46-.46.86.28,1.07.2.05.4.09.6.14,8.53,2.09,17.06,4.17,25.57,6.28.46.11.9.15,1.33.13.35-.02.69-.08,1.03-.19.46-.14.87-.37,1.28-.59,3.35-1.79,6.71-3.57,10.05-5.37.67-.36.7-.63.06-.99Zm-12.26,6.41c-.05-.05-.12-.11-.18-.16-.12-.1-.23-.2-.28-.31-.49-1.3-.99-2.6-1.39-3.92-.32-1.07-1.17-1.62-2.45-1.93-6.08-1.44-12.15-2.91-18.22-4.37-.2-.05-.42-.08-.59-.16-.05-.02-.09-.07-.12-.12s-.05-.11-.05-.16c0-.05.18-.1.26-.14.2.05.35.08.5.12,6.22,1.49,12.44,2.99,18.67,4.48.95.23,1.64.63,2.09,1.23.17.23.31.49.41.78.47,1.37,1,2.72,1.47,4.09.06.17-.08.38-.13.58Zm7.85-9.96c-1.58.76-3.15,1.53-4.74,2.29-.12.06-.29.03-.46.03-.03,0-.06,0-.1,0,.09-.14.14-.34.28-.41,1.55-.77,3.1-1.52,4.67-2.26.15-.07.33-.1.51-.11.02,0,.05.02.09.07.04.05.09.12.16.2-.15.07-.28.14-.41.2Z"/><path class="cls-2" d="m1.41,11.59c-.4.53.02,1.04.1,1.54.12.75.4,1.48.6,2.22.15.56.55.93,1.26,1.11,4.66,1.25,9.3,2.54,13.98,3.75,2.93.76,5.8,1.65,8.78,2.31,1.41.31,2.73.2,3.92-.39,2.86-1.44,5.68-2.93,8.48-4.44.66-.35,1.14-.88,1.35-1.53.34-1.02.67-2.04.88-3.08.05-.24-.11-.41-.1-.62"/><path class="cls-2" d="m41.68,10.97c-.13-.25-.38-.43-.63-.62-.82-.6-1.01-1.45-1.41-2.22-.25-.49-.4-1.02-.73-1.47-.49-.68-1.33-1.07-2.26-1.3-4.63-1.12-9.26-2.23-13.89-3.33-1.96-.47-3.93-.89-5.88-1.36-1.09-.26-2.13-.23-3.14.19-2.88,1.21-5.76,2.42-8.63,3.64-.75.32-1.41.73-2.26.96-.91.24-1.01,1.04-1.18,1.7-.29,1.09-.32,2.22-1.09,3.21-.27.35.38,1.16.93,1.15,1.38-.01,2.58.47,3.84.76,5.61,1.33,11.21,2.7,16.8,4.06,1.94.47,3.88.97,5.81,1.48.98.26,1.77-.07,2.51-.45,3-1.54,5.98-3.11,8.95-4.68.18-.09.61-.29.79-.42,1.24-.91,1.13-.6,1.49-1.24"/><path class="cls-2" d="m5.53,5.74c2.22.55,5.67,1.37,7.89,1.91,3.85.93,7.69,1.85,11.54,2.77,1.23.3,1.97.92,2.29,1.91.54,1.7.96,2.72,1.39,4.01.07.22.14.29.41.21"/><path class="cls-2" d="m36.74,6.66c-1.62.78-3.24,1.56-4.87,2.34-.09.04-.21.06-.31.09"/><path class="cls-2" d="m28.57,18.07c-.02,1.11-.49,2.17-.55,3.27"/></svg>