<?xml version="1.0" encoding="utf-8"?>
<!-- Generator: Adobe Illustrator 28.3.0, SVG Export Plug-In . SVG Version: 6.00 Build 0)  -->
<svg version="1.1" id="Capa_1" xmlns="http://www.w3.org/2000/svg" xmlns:xlink="http://www.w3.org/1999/xlink" x="0px" y="0px"
	 viewBox="0 0 21.6 19.6" style="enable-background:new 0 0 21.6 19.6;" xml:space="preserve">
<style type="text/css">
	.st0{fill:#FFFFFF;}
	.st1{fill:#F2EDD3;}
	.st2{fill:#D7D4BE;}
	.st3{fill:#898548;}
	.st4{fill:#3F5F75;}
	.st5{fill:none;}
	.st6{fill:#FFFDD8;}
	.st7{fill:#C1BE86;}
</style>
<g id="Background">
</g>
<g>
	<path class="st0" d="M21.6,7.6H0.2c0,0,0.6,5.9,1.7,7.5c1.2,1.8,4.2,4.4,8.9,4.4c4.7,0,7.7-2.6,8.9-4.4
		C20.9,13.5,21.6,7.6,21.6,7.6z"/>
	<path class="st1" d="M21.6,7.6c0,2-4.8,3.7-10.7,3.7C5,11.2,0.2,9.6,0.2,7.6S5,3.9,10.9,3.9C16.8,3.9,21.6,5.5,21.6,7.6z"/>
	<path class="st2" d="M21.2,7.5c0,1.8-4.6,3.3-10.3,3.3c-5.7,0-10.3-1.5-10.3-3.3c0-1.8,4.6-3.3,10.3-3.3
		C16.6,4.2,21.2,5.7,21.2,7.5z"/>
	<path class="st3" d="M10.9,5.3c-5.1,0-9.3,1.2-10.2,2.8c0.9,1.6,5.1,2.8,10.2,2.8c5.1,0,9.3-1.2,10.2-2.8C20.2,6.5,16,5.3,10.9,5.3
		z"/>
	<path class="st4" d="M10.9,14.1c4.7,0,8.7-1.1,10.1-2.7c0.2-0.9,0.3-1.7,0.4-2.4c-0.9,1.7-5.3,3-10.5,3c-5.2,0-9.6-1.3-10.5-3
		c0.1,0.7,0.2,1.5,0.4,2.4C2.2,13,6.2,14.1,10.9,14.1z"/>
	<g>
		<path class="st5" d="M13.2,7.1c0,0-0.1,0.1-0.1,0.1c0.1,0.1,0.1,0.2,0.2,0.4c0-0.1,0.1-0.2,0.1-0.3c0.1-0.2,0.2-0.4,0.4-0.5
			c0,0,0,0,0-0.1c-0.1,0-0.2,0-0.3-0.1C13.4,6.8,13.3,6.9,13.2,7.1C13.2,7.1,13.2,7.1,13.2,7.1z"/>
		<path class="st5" d="M11.9,6.1c0-0.2,0.1-0.4,0.2-0.6c0,0,0,0-0.1,0.1l-0.1,0.1c-0.1,0.1-0.2,0.1-0.2,0.1c-0.1,0-0.1,0.1-0.2,0.1
			l0,0c0,0,0,0,0,0C11.6,6,11.7,6,11.9,6.1C11.9,6.1,11.9,6.1,11.9,6.1z"/>
		<path class="st5" d="M15,7.1c0.1,0,0.2,0.1,0.3,0.1c0,0,0,0,0-0.1c0-0.1-0.1-0.2-0.1-0.3c-0.1,0-0.1,0-0.2,0C15,6.9,15,7,15,7.1
			L15,7.1z"/>
		<path class="st5" d="M10.9,10.4c0-0.1-0.1-0.1-0.1-0.2c0,0,0-0.1,0-0.1c0-0.1-0.1-0.2-0.1-0.3c-0.1,0.1-0.2,0.2-0.4,0.2
			c0,0,0,0-0.1,0c0,0.1,0,0.1,0.1,0.2c0,0.1,0,0.2,0.1,0.2c0,0,0,0.1,0,0.2l0,0c0,0,0,0.1,0,0.1c0.2,0,0.3,0,0.5,0c0,0,0,0,0.1,0
			C10.9,10.7,10.9,10.5,10.9,10.4z"/>
		<path class="st5" d="M13,9c-0.2-0.1-0.4-0.2-0.6-0.3c-0.1-0.1-0.2-0.1-0.3-0.2c0.1,0.2,0.2,0.4,0.2,0.6C12.6,9.2,12.8,9.1,13,9
			C13,9.1,13,9.1,13,9C13,9,13,9.1,13,9z"/>
		<path class="st5" d="M8,9.8c0,0,0.1-0.1,0.1-0.1C8,9.6,8,9.5,7.9,9.4c0,0.1,0,0.2-0.1,0.3c-0.1,0.2-0.2,0.4-0.3,0.5c0,0,0,0,0,0.1
			c0.1,0,0.2,0,0.4,0.1c0-0.1,0.1-0.1,0.1-0.2C7.9,10.1,7.9,10,8,9.8z"/>
		<path class="st5" d="M10.3,6.8C10.3,6.8,10.4,6.8,10.3,6.8c0,0.1,0,0.1,0,0.2c0,0.1,0.1,0.2,0.1,0.3C10.6,7.1,10.7,7,10.8,7
			c0,0,0.1,0,0.1-0.1c0-0.1,0-0.1,0-0.2c0-0.1,0-0.2-0.1-0.2c0,0,0-0.1,0-0.2l0,0c0-0.1,0-0.2,0-0.2c-0.2,0-0.4,0-0.6,0
			C10.3,6.3,10.3,6.6,10.3,6.8z"/>
		<path class="st5" d="M8.8,8.3C8.9,8.3,9,8.4,9.1,8.5C9,8.3,8.9,8.1,8.9,7.9C8.6,7.9,8.4,7.9,8.2,8c0,0,0,0,0,0.1c0,0,0,0,0,0
			C8.4,8.1,8.6,8.2,8.8,8.3z"/>
		<path class="st5" d="M4.5,6.1C4.4,6.5,4.2,6.8,4,7.1C3.9,7.3,3.7,7.5,3.5,7.6C3.4,7.7,3.3,7.8,3.1,7.8L3,7.9C2.8,8,2.7,8,2.6,7.9
			c-0.1,0-0.2-0.1-0.3-0.3c-0.1-0.2-0.1-0.5,0-0.7C2.5,6,3,5.1,3.6,4.5c0.1-0.1,0.3-0.2,0.5-0.3c0.1,0,0.2-0.1,0.3-0.1
			c0.1,0,0.2,0,0.2,0.1c0.1,0.1,0.3,0.2,0.3,0.4c0,0,0,0.1,0,0.1l0,0.1C4.9,5.2,4.8,5.6,4.5,6.1z M20.8,7.1
			c-0.1,0.2-0.2,0.3-0.4,0.3c-0.1,0-0.3,0.1-0.5,0.1c0,0-0.1,0-0.1,0c-0.9-0.1-1.8-0.4-2.5-0.8c-0.2-0.1-0.3-0.3-0.5-0.5
			c-0.1-0.2-0.2-0.3-0.1-0.5c0.1-0.1,0.2-0.3,0.4-0.3c0.2,0,0.4-0.1,0.5-0.1c0.1,0,0.2,0,0.2,0l0,0l0,0c0.7,0,1.3,0.2,2,0.6
			c0.2,0.1,0.4,0.2,0.5,0.4c0.1,0.1,0.2,0.2,0.3,0.3C20.8,6.8,20.8,6.9,20.8,7.1z"/>
		<path class="st5" d="M12.6,10.8C12.6,10.8,12.6,10.8,12.6,10.8C12.6,10.8,12.6,10.8,12.6,10.8C12.6,10.8,12.6,10.8,12.6,10.8z"/>
		<path class="st5" d="M6.3,10.1C6.2,10,6.1,10,6,9.9c0,0,0,0,0,0.1c0,0.1,0.1,0.2,0.1,0.3c0.1,0,0.1,0,0.2,0
			C6.3,10.2,6.3,10.2,6.3,10.1L6.3,10.1z"/>
		<path class="st6" d="M11,9.6c-0.1,0.1-0.2,0.1-0.2,0.2c0,0.1,0.1,0.2,0.1,0.3c0-0.1,0-0.1,0.1-0.2C10.9,9.8,10.9,9.7,11,9.6z"/>
		<path class="st6" d="M11.9,8.3c-0.1,0-0.2,0.1-0.3,0.1c-0.1,0-0.1,0-0.2,0c0,0,0,0,0.1,0.1c0.1,0,0.1-0.1,0.2-0.1
			c0.1,0,0.3,0.1,0.4,0.2c0.1,0.1,0.2,0.3,0.3,0.4c0,0,0,0,0,0.1c0,0,0,0,0.1,0c-0.1-0.2-0.1-0.4-0.2-0.6C12,8.5,11.9,8.4,11.9,8.3z
			"/>
		<path class="st6" d="M14.8,9.1c-0.1,0.1-0.1,0.3-0.1,0.4c0.1,0.2,0.2,0.3,0.4,0.4c0.1,0,0.2,0.1,0.3,0.1c0,0,0,0,0.1,0
			c0,0-0.1,0-0.1-0.1C15.2,9.6,15,9.3,14.8,9.1z"/>
		<path class="st6" d="M16.4,8.5c0.1,0.1,0.1,0.2,0.2,0.3c0,0.1,0.1,0.1,0.1,0.2c0,0,0,0.1,0,0.1c0.1,0.2,0.1,0.4,0.1,0.6
			c0.6-0.2,1.1-0.4,1.6-0.7c0.2-0.1,0.3-0.3,0.4-0.5c0.1-0.1,0.1-0.3,0.1-0.4c0-0.1-0.2-0.2-0.3-0.3l0,0c-0.1,0-0.1,0-0.2,0
			c-0.1,0-0.2,0-0.3,0c-0.2,0-0.4-0.1-0.7,0c-0.4,0-0.9,0.2-1.3,0.4c0,0,0,0.1,0.1,0.1C16.2,8.3,16.3,8.4,16.4,8.5z"/>
		<path class="st7" d="M18.6,9.3c-0.1,0-0.2-0.1-0.4,0l-0.1,0.1c-0.1,0.1-0.2,0.1-0.4,0.2c-0.2,0.1-0.4,0.3-0.5,0.5
			c0,0,0,0.1-0.1,0.1c0.6-0.2,1.2-0.3,1.7-0.5c0,0,0,0,0,0C18.8,9.4,18.7,9.3,18.6,9.3z"/>
		<path class="st7" d="M19.8,7.7c-0.2,0-0.3,0.1-0.4,0.3l0,0.1c-0.1,0.2-0.2,0.4-0.2,0.6C19.1,9,19,9.2,19,9.5l0,0.1
			c0.7-0.3,1.2-0.6,1.6-0.9c-0.1-0.2-0.2-0.5-0.4-0.7C20.1,7.8,20,7.7,19.8,7.7z"/>
		<path class="st7" d="M14.2,7.3c0-0.2,0.1-0.3,0.2-0.4c0.1-0.1,0.3-0.1,0.4,0C14.9,7,14.9,7,15,7.1l0,0c0-0.1,0-0.1-0.1-0.2
			c-0.2,0-0.5,0-0.7,0c-0.2,0-0.3,0-0.4-0.1c0,0,0,0,0,0.1c-0.1,0.2-0.3,0.3-0.4,0.5c0,0.1-0.1,0.2-0.1,0.3c0,0,0.1,0.1,0.1,0.1
			c0,0.1,0.1,0.1,0.1,0.2l0.1,0.1l0,0c0,0,0,0.1,0,0.1c0,0.1,0,0.2,0.1,0.3c0,0.2-0.1,0.3-0.2,0.4c-0.1,0.1-0.3,0.1-0.4,0.1
			c0,0,0,0,0,0.1c0.1,0,0.1,0,0.2,0c0.4,0,0.7,0,1,0.1c0.1,0,0.2,0.1,0.3,0.1c0,0,0,0.1,0.1,0.1c0-0.1,0.1-0.2,0.1-0.3
			c0,0,0-0.1,0-0.1c-0.2-0.3-0.4-0.7-0.5-1.1C14.2,7.7,14.2,7.5,14.2,7.3z"/>
		<path class="st7" d="M15.8,5.8C15.8,5.9,15.9,6,15.9,6c0,0.1,0,0.1,0,0.2c0,0.2-0.1,0.3-0.3,0.4c0,0-0.1,0-0.1,0.1l0,0
			c-0.1,0-0.3,0.1-0.4,0.1c0,0.1,0.1,0.2,0.1,0.3c0,0,0,0,0,0.1c0.2,0.1,0.3,0.2,0.5,0.4c0,0,0,0,0.1,0c0,0,0,0,0,0
			c0.2,0,0.4-0.1,0.6-0.4c0.1-0.2,0.1-0.4,0.2-0.6c0-0.2,0.1-0.4,0.1-0.6c0-0.1,0-0.2,0-0.3c0.1-0.5,0-1-0.2-1.4
			c-0.1-0.3-0.3-0.5-0.4-0.8c-0.1-0.2-0.3-0.2-0.4-0.2c-0.1,0-0.3,0-0.4,0.3c-0.1,0.1-0.2,0.3-0.2,0.4c-0.1,0.4-0.2,0.8-0.2,1.3l0,0
			l0,0.1c0.2,0.1,0.3,0.1,0.5,0.2C15.5,5.6,15.6,5.7,15.8,5.8z"/>
		<path class="st6" d="M20.4,6.3c-0.2-0.1-0.4-0.3-0.5-0.4c-0.7-0.4-1.3-0.6-2-0.6l0,0l0,0c-0.1,0-0.2,0-0.2,0
			c-0.2,0-0.4,0.1-0.5,0.1c-0.2,0-0.3,0.2-0.4,0.3c-0.1,0.1,0,0.3,0.1,0.5c0.1,0.2,0.3,0.3,0.5,0.5c0.7,0.5,1.5,0.8,2.5,0.8
			c0,0,0.1,0,0.1,0c0.2,0,0.4,0,0.5-0.1c0.2-0.1,0.3-0.2,0.4-0.3c0.1-0.2,0-0.3-0.1-0.5C20.6,6.5,20.5,6.4,20.4,6.3z"/>
		<path class="st6" d="M13.2,7c0.1-0.1,0.1-0.2,0.2-0.3c-0.1,0-0.2,0-0.2,0c0,0,0,0,0,0C13.3,6.8,13.3,6.9,13.2,7z"/>
		<path class="st6" d="M13.8,4.3c-0.2,0.2-0.4,0.3-0.6,0.4C13,4.9,12.8,5,12.6,5.2l-0.1,0c-0.1,0-0.1,0.1-0.2,0.1l-0.1,0
			c0,0.1-0.1,0.2-0.2,0.3C12,5.7,12,5.9,11.9,6.1c0.2,0.1,0.3,0.2,0.5,0.3c0,0,0.1,0,0.1,0c0.1,0,0.1,0,0.2,0c0,0-0.1,0-0.1-0.1
			c-0.1-0.1-0.2-0.2-0.3-0.2l-0.1-0.1C12.1,6,12,5.8,12,5.8c0-0.1,0-0.2,0.2-0.3c0.2-0.1,0.4-0.2,0.6-0.3c0.4-0.1,0.8-0.1,1.3,0
			c0-0.1,0-0.3,0-0.4l0-0.1c0-0.1,0-0.1,0-0.2c0-0.1,0-0.2,0-0.3l0-0.1C14,4,14,3.9,13.9,3.8C14,4,13.9,4.2,13.8,4.3z"/>
		<path class="st6" d="M15,10.6c0.2,0,0.4-0.1,0.6-0.1c-0.1,0-0.1,0-0.2,0C15.2,10.5,15.1,10.5,15,10.6z"/>
		<path class="st6" d="M15.8,9.9l-0.2,0l0,0c0,0,0,0-0.1,0c0.1,0.1,0.3,0.2,0.4,0.3l0.1,0c0.1,0.1,0.3,0.1,0.4,0
			c0.2-0.1,0.3-0.3,0.3-0.5c0,0,0,0,0,0c-0.2,0.1-0.5,0.1-0.8,0.2C15.9,9.9,15.9,9.9,15.8,9.9z"/>
		<path class="st6" d="M15.3,7.2c-0.1,0-0.2-0.1-0.3-0.1l0,0C15.2,7.8,15,8.4,14.8,9c0,0,0,0,0,0.1c0,0,0-0.1,0.1-0.1
			c0.1-0.2,0.3-0.3,0.5-0.5c0.2-0.2,0.5-0.3,0.8-0.4c-0.1-0.2-0.2-0.3-0.4-0.5C15.6,7.5,15.4,7.4,15.3,7.2z"/>
		<path class="st6" d="M14.9,8.9c0,0,0,0.1-0.1,0.1c0.2,0.3,0.4,0.5,0.7,0.8c0,0,0.1,0,0.1,0.1c0,0,0,0,0.1,0l0,0l0.2,0
			c0.1,0,0.2,0,0.2,0c0.3,0,0.5-0.1,0.8-0.2c0-0.2,0-0.4-0.1-0.6c0,0,0-0.1,0-0.1c0-0.1-0.1-0.2-0.1-0.2c0-0.1-0.1-0.2-0.2-0.3
			c-0.1-0.1-0.1-0.2-0.2-0.4c0,0,0-0.1-0.1-0.1c-0.3,0.1-0.5,0.3-0.8,0.4C15.2,8.6,15,8.8,14.9,8.9z"/>
		<path class="st6" d="M15,7.1L15,7.1C14.9,7,14.9,7,14.8,6.9c-0.2-0.1-0.3-0.1-0.4,0c-0.1,0.1-0.2,0.2-0.2,0.4c0,0.2,0,0.4,0.1,0.6
			c0.1,0.4,0.3,0.8,0.5,1.1C15,8.4,15.2,7.8,15,7.1z"/>
		<path class="st6" d="M15.3,7.2c0.1,0.3,0.3,0.3,0.5,0.4C15.6,7.4,15.4,7.3,15.3,7.2z"/>
		<path class="st6" d="M10.8,6.4c0,0.1,0,0.1,0,0.2c0,0.1,0,0.2,0.1,0.2c0,0.1,0,0.1,0,0.2c0.1,0,0.1-0.1,0.2-0.1l0.1-0.1l0,0
			c0.2-0.1,0.4-0.1,0.5-0.2c0,0,0-0.1,0-0.1c0-0.1,0-0.2,0.1-0.3c0,0,0,0-0.1,0C11.7,6,11.6,6,11.5,5.9c-0.2,0.1-0.4,0.1-0.6,0.2
			C10.8,6.2,10.8,6.2,10.8,6.4L10.8,6.4z"/>
		<path class="st6" d="M12.7,7.8C12.5,8,12.3,8.1,12,8.3c0.1,0.1,0.1,0.2,0.2,0.3c0.1,0.1,0.2,0.2,0.3,0.2C12.6,8.9,12.8,9,13,9
			c0,0,0,0,0,0c0-0.5,0.1-1,0.3-1.4c-0.1-0.1-0.1-0.2-0.2-0.4C13,7.5,12.8,7.6,12.7,7.8z"/>
		<path class="st6" d="M11.9,8.3c0.1,0.1,0.2,0.2,0.3,0.3c0-0.1-0.1-0.2-0.2-0.3C11.9,8.3,11.9,8.3,11.9,8.3z"/>
		<path class="st6" d="M13.5,9c0.1-0.1,0.2-0.3,0.2-0.4c0-0.1,0-0.2-0.1-0.3c0,0,0-0.1,0-0.1l0,0L13.5,8c0-0.1-0.1-0.1-0.1-0.2
			c0-0.1-0.1-0.1-0.1-0.1C13.1,8.1,13,8.5,13,9.1C13.2,9.1,13.4,9.1,13.5,9z"/>
		<path class="st6" d="M11.8,6.6c0.2,0,0.4-0.1,0.5-0.1c-0.1-0.1-0.3-0.2-0.5-0.3C11.9,6.2,11.9,6.3,11.8,6.6
			C11.8,6.5,11.8,6.5,11.8,6.6z"/>
		<path class="st7" d="M13.5,6.7c0.1,0,0.2,0,0.3,0.1c0,0,0-0.1,0.1-0.1c0.1-0.1,0.1-0.1,0.2-0.2l0.1-0.1c0.1-0.1,0.3-0.2,0.4-0.2
			c0.1,0,0.3,0.1,0.3,0.3c0,0.1,0.1,0.2,0.1,0.3c0.1,0,0.1,0,0.2,0c-0.1-0.3-0.2-0.6-0.2-1c0-0.1,0-0.3,0-0.4l0-0.1
			c-0.3-0.1-0.5-0.1-0.8-0.2C14,5.6,13.9,6,13.7,6.4C13.6,6.5,13.5,6.6,13.5,6.7z"/>
		<path class="st7" d="M14.9,6.8c0-0.1,0-0.2-0.1-0.3c-0.1-0.2-0.2-0.3-0.3-0.3c-0.1,0-0.3,0-0.4,0.2l-0.1,0.1
			c-0.1,0.1-0.1,0.1-0.2,0.2c0,0,0,0.1-0.1,0.1c0.1,0,0.3,0,0.4,0.1C14.5,6.9,14.7,6.9,14.9,6.8z"/>
		<path class="st7" d="M14.9,5.8c0,0.3,0.1,0.6,0.2,1c0.1,0,0.3,0,0.4-0.1l0,0c0,0,0.1,0,0.1-0.1c0.2-0.1,0.3-0.2,0.3-0.4
			c0-0.1,0-0.1,0-0.2c0-0.1-0.1-0.1-0.1-0.2c-0.1-0.1-0.3-0.2-0.4-0.3c-0.2-0.1-0.3-0.1-0.5-0.2l0,0.1C14.9,5.6,14.9,5.7,14.9,5.8z"
			/>
		<path class="st7" d="M12.8,5.2c-0.2,0-0.5,0.1-0.6,0.3C12.1,5.6,12,5.7,12,5.8c0,0.1,0,0.2,0.2,0.3l0.1,0.1
			c0.1,0.1,0.2,0.2,0.3,0.2c0,0,0.1,0,0.1,0.1c0.1,0,0.1,0,0.2,0c0.2,0,0.3,0.1,0.3,0.2c0.1,0,0.2,0,0.2,0c0.1-0.1,0.2-0.3,0.2-0.4
			C13.9,6,14,5.6,14.1,5.2C13.7,5.1,13.3,5.1,12.8,5.2z"/>
		<path class="st7" d="M12.1,4.9C12.2,5,12.2,5,12.2,5.1c0.2-0.4,0.4-0.7,0.6-1.1c0.1-0.2,0.3-0.3,0.4-0.4c0.2-0.1,0.3-0.1,0.5,0
			c0.1,0,0.1,0.1,0.1,0.1c0,0,0,0,0-0.1c0,0,0,0,0-0.1c-0.1-0.2-0.3-0.3-0.7-0.3c-0.5,0-1,0.1-1.7,0.4c-0.3,0.1-0.6,0.4-0.9,0.7
			c0.3,0,0.7,0.1,1,0.2C11.8,4.7,12,4.8,12.1,4.9z"/>
		<path class="st7" d="M13.3,3.7c-0.1,0.1-0.3,0.2-0.4,0.4c-0.3,0.3-0.5,0.7-0.6,1.1c0,0,0,0.1,0,0.1c0,0,0,0,0,0l0.1,0
			c0.1,0,0.1,0,0.2-0.1l0.1,0C12.8,5,13,4.9,13.2,4.8c0.2-0.1,0.4-0.3,0.6-0.4C13.9,4.2,14,4,13.9,3.8c0-0.1-0.1-0.1-0.1-0.1
			C13.6,3.6,13.5,3.6,13.3,3.7z"/>
		<path class="st7" d="M10.8,10.1c0,0,0,0.1,0,0.1c0,0.1,0,0.1,0.1,0.2c0,0,0-0.1,0-0.1C10.9,10.2,10.9,10.1,10.8,10.1z"/>
		<path class="st7" d="M13.9,10.5c0.1,0,0.1,0,0.2-0.1c0.2-0.1,0.4-0.2,0.5-0.4c0.1-0.1,0.1-0.3,0.1-0.4c0,0,0-0.1,0-0.1
			c0-0.1-0.1-0.1-0.1-0.1c-0.1,0.2-0.2,0.5-0.4,0.6c-0.1,0.1-0.2,0.2-0.2,0.2c-0.1,0.1-0.2,0.1-0.3,0.1c0,0-0.1,0-0.1,0
			c-0.1,0-0.3-0.1-0.3-0.3C13.1,9.9,13,9.7,13,9.5c0-0.1,0-0.1,0-0.2l0-0.1c0,0,0-0.1,0-0.1c-0.2,0-0.4,0-0.7,0.1c0,0,0,0.1,0,0.1
			c0,0.1,0,0.2,0.1,0.2c0.1,0.4,0.2,0.8,0.1,1.3c0,0,0,0,0,0c0.1,0,0.3,0,0.4,0C13.3,10.7,13.6,10.7,13.9,10.5L13.9,10.5z"/>
		<path class="st7" d="M10.9,9.9c0,0.1-0.1,0.1-0.1,0.2c0,0.1,0.1,0.1,0.1,0.2C10.9,10.1,10.9,10,10.9,9.9z"/>
		<path class="st7" d="M12.4,9.3L12.4,9.3L12.4,9.3c0,0.1,0,0.2,0.1,0.2C12.4,9.4,12.4,9.4,12.4,9.3c0-0.1,0-0.1,0-0.1
			c0,0,0,0-0.1,0C12.3,9.2,12.3,9.3,12.4,9.3z"/>
		<path class="st7" d="M14.2,9.2c-0.3-0.1-0.6-0.1-1-0.1c-0.1,0-0.1,0-0.2,0c0,0,0,0.1,0,0.1l0,0.1c0,0.1,0,0.1,0,0.2
			c0,0.2,0,0.4,0.2,0.7c0.1,0.1,0.2,0.2,0.3,0.3c0,0,0.1,0,0.1,0c0.1,0,0.2,0,0.3-0.1c0.1-0.1,0.2-0.1,0.2-0.2
			c0.2-0.2,0.3-0.4,0.4-0.6c0,0,0-0.1-0.1-0.1C14.4,9.3,14.3,9.3,14.2,9.2z"/>
		<path class="st7" d="M7.9,10.2C8,10.1,8,10,8.1,9.9c0,0,0.1-0.1,0.1-0.1c0,0-0.1-0.1-0.1-0.1c0,0-0.1,0.1-0.1,0.1
			C7.9,10,7.9,10.1,7.9,10.2z"/>
		<path class="st7" d="M10.6,9.8c-0.1,0-0.2,0.1-0.4,0c0,0,0,0,0,0c0.1,0.1,0.1,0.2,0.1,0.3c0,0,0,0,0.1,0c0.1-0.1,0.3-0.1,0.4-0.2
			C10.7,9.8,10.7,9.8,10.6,9.8C10.7,9.8,10.6,9.8,10.6,9.8z"/>
		<path class="st7" d="M11,9.3c0-0.2,0.1-0.4,0.2-0.6c0.1-0.1,0.1-0.1,0.2-0.2c0,0,0,0-0.1-0.1c0,0,0,0-0.1,0
			c-0.1,0-0.3,0.1-0.4,0.1C10.9,8.7,11,8.9,11,9l0,0l0,0c0,0,0,0.1,0,0.1c0,0.1,0,0.2-0.1,0.3c0,0.1-0.1,0.2-0.2,0.3c0,0,0,0,0,0.1
			c0.1-0.1,0.2-0.1,0.2-0.2C11,9.5,11,9.4,11,9.3z"/>
		<path class="st6" d="M10.3,6.8c0-0.2,0-0.5,0-0.7c-0.1,0-0.2,0-0.3,0c-0.1,0-0.2,0-0.3,0c0,0,0.1,0.1,0.1,0.1
			c0.1,0.1,0.2,0.2,0.3,0.4C10.2,6.6,10.3,6.7,10.3,6.8z"/>
		<path class="st6" d="M9,5.9c-0.1,0-0.2-0.1-0.2-0.1c0,0.2,0,0.3-0.1,0.5C8.7,6.1,8.8,6,9,5.9z"/>
		<path class="st6" d="M8.7,6.2C8.7,6.2,8.7,6.3,8.7,6.2C8.7,6.3,8.7,6.3,8.7,6.2C8.7,6.3,8.7,6.2,8.7,6.2z"/>
		<path class="st6" d="M9.3,8.7c0.1,0,0.2-0.1,0.4-0.1c0.1,0,0.1,0,0.2,0c0,0,0,0-0.1-0.1c0,0-0.1,0-0.1,0c-0.1,0-0.3-0.1-0.4-0.2
			C9.1,8.2,9.1,8,9,7.9c0,0,0,0,0,0c0,0-0.1,0-0.1,0C8.9,8.1,9,8.3,9.1,8.5C9.2,8.6,9.2,8.6,9.3,8.7z"/>
		<path class="st6" d="M10.3,6.9C10.3,7,10.3,7,10.3,6.9c0,0.2,0,0.3,0,0.4c0.1,0,0.1-0.1,0.2-0.1C10.4,7.1,10.4,7,10.3,6.9z"/>
		<path class="st6" d="M10.2,8.7c-0.2,0-0.3-0.1-0.4-0.2c0,0-0.1,0-0.2,0c-0.1,0-0.2,0.1-0.4,0.1c0.3,0.3,0.6,0.6,0.8,1c0,0,0,0,0,0
			c0,0,0,0,0,0c0.2,0.1,0.3,0.1,0.4,0c0,0,0,0,0.1-0.1c-0.1-0.3-0.3-0.7-0.3-1.1C10.3,8.7,10.3,8.7,10.2,8.7z"/>
		<path class="st6" d="M10.4,8.7c0.1,0.4,0.2,0.7,0.3,1.1c0.1,0,0.1-0.1,0.2-0.3c0-0.1,0.1-0.2,0.1-0.3c0,0,0-0.1,0-0.1l0,0l0,0
			c0-0.1,0-0.3-0.1-0.4c0,0-0.1,0-0.1,0C10.6,8.7,10.5,8.7,10.4,8.7z"/>
		<path class="st6" d="M9,6.2c0.2,0,0.4,0.1,0.6,0.1c0.1,0,0.1,0,0.2,0c0.1,0,0.2,0.1,0.3,0.1l0.1,0c0,0,0,0,0,0
			C10,6.4,9.9,6.3,9.8,6.2c0,0-0.1-0.1-0.1-0.1C9.5,6,9.3,6,9.1,6c0,0-0.1,0-0.1-0.1C8.8,6,8.7,6.1,8.7,6.2c0,0,0,0,0,0
			C8.8,6.3,8.9,6.2,9,6.2z"/>
		<path class="st6" d="M9.2,8.3c0.1,0.1,0.2,0.2,0.4,0.2c0.1,0,0.1,0,0.1,0c0,0-0.1-0.1-0.1-0.1c0,0,0,0,0,0
			C9.6,8.2,9.6,7.9,9.9,7.7c0.1-0.1,0.3-0.3,0.4-0.4c0-0.1,0-0.2,0-0.3c0,0.1-0.1,0.1-0.1,0.2C10.1,7.3,10,7.4,9.9,7.5l0,0
			C9.6,7.7,9.3,7.8,9,7.8c0,0,0,0,0,0C9.1,8,9.1,8.2,9.2,8.3z"/>
		<path class="st6" d="M5.2,6.1c0-0.1,0.1-0.2,0.1-0.3c0.2-0.4,0.5-0.7,0.8-1C5.6,4.9,5.2,5.1,4.9,5.6C4.7,5.7,4.7,5.9,4.7,6
			c0,0.1,0.1,0.3,0.3,0.3c0.1,0,0.2,0.1,0.3,0.1c0,0,0,0,0-0.1C5.2,6.3,5.2,6.2,5.2,6.1z"/>
		<path class="st6" d="M8.4,5.3c0-0.1,0.1-0.3,0.2-0.4c0,0,0.1-0.1,0.1-0.1C8.7,4.7,8.6,4.6,8.4,4.6c-0.1,0-0.1,0-0.2,0
			C8.2,4.7,8.1,4.9,8,5.1C7.7,5.5,7.4,5.8,7,6.1C6.8,6.2,6.6,6.3,6.4,6.5C7,6.4,7.5,6.2,8.1,5.9c0.2-0.1,0.3-0.2,0.5-0.3
			c0,0-0.1-0.1-0.1-0.1C8.4,5.4,8.4,5.4,8.4,5.3z"/>
		<path class="st6" d="M4.8,8.7C4.8,8.6,4.7,8.5,4.7,8.4c0-0.1-0.1-0.1-0.1-0.2c0,0,0-0.1,0-0.1C4.5,7.8,4.4,7.6,4.4,7.5
			C3.8,7.6,3.3,7.9,2.9,8.2C2.7,8.4,2.6,8.6,2.5,8.8C2.4,8.9,2.4,9,2.4,9.1c0.1,0.1,0.2,0.2,0.3,0.2l0,0c0.1,0,0.1,0,0.2,0
			c0.1,0,0.2,0,0.3,0c0.2,0,0.4,0.1,0.7,0c0.4-0.1,0.9-0.2,1.3-0.4c0,0,0-0.1-0.1-0.1C5,8.9,4.9,8.8,4.8,8.7z"/>
		<path class="st6" d="M6.4,8.1c0.1-0.1,0.1-0.3,0-0.4C6.4,7.5,6.2,7.4,6.1,7.3c-0.1,0-0.2,0-0.3-0.1c0,0,0,0-0.1,0c0,0,0.1,0,0.1,0
			C6,7.5,6.2,7.8,6.4,8.1z"/>
		<path class="st7" d="M4.9,4.5c0-0.2-0.1-0.4-0.3-0.4c-0.1,0-0.1-0.1-0.2-0.1c-0.1,0-0.2,0-0.3,0.1C3.9,4.2,3.7,4.3,3.6,4.5
			C3,5.1,2.5,6,2.3,6.9c-0.1,0.3,0,0.5,0,0.7c0.1,0.2,0.2,0.3,0.3,0.3c0.1,0,0.2,0,0.4,0l0.1-0.1c0.1-0.1,0.2-0.1,0.4-0.2
			C3.7,7.5,3.9,7.3,4,7.1c0.2-0.3,0.4-0.6,0.6-1c0.2-0.5,0.3-0.9,0.3-1.4l0-0.1C4.9,4.6,4.9,4.6,4.9,4.5z"/>
		<path class="st7" d="M2.2,7.8l0-0.3c0-0.1,0-0.2,0-0.2l0-0.1c0-0.3-0.1-0.5-0.2-0.8C2,6.1,1.9,5.9,1.8,5.6
			C1.7,5.4,1.5,5.3,1.3,5.3c0,0,0,0-0.1,0c-0.3,0-0.5,0.2-0.6,0.5C0.5,6.2,0.4,6.7,0.4,7.4c0.1,0.2,0.2,0.5,0.3,0.7
			c0.2,0.4,0.6,0.7,1.1,1C2,8.9,2.1,8.7,2.1,8.5C2.1,8.3,2.2,8,2.2,7.8z"/>
		<path class="st7" d="M7.1,9.8c0,0.2-0.1,0.3-0.2,0.4c-0.1,0.1-0.3,0.1-0.4,0c-0.1,0-0.1-0.1-0.2-0.1l0,0c0,0.1,0,0.1,0.1,0.2
			c0.2,0,0.5,0,0.7,0c0.2,0,0.3,0,0.4,0c0,0,0,0,0-0.1c0.1-0.2,0.3-0.3,0.3-0.5c0-0.1,0.1-0.2,0.1-0.3c0,0-0.1-0.1-0.1-0.1
			c0-0.1-0.1-0.1-0.1-0.2L7.7,9l0,0c0,0,0-0.1,0-0.1c0-0.1-0.1-0.2-0.1-0.3c0-0.2,0-0.4,0.2-0.5C7.9,8,8,8,8.2,8c0,0,0,0,0-0.1
			C8.1,8,8,8,8,8C7.6,8,7.3,8,7,7.9c-0.1,0-0.2-0.1-0.3-0.1c0,0-0.1-0.1-0.1-0.1c0,0.1-0.1,0.2-0.1,0.3c0,0,0,0.1,0,0.2
			C6.7,8.5,6.9,8.8,7,9.2C7.1,9.4,7.1,9.6,7.1,9.8z"/>
		<path class="st7" d="M6,10C6,10,6,10,6,10C5.8,9.8,5.7,9.7,5.5,9.6c0,0,0,0-0.1,0c0,0,0,0,0,0C5.2,9.6,5,9.7,4.9,10
			c0,0.1,0,0.1-0.1,0.2c0.3,0.1,0.7,0.2,1,0.2c0.1,0,0.2-0.1,0.3-0.1C6.1,10.2,6.1,10.1,6,10z"/>
		<path class="st6" d="M8.7,10.5c-0.1,0-0.2,0-0.3,0c0.1,0,0.2,0.1,0.3,0.2c0.1,0,0.1,0.1,0.2,0.1c0.1,0,0.2,0,0.4,0
			c-0.1-0.1-0.2-0.2-0.4-0.3C8.8,10.5,8.7,10.5,8.7,10.5z"/>
		<path class="st6" d="M7.9,10.2C7.9,10.2,7.9,10.2,7.9,10.2c0,0-0.1,0.1-0.1,0.1c0.1,0,0.2,0,0.3,0c0,0,0,0,0,0
			C8,10.4,7.9,10.3,7.9,10.2z"/>
		<path class="st6" d="M8.2,9.8C8.2,9.9,8.1,9.9,8.2,9.8C8,10,8,10.1,7.9,10.2c0,0,0,0,0,0c0,0.1,0.1,0.1,0.2,0.2
			c0.1,0,0.1,0,0.2,0.1c0.1,0,0.2,0,0.3,0c0,0,0.1,0,0.1,0C8.6,10.3,8.4,10.1,8.2,9.8z"/>
		<path class="st6" d="M7,4.5c0.1,0,0.2,0,0.3-0.1c0.1,0,0.2,0,0.3,0c0.1,0,0.1,0,0.2,0c0.2,0,0.3,0.1,0.4,0.1
			c0-0.1,0.1-0.2,0.1-0.3c0-0.2-0.1-0.3-0.1-0.4C8.1,3.8,8,3.7,7.8,3.7c-0.1,0-0.2,0-0.3,0c0,0-0.1,0-0.1,0l0,0l0,0
			C6.9,4,6.5,4.3,6.1,4.7c0.2-0.1,0.3-0.1,0.5-0.1C6.8,4.6,6.9,4.6,7,4.5z"/>
		<path class="st6" d="M5.3,6.4c0,0,0,0.1,0.1,0.1c0.1,0.1,0.3,0.2,0.4,0.2c0.2,0,0.4-0.1,0.5-0.2c0,0,0.1,0,0.1-0.1
			c-0.3,0-0.5,0.1-0.8,0C5.5,6.5,5.4,6.5,5.3,6.4z"/>
		<path class="st6" d="M8,5.1c0.1-0.2,0.2-0.4,0.3-0.6c-0.1,0-0.3-0.1-0.4-0.1c-0.1,0-0.1,0-0.2,0c-0.1,0-0.2,0-0.3,0
			c-0.1,0-0.2,0-0.3,0.1c-0.1,0-0.3,0.1-0.4,0.1c-0.2,0-0.4,0.1-0.5,0.1C5.8,5,5.5,5.4,5.3,5.7C5.3,5.9,5.2,6,5.2,6.1
			c0,0.1,0,0.2,0,0.3c0,0,0,0,0,0.1c0.1,0,0.2,0.1,0.3,0.1c0.3,0,0.5,0,0.8,0C6.6,6.3,6.8,6.2,7,6.1C7.4,5.8,7.7,5.5,8,5.1z"/>
		<path class="st6" d="M6,9.9c0.1,0,0.2,0.1,0.3,0.1l0,0c-0.2-0.7,0-1.3,0.2-1.9c0,0,0,0,0-0.1c0,0,0,0.1-0.1,0.1
			C6.2,8.4,6,8.5,5.9,8.7C5.6,8.8,5.4,9,5.1,9.1c0.1,0.2,0.2,0.3,0.4,0.5C5.7,9.6,5.9,9.7,6,9.9z"/>
		<path class="st6" d="M5.4,7.3l0.2,0l0,0c0,0,0,0,0.1,0C5.5,7.2,5.4,7.1,5.2,7L5.2,7C5,6.9,4.9,6.9,4.7,6.9C4.5,7,4.4,7.2,4.4,7.5
			c0,0,0,0,0,0c0.2-0.1,0.5-0.1,0.8-0.2C5.3,7.3,5.3,7.3,5.4,7.3z"/>
		<path class="st6" d="M6.4,8.2c0,0,0-0.1,0.1-0.1C6.2,7.8,6,7.5,5.7,7.3c0,0-0.1,0-0.1,0c0,0,0,0-0.1,0l0,0l-0.2,0
			c-0.1,0-0.2,0-0.2,0c-0.3,0-0.5,0.1-0.8,0.2c0,0.2,0.1,0.4,0.1,0.6c0,0,0,0.1,0,0.1c0,0.1,0.1,0.2,0.1,0.2
			c0.1,0.1,0.1,0.2,0.2,0.3C4.9,8.8,5,8.9,5.1,9c0,0,0,0.1,0.1,0.1C5.4,9,5.6,8.8,5.9,8.7C6,8.5,6.2,8.4,6.4,8.2z"/>
		<path class="st6" d="M6.2,10L6.2,10c0.1,0.1,0.1,0.1,0.2,0.1c0.2,0.1,0.3,0.1,0.4,0C7,10.1,7.1,9.9,7.1,9.8c0-0.2,0-0.4-0.1-0.6
			C6.9,8.8,6.7,8.5,6.5,8.1C6.3,8.7,6.1,9.4,6.2,10z"/>
		<path class="st6" d="M6,9.9C5.9,9.7,5.7,9.6,5.5,9.6C5.7,9.7,5.8,9.8,6,9.9z"/>
		<path class="st6" d="M8.5,9.2C8.7,9,8.9,8.9,9.2,8.7c0-0.1-0.1-0.2-0.1-0.2C9,8.4,8.9,8.3,8.8,8.3C8.6,8.2,8.4,8.1,8.2,8
			c0,0,0,0,0,0c0,0.5-0.1,1-0.3,1.4C8,9.5,8,9.6,8.1,9.7C8.2,9.5,8.4,9.3,8.5,9.2z"/>
		<path class="st6" d="M10.4,10.7c0-0.1,0-0.1,0-0.2c0-0.1,0-0.2-0.1-0.2c0-0.1,0-0.1-0.1-0.2c-0.1,0-0.2,0.1-0.3,0.1l-0.1,0.1l0,0
			c-0.2,0.1-0.3,0.1-0.5,0.1c0,0.1,0,0.1,0,0.2c0,0.1,0,0.1,0,0.2c0.3,0,0.7,0,1.1,0C10.4,10.8,10.4,10.8,10.4,10.7L10.4,10.7z"/>
		<path class="st6" d="M9.4,9.1C9.3,9,9.3,8.9,9.2,8.7C8.9,8.9,8.7,9,8.5,9.2C8.4,9.3,8.2,9.5,8.1,9.7c0,0,0.1,0.1,0.1,0.1
			c0.1-0.1,0.3-0.3,0.4-0.3c0.1-0.1,0.2-0.1,0.3-0.1c0.1,0,0.1,0,0.2,0c0.2,0.1,0.3,0.2,0.3,0.4c0.1,0.2,0.1,0.4,0.1,0.6
			c0.1,0,0.3-0.1,0.5-0.1l0,0l0.1-0.1c0.1,0,0.2-0.1,0.3-0.1c0-0.1-0.1-0.2-0.1-0.3C9.9,9.6,9.6,9.4,9.4,9.1z"/>
		<path class="st6" d="M9.1,8.5c0,0.1,0.1,0.2,0.1,0.2c0,0,0.1,0,0.1,0C9.2,8.6,9.2,8.6,9.1,8.5z"/>
		<path class="st6" d="M9.3,8.7c0,0-0.1,0-0.1,0C9.3,8.9,9.3,9,9.4,9.1c0.2,0.3,0.5,0.5,0.7,0.7c0,0,0,0,0,0C9.9,9.3,9.7,9,9.3,8.7z
			"/>
		<path class="st6" d="M7.7,8.1C7.6,8.2,7.6,8.4,7.6,8.6c0,0.1,0,0.2,0.1,0.3c0,0,0,0.1,0,0.1l0,0l0.1,0.1c0,0.1,0.1,0.1,0.1,0.2
			c0,0.1,0.1,0.1,0.1,0.1C8.1,9,8.2,8.5,8.2,8C8,8,7.9,8,7.7,8.1z"/>
		<path class="st6" d="M9.4,10.4c-0.2,0.1-0.4,0.1-0.6,0.1c0.1,0.1,0.2,0.2,0.4,0.3c0.1,0,0.1,0,0.2,0c0-0.1,0-0.1,0-0.2
			C9.4,10.5,9.4,10.5,9.4,10.4z"/>
		<path class="st6" d="M9.4,9.8C9.3,9.6,9.2,9.5,9,9.5c-0.1,0-0.1,0-0.2,0c-0.1,0-0.2,0-0.3,0.1C8.4,9.6,8.3,9.7,8.2,9.8
			c0.2,0.3,0.4,0.5,0.6,0.7c0.2,0,0.4-0.1,0.6-0.1C9.4,10.2,9.4,10,9.4,9.8z"/>
		<path class="st7" d="M6.1,10.3c0,0,0,0.1,0,0.1c0.1,0,0.1,0,0.2,0c0-0.1,0-0.1-0.1-0.2C6.3,10.3,6.2,10.3,6.1,10.3z"/>
		<path class="st7" d="M7.5,10.3C7.4,10.3,7.4,10.4,7.5,10.3c-0.1,0.2-0.2,0.2-0.3,0.3l0,0c0.1,0,0.3,0,0.4,0.1
			c0.1-0.1,0.1-0.2,0.2-0.3C7.7,10.3,7.6,10.3,7.5,10.3z"/>
		<path class="st7" d="M7.4,10.4C7.4,10.4,7.4,10.3,7.4,10.4c-0.1-0.1-0.2-0.1-0.4-0.1c-0.3,0-0.5,0-0.7,0c0,0.1,0,0.1,0.1,0.2
			c0.3,0,0.5,0.1,0.8,0.1l0,0C7.3,10.5,7.3,10.5,7.4,10.4z"/>
		<path class="st7" d="M5.8,10.4c0.1,0,0.2,0,0.3,0.1c0,0,0-0.1,0-0.1C6,10.4,5.9,10.4,5.8,10.4z"/>
		<path class="st7" d="M8.3,10.5C8.3,10.5,8.3,10.5,8.3,10.5c-0.1,0-0.2-0.1-0.2-0.1c0,0,0,0,0,0c-0.1,0-0.2,0-0.3,0
			c-0.1,0.1-0.1,0.2-0.2,0.3c0.4,0,0.8,0.1,1.2,0.1c-0.1,0-0.1-0.1-0.2-0.1C8.6,10.6,8.5,10.5,8.3,10.5z"/>
		<path class="st7" d="M8.3,10.5C8.3,10.5,8.3,10.5,8.3,10.5c0,0-0.1-0.1-0.2-0.1C8.2,10.4,8.2,10.5,8.3,10.5z"/>
		<path class="st7" d="M7.2,6.8c0.1-0.1,0.2-0.1,0.3-0.1c0,0,0.1,0,0.1,0c0.1,0,0.3,0.1,0.4,0.2c0.1,0.2,0.2,0.5,0.2,0.7
			c0,0.1,0,0.1,0,0.2l0,0.1c0,0,0,0.1,0,0.1c0.2,0,0.4,0,0.7-0.1c0,0,0-0.1,0-0.1C8.7,7.4,8.7,7.2,8.6,6.9c0-0.2,0-0.4,0-0.6
			c0,0,0,0,0,0c-0.5,0-0.9,0.1-1.4,0.3l-0.1,0c-0.1,0-0.1,0-0.2,0.1C6.9,6.7,6.7,6.9,6.6,7C6.5,7.2,6.5,7.3,6.5,7.4c0,0,0,0.1,0,0.1
			c0,0.1,0.1,0.1,0.1,0.1C6.7,7.4,6.9,7.2,7,7C7.1,6.9,7.2,6.8,7.2,6.8z"/>
		<path class="st7" d="M10.4,6.8C10.4,6.8,10.3,6.8,10.4,6.8C10.3,6.8,10.3,6.9,10.4,6.8c0,0.1,0,0.1,0,0.1
			C10.4,6.9,10.4,6.9,10.4,6.8z"/>
		<path class="st7" d="M10.3,6.8c0-0.1-0.1-0.2-0.3-0.3c0.1,0.1,0.2,0.3,0.3,0.4C10.3,6.9,10.3,6.8,10.3,6.8z"/>
		<path class="st7" d="M8.6,6.9c0,0.3,0.1,0.5,0.2,0.9c0,0,0,0.1,0,0.1c0,0,0.1,0,0.1,0c0-0.1-0.1-0.1-0.1-0.2l0,0l0,0
			C8.7,7.2,8.7,6.8,8.7,6.3c0,0,0,0,0,0c0,0,0,0,0,0C8.6,6.5,8.6,6.7,8.6,6.9z"/>
		<path class="st7" d="M10.3,6.9c0,0,0,0.1,0,0.1C10.3,7,10.3,7,10.3,6.9C10.3,6.9,10.3,6.9,10.3,6.9z"/>
		<path class="st7" d="M9.9,7.5c0.1-0.1,0.2-0.2,0.3-0.3c0.1-0.1,0.1-0.1,0.1-0.2c0,0,0-0.1,0-0.1c-0.1-0.1-0.2-0.3-0.3-0.4
			c0,0,0,0,0,0l-0.1,0c-0.1,0-0.2-0.1-0.3-0.1c-0.1,0-0.1,0-0.2,0C9.4,6.3,9.2,6.2,9,6.2c-0.1,0-0.2,0-0.3,0c0,0.5,0,1,0.2,1.4l0,0
			l0,0c0,0.1,0.1,0.1,0.1,0.2C9.3,7.8,9.6,7.7,9.9,7.5L9.9,7.5z"/>
		<path class="st7" d="M7,7.9C7.3,8,7.6,8,8,8C8,8,8.1,8,8.2,8c0,0,0-0.1,0-0.1l0-0.1c0-0.1,0-0.1,0-0.2c0-0.2-0.1-0.4-0.2-0.7
			C7.9,6.8,7.8,6.7,7.6,6.7c0,0-0.1,0-0.1,0c-0.1,0-0.2,0-0.3,0.1C7.2,6.8,7.1,6.9,7,7C6.9,7.2,6.7,7.4,6.6,7.6c0,0,0,0.1,0.1,0.1
			C6.8,7.8,6.9,7.8,7,7.9z"/>
		<path class="st7" d="M10.6,7.2c0.1,0,0.2-0.1,0.4,0c0,0,0,0,0,0C11,7.2,11,7,11,6.9c0,0-0.1,0-0.1,0.1c-0.1,0.1-0.2,0.2-0.4,0.2
			c0,0,0,0.1,0,0.1C10.6,7.3,10.6,7.2,10.6,7.2z"/>
		<path class="st7" d="M13.2,7.1C13.2,7.1,13.2,7.1,13.2,7.1C13.2,7.1,13.2,7.1,13.2,7.1c-0.1,0.1-0.1,0.1-0.1,0.1c0,0,0,0,0,0
			C13.1,7.2,13.2,7.2,13.2,7.1z"/>
		<path class="st7" d="M11.1,7.3C11.1,7.3,11.1,7.3,11.1,7.3C11.1,7.3,11.1,7.3,11.1,7.3c-0.2-0.2-0.4-0.1-0.5-0.1
			c0,0-0.1,0-0.1,0.1c0.2,0.3,0.3,0.7,0.3,1.1c0,0,0.1,0,0.1,0c0.2,0,0.3,0.1,0.4,0.1c0.1,0,0.1,0,0.2,0c0.1,0,0.2-0.1,0.3-0.1
			C11.5,8,11.3,7.7,11.1,7.3z"/>
		<path class="st7" d="M13.1,7.2C13.1,7.2,13.1,7.2,13.1,7.2c0.1-0.1,0.1-0.2,0.2-0.2c0.1-0.1,0.1-0.2,0-0.3c0,0,0,0,0,0
			c0,0,0,0,0,0c-0.2,0-0.3-0.1-0.5-0.2c-0.1,0-0.1,0-0.2,0c0,0-0.1,0-0.1,0C12.6,6.7,12.9,6.9,13.1,7.2z"/>
		<path class="st7" d="M11.8,8c0.1,0.1,0.1,0.2,0.2,0.3c0.3-0.1,0.5-0.3,0.7-0.5c0.1-0.1,0.3-0.3,0.4-0.5c0,0,0,0,0,0
			c-0.1,0.1-0.3,0.2-0.4,0.3c-0.1,0.1-0.2,0.1-0.3,0.1c-0.1,0-0.1,0-0.2,0c-0.2-0.1-0.3-0.2-0.3-0.4c-0.1-0.2-0.1-0.4-0.1-0.7
			c-0.2,0-0.4,0.1-0.5,0.2l0,0l-0.1,0.1c-0.1,0-0.1,0.1-0.2,0.1C11,7,11,7.2,11.1,7.3C11.4,7.4,11.6,7.7,11.8,8z"/>
		<path class="st7" d="M11.8,8c-0.2-0.3-0.5-0.5-0.7-0.7c0,0,0,0,0,0c0.2,0.4,0.4,0.7,0.7,1c0,0,0.1,0,0.1-0.1
			C11.9,8.2,11.9,8.1,11.8,8z"/>
		<path class="st7" d="M11.9,7.2c0.1,0.2,0.2,0.3,0.3,0.4c0.1,0,0.1,0,0.2,0c0.1,0,0.2,0,0.3-0.1c0.1-0.1,0.3-0.2,0.4-0.3
			c-0.2-0.3-0.4-0.6-0.7-0.8c-0.2,0-0.3,0-0.5,0.1C11.8,6.8,11.8,7,11.9,7.2z"/>
		<path class="st7" d="M13.2,6.7c0-0.1-0.1-0.2-0.3-0.2c-0.1,0-0.1,0-0.2,0C12.9,6.6,13,6.6,13.2,6.7C13.2,6.7,13.2,6.7,13.2,6.7z"
			/>
		<path class="st7" d="M11,8.4c0,0-0.1,0-0.1,0c0,0.1,0,0.2,0,0.2c0.1,0,0.3-0.1,0.4-0.1c0,0,0,0,0.1,0C11.3,8.4,11.2,8.4,11,8.4z"
			/>
		<path class="st7" d="M10.3,8.4c0-0.1,0-0.3,0-0.4l0,0l0,0c0,0,0-0.1,0-0.1c0-0.1,0-0.2,0.1-0.3c0-0.1,0.1-0.2,0.1-0.2
			c0,0,0-0.1,0-0.1c-0.1,0-0.1,0.1-0.2,0.1c0,0.1,0,0.3-0.1,0.4c0,0.2-0.1,0.4-0.2,0.5C9.9,8.4,9.9,8.4,9.8,8.5c0,0,0,0,0.1,0.1
			c0,0,0.1,0,0.1,0C10,8.5,10.2,8.4,10.3,8.4z"/>
		<path class="st7" d="M10.4,7.5c0,0.1-0.1,0.2-0.1,0.3c0,0,0,0.1,0,0.1l0,0l0,0c0,0.1,0,0.3,0,0.4c0,0,0.1,0,0.1,0
			c0.1,0,0.3,0,0.4,0c-0.1-0.4-0.2-0.7-0.3-1.1C10.5,7.3,10.4,7.4,10.4,7.5z"/>
		<path class="st7" d="M10.2,8.7c0,0,0.1,0,0.1,0c0-0.1,0-0.2,0-0.3c-0.1,0-0.3,0.1-0.4,0.1c0,0-0.1,0-0.1,0
			C9.9,8.6,10,8.7,10.2,8.7z"/>
		<path class="st7" d="M10.4,8.4c0,0-0.1,0-0.1,0c0,0.1,0,0.2,0,0.3c0.1,0,0.3,0,0.4,0c0,0,0.1,0,0.1,0c0-0.1,0-0.2,0-0.2
			C10.7,8.4,10.6,8.4,10.4,8.4z"/>
		<path class="st7" d="M10,8.3c0.1-0.2,0.2-0.4,0.2-0.5c0-0.1,0-0.3,0.1-0.4C10.2,7.4,10,7.6,9.9,7.7C9.6,7.9,9.6,8.2,9.7,8.3
			c0,0,0,0,0,0c0,0,0,0.1,0.1,0.1C9.9,8.4,9.9,8.4,10,8.3z"/>
		<path class="st6" d="M10.9,10.4c0,0.2,0,0.3,0.1,0.5c0.1,0,0.2,0,0.4,0c-0.1-0.1-0.2-0.2-0.2-0.3C11,10.5,11,10.4,10.9,10.4z"/>
		<path class="st6" d="M12.5,10.8C12.5,10.8,12.5,10.8,12.5,10.8C12.5,10.8,12.5,10.8,12.5,10.8C12.6,10.8,12.6,10.8,12.5,10.8
			C12.5,10.8,12.5,10.8,12.5,10.8z"/>
		<path class="st6" d="M12.1,10.8c-0.2,0-0.4-0.1-0.6-0.1c-0.1,0-0.1,0-0.2,0c-0.1,0-0.2-0.1-0.2-0.1l-0.1,0c0,0,0,0,0,0
			c0.1,0.1,0.1,0.2,0.2,0.3c0.4,0,0.8,0,1.2,0c0,0,0,0,0,0C12.4,10.8,12.3,10.8,12.1,10.8z"/>
		<path class="st6" d="M11.5,8.7c0.1,0.2,0.1,0.4-0.2,0.6c-0.1,0.1-0.3,0.2-0.4,0.3c0,0.1,0,0.2,0,0.3c0,0,0,0,0-0.1
			c0.1-0.1,0.2-0.2,0.4-0.3l0,0c0.3-0.2,0.6-0.3,0.9-0.4c0,0,0,0,0-0.1C12.2,9,12.1,8.8,12,8.7c-0.1-0.1-0.2-0.2-0.4-0.2
			c-0.1,0-0.1,0-0.2,0.1C11.5,8.6,11.5,8.6,11.5,8.7C11.5,8.7,11.5,8.7,11.5,8.7z"/>
		<path class="st6" d="M10.9,10.4c0,0.1,0.1,0.1,0.2,0.1c-0.1-0.1-0.1-0.2-0.2-0.3C10.9,10.3,10.9,10.3,10.9,10.4z"/>
		<path class="st6" d="M12.5,10.8C12.5,10.8,12.5,10.8,12.5,10.8C12.5,10.8,12.5,10.8,12.5,10.8c0.1-0.5,0.1-0.9-0.1-1.3
			c0.1,0.2,0.1,0.5,0.1,0.6C12.6,10.4,12.6,10.6,12.5,10.8z"/>
		<path class="st6" d="M12.4,9.3L12.4,9.3c0-0.1-0.1-0.1-0.1-0.1c-0.3,0.1-0.6,0.2-0.9,0.4l0,0c-0.1,0.1-0.2,0.2-0.4,0.3
			c0,0,0,0,0,0.1c0,0.1,0,0.2,0,0.4c0.1,0.1,0.1,0.2,0.2,0.3c0,0,0,0,0,0l0.1,0c0.1,0,0.2,0.1,0.2,0.1c0.1,0,0.1,0,0.2,0
			c0.2,0.1,0.4,0.1,0.6,0.1c0.1,0,0.2,0,0.3,0c0,0,0,0,0,0c0.1-0.2,0.1-0.4,0.1-0.6c0-0.2-0.1-0.4-0.1-0.6
			C12.4,9.5,12.4,9.4,12.4,9.3L12.4,9.3z"/>
		<path class="st6" d="M11.2,8.7C11.1,8.9,11,9.1,11,9.3c0,0.1,0,0.2-0.1,0.4c0.1-0.1,0.3-0.2,0.4-0.3c0.2-0.2,0.2-0.5,0.2-0.6
			c0,0,0,0,0,0c0-0.1-0.1-0.1-0.1-0.2C11.3,8.6,11.3,8.6,11.2,8.7z"/>
		<path class="st6" d="M8.9,5.2C8.9,5.1,9,4.9,9,4.8c0.1-0.1,0.3-0.2,0.4-0.2c0.2,0,0.3,0.1,0.4,0.2c0.1,0.1,0.2,0.2,0.2,0.4
			c0,0,0,0.1,0,0.1c0.1,0.3,0.1,0.5,0.2,0.8c0.2,0,0.4,0,0.6,0c0-0.1,0-0.1,0.1-0.1c0.1-0.1,0.2-0.1,0.3-0.1c0.1,0,0.1,0,0.2,0.1
			c0,0,0,0,0,0l0,0c0,0,0.1,0,0.2-0.1c0.1,0,0.2-0.1,0.2-0.1L12,5.6c0,0,0,0,0.1-0.1c0-0.1,0.1-0.2,0.1-0.3l-0.1,0
			c-0.2,0.1-0.5,0.1-0.7,0.2c-0.2,0-0.4,0-0.6,0l-0.1,0c-0.2,0-0.3-0.1-0.4-0.2c-0.1-0.2-0.1-0.3,0-0.5c0.1-0.1,0.2-0.2,0.3-0.3
			c-0.4,0-0.9,0-1.4,0.1C9,4.7,8.9,4.7,8.7,4.8C8.8,4.9,8.8,5,8.9,5.2c0,0.1-0.1,0.2-0.2,0.4l-0.1,0c0,0,0,0,0,0c0,0,0,0.1,0.1,0.1
			c0,0,0.1,0.1,0.1,0.1c0,0,0,0,0,0C8.8,5.6,8.8,5.4,8.9,5.2z"/>
		<path class="st6" d="M12.2,5.3L12.2,5.3c-0.1,0.1-0.1,0.2-0.2,0.3C12.2,5.5,12.2,5.4,12.2,5.3z"/>
		<path class="st6" d="M11.3,5.9c-0.1,0-0.3,0-0.3,0.1c0,0-0.1,0.1-0.1,0.1c0.2,0,0.4-0.1,0.6-0.2C11.4,5.9,11.3,5.9,11.3,5.9z"/>
		<path class="st6" d="M10.4,5.3c0.1,0.1,0.2,0.2,0.4,0.2l0.1,0c0.2,0,0.4,0,0.6,0c0.2,0,0.5-0.1,0.7-0.2l0.1,0c0-0.1,0-0.1,0.1-0.2
			c0-0.1-0.1-0.2-0.2-0.3c-0.1-0.1-0.3-0.2-0.5-0.2c-0.3-0.1-0.7-0.1-1-0.2c-0.1,0.1-0.2,0.2-0.3,0.3C10.3,4.9,10.3,5.1,10.4,5.3z"
			/>
		<path class="st6" d="M12.3,5.3c0,0,0-0.1,0-0.1C12.2,5.2,12.2,5.2,12.3,5.3L12.3,5.3C12.2,5.3,12.3,5.3,12.3,5.3z"/>
		<path class="st6" d="M9,5.9c0.1,0,0.1,0,0.2,0c0.1,0,0.2,0,0.3,0.1c0.1,0,0.1,0.1,0.2,0.2c0.1,0,0.2,0,0.3,0c0.1,0,0.2,0,0.3,0
			c0-0.3-0.1-0.5-0.2-0.8c0,0,0-0.1,0-0.1C10,5.1,9.9,4.9,9.9,4.8C9.8,4.7,9.6,4.6,9.5,4.6C9.3,4.6,9.2,4.7,9,4.8
			C9,4.9,8.9,5.1,8.9,5.2C8.8,5.4,8.8,5.6,8.7,5.7c0,0,0,0,0,0C8.8,5.8,8.9,5.9,9,5.9C9,5.9,9,5.9,9,5.9z"/>
		<path class="st6" d="M9.2,5.8c-0.1,0-0.1,0-0.2,0c0,0,0,0,0,0c0,0,0.1,0,0.1,0.1C9.3,6,9.5,6,9.7,6.1C9.7,6,9.6,5.9,9.5,5.9
			C9.4,5.9,9.3,5.8,9.2,5.8z"/>
		<path class="st6" d="M8.6,5.5c0.1-0.1,0.2-0.3,0.2-0.4c0-0.1,0-0.2-0.1-0.3c0,0-0.1,0.1-0.1,0.1C8.5,5,8.4,5.2,8.4,5.3
			c0,0.1,0,0.1,0,0.2c0,0,0.1,0.1,0.1,0.1C8.6,5.6,8.6,5.6,8.6,5.5L8.6,5.5z"/>
	</g>
</g>
</svg>
