<?xml version="1.0" encoding="UTF-8"?><svg id="Content" xmlns="http://www.w3.org/2000/svg" viewBox="0 0 68.8 31.8"><defs><style>.cls-1{fill:#cb6d61;}</style></defs><g id="Elj33F"><path class="cls-1" d="m44.61,0C51.39,0,58.17,0,64.95,0c2.67,0,3.85,1.16,3.85,3.81,0,8.05,0,16.09,0,24.14,0,2.67-1.17,3.84-3.82,3.84-13.57,0-27.13,0-40.7,0-2.81,0-3.92-1.12-3.93-3.92-.02-4.52-.06-9.04-.06-13.56,0-3.59.04-7.18.07-10.77C20.38,1.22,21.6,0,23.96,0,30.84,0,37.72,0,44.61,0Zm-20.26,2.14c.04.13.05.17.06.18,6.58,4.67,13.16,9.34,19.76,13.98.21.14.71.08.95-.07,1.3-.86,2.55-1.79,3.82-2.69,5.05-3.57,10.09-7.13,15.14-10.7.25-.18.49-.39.88-.7H24.34Zm-.61,27.49h41.62c-.44-.34-.71-.56-1-.76-5.32-3.76-10.65-7.5-15.94-11.29-.69-.49-1.1-.44-1.7.07-1.98,1.69-2.02,1.72-4.13.14-.81-.6-1.37-.56-2.15,0-3.69,2.66-7.43,5.27-11.14,7.9-1.78,1.26-3.57,2.53-5.56,3.94Zm-1.3-1.63c5.84-4.13,11.49-8.13,17.31-12.24-5.83-4.13-11.5-8.14-17.31-12.26v24.5Zm26.97-12.25c5.83,4.13,11.5,8.13,17.27,12.22V3.54c-5.78,4.09-11.43,8.09-17.27,12.22Z"/><path class="cls-1" d="m8.54,7.54c-2.39,0-4.78,0-7.17,0C.62,7.55,0,7.38,0,6.5c0-.89.67-1.01,1.4-1.01,4.74,0,9.49,0,14.23,0,.72,0,1.4.09,1.42.99.02.96-.68,1.07-1.45,1.06-2.36-.01-4.71,0-7.07,0Z"/><path class="cls-1" d="m10.67,11.37c1.63,0,3.25,0,4.88,0,.75,0,1.49.1,1.5,1.04.01.93-.69,1.07-1.47,1.07-3.15-.01-6.3,0-9.46,0-.07,0-.13,0-.2,0-.74,0-1.49-.07-1.5-1.03-.01-.94.71-1.07,1.47-1.07,1.59,0,3.18,0,4.77,0Z"/><path class="cls-1" d="m12.95,17.3c.96,0,1.92,0,2.88,0,.69,0,1.2.25,1.22,1,.02.75-.5,1.1-1.15,1.11-2.02.02-4.04-.03-6.06-.06-.65-.01-1.08-.46-.95-1.01.09-.4.6-.93.98-.98,1.01-.14,2.05-.05,3.08-.05Z"/></g></svg>