<?xml version="1.0" encoding="UTF-8"?>
<svg id="Content" xmlns="http://www.w3.org/2000/svg" version="1.1" viewBox="0 0 19.74 19.74">
  <!-- Generator: Adobe Illustrator 29.0.0, SVG Export Plug-In . SVG Version: 2.1.0 Build 186)  -->
  <defs>
    <style>
      .st0 {
        fill: #babac5;
      }
    </style>
  </defs>
  <path class="st0" d="M14.4,0H5.33C2.39,0,0,2.39,0,5.34v9.07c0,2.95,2.39,5.34,5.33,5.34h9.07c2.95,0,5.33-2.39,5.33-5.34V5.34c0-2.95-2.39-5.34-5.33-5.34ZM7.19,14.91h-2.17v-7.03h2.17v7.03ZM6.12,6.95c-.71,0-1.28-.57-1.28-1.28s.57-1.28,1.28-1.28,1.28.57,1.28,1.28-.57,1.28-1.28,1.28ZM15.38,11.04l-.02,3.86h-2.19s0-1.92,0-3.52c0-1.6-.66-1.67-.66-1.67-1.19-.32-1.62.32-1.77.95v4.25h-2.17v-7.03h2.17v.8c.92-1.23,2.33-.98,2.33-.98,2.5.02,2.3,3.34,2.3,3.34Z"/>
</svg>