<?xml version="1.0" encoding="UTF-8"?><svg id="Content" xmlns="http://www.w3.org/2000/svg" viewBox="0 0 43.32 44.57"><defs><style>.cls-1{fill:#cb6d61;}</style></defs><g id="UraWcR"><path class="cls-1" d="m37.42,17.71c1.16.43,2.23.77,3.25,1.23,2.18.99,2.57,1.92,2.39,4.28-.29,3.76-1.38,7.28-3.23,10.51-2.12,3.69-5.13,6.49-9.15,8.1-.57.23-1.02.72-1.55,1.05-.63.39-1.24.92-1.92,1.07-3.74.81-7.5.81-11.24,0-.71-.15-1.32-.75-1.96-1.17-.3-.2-.53-.57-.85-.69-6.56-2.49-10.24-7.48-12.07-14.01-.51-1.81-.7-3.7-1.02-5.56-.29-1.71.5-2.99,2-3.54,2.18-.79,4.43-1.53,6.72-1.87,6.45-.95,12.95-.92,19.44-.53,1.13.07,1.85-.17,2.55-1.12,2-2.75,4.11-5.41,6.19-8.1,1.38-1.78,3.45-2.14,5.05-.89,1.59,1.24,1.76,3.39.37,5.12-1.62,2.02-3.27,4.03-4.96,6.11Zm3.75,7.02c-13.09,3.18-26.05,3.24-39.13.14.19.83.39,1.9.69,2.93,1.65,5.58,4.72,10,10.23,12.38.96.42,1.98.67,2.54,1.72.15.28.7.4,1.09.48,2.95.58,5.92.63,8.9.2,1.18-.17,2.32-.35,2.97-1.54.11-.2.41-.33.65-.41,4.34-1.53,7.47-4.43,9.61-8.46,1.26-2.38,1.94-4.95,2.45-7.43Zm-15.84.55c1.24-.06,2.19-.04,3.11-.18.46-.07,1.01-.34,1.3-.69,3.77-4.57,7.5-9.16,11.23-13.76.87-1.07.87-2.12.04-2.8-.87-.71-1.9-.47-2.79.68-2.24,2.89-4.46,5.8-6.69,8.69-2,2.59-3.99,5.19-6.19,8.05Zm3.09-6.98c-.3-.05-.45-.09-.59-.09-5.4.07-10.8,0-16.18.3-2.64.14-5.26.91-7.86,1.51-.65.15-1.28.65-1.77,1.14-.19.19-.09.83.07,1.17.08.17.62.23.91.17,1.1-.26,2.17-.66,3.27-.88,6.19-1.24,12.46-1.33,18.73-1.07,1.86.08,2.62-.8,3.43-2.24Zm-23.31,5.54c.4.1.79.23,1.19.31,5.42,1.1,10.91,1.26,16.42,1.09.23,0,.55-.09.68-.26.68-.84,1.32-1.71,2.16-2.81-7.02-.09-13.76-.11-20.45,1.68Zm29.64-2.69c1.87.53,3.67,1.08,5.49,1.51.29.07.8-.32,1.03-.62.11-.15-.09-.77-.3-.9-.88-.5-1.78-1.02-2.74-1.3-2.47-.72-1.73-1-3.43,1.17-.02.03-.02.07-.04.15Zm2.89,2.79c0-.1-.02-.21-.03-.31-.84-.18-1.68-.38-2.52-.55-1.99-.4-2.15-.32-3.29,1.83,2.04-.34,3.94-.65,5.84-.96Z"/><path class="cls-1" d="m20.05,7.03c.55-.9.93-1.76,1.52-2.42,1.02-1.15,1.16-1.65.32-2.85-.36-.51-.82-1.04-.12-1.55.73-.53,1.17.08,1.55.61,1.2,1.66,1.06,3.38-.36,4.79-1.13,1.12-1.18,1.62-.31,2.94.08.13.25.25.25.37,0,.37.04.99-.14,1.06-.32.15-1.01.13-1.15-.09-.57-.84-1-1.79-1.56-2.86Z"/><path class="cls-1" d="m30.39,7.92c-.47.66-.81,1.33-1.33,1.8-.58.52-.6.88-.18,1.52.22.34.09.91.12,1.37-.49-.12-1.13-.09-1.43-.4-1.14-1.16-1.04-2.54.23-3.61.62-.52.72-.9.21-1.59-.22-.29-.03-.89-.03-1.35.43.09,1.02.04,1.26.3.46.5.71,1.18,1.14,1.95Z"/><path class="cls-1" d="m16.7,7.87c-.43.65-.72,1.33-1.22,1.77-.64.56-.8.96-.22,1.68.22.27.07.84.09,1.28-.46-.08-1.07,0-1.36-.26-1.18-1.07-1.16-2.65.04-3.64.68-.57.91-.98.25-1.74-.21-.24-.01-.83,0-1.27.43.08,1.03,0,1.27.26.47.5.73,1.18,1.16,1.92Z"/></g></svg>