<?xml version="1.0" encoding="UTF-8"?><svg id="Content" xmlns="http://www.w3.org/2000/svg" viewBox="0 0 60.01 37.42"><defs><style>.cls-1{fill:#cb6d61;}</style></defs><g id="cezdur"><path class="cls-1" d="m4.02,32.81c0-.35,0-.61,0-.87,0-9.8,0-19.6,0-29.4C4.02.73,4.74,0,6.56,0,22.21,0,37.85,0,53.5,0c1.76,0,2.49.74,2.49,2.53,0,9.78,0,19.56,0,29.33v.95c1.09,0,2.13,0,3.17,0,.81,0,.92.14.83.95-.24,1.96-1.87,3.51-3.84,3.64-.51.03-1.02.02-1.53.02-16.56,0-33.11,0-49.67,0-.66,0-1.35-.02-1.98-.19-1.65-.45-2.85-2.01-2.96-3.65-.03-.54.14-.78.7-.77,1.06.02,2.13,0,3.31,0ZM30.03,2.29c-7.77,0-15.55,0-23.32,0-.97,0-.98,0-.98.96,0,8.86,0,17.73,0,26.59,0,.93.03.96.98.96,15.53,0,31.06,0,46.58,0,.95,0,.98-.03.98-.97,0-8.86,0-17.73,0-26.59,0-.95,0-.96-.98-.96-7.75,0-15.51,0-23.26,0Zm7.54,31.42h-15.18c-.08,1.03.34,1.54,1.28,1.58.47.02.93,0,1.4,0,3.7,0,7.41,0,11.11,0,1.09,0,1.57-.57,1.39-1.58Z"/><path class="cls-1" d="m37.76,18.97c1.03,1.03,1.92,1.96,2.84,2.85.41.39.44.69.02,1.1-1.15,1.13-.91,1.18-2.07.05-.77-.75-1.54-1.5-2.43-2.36-.24,1.18-.45,2.2-.66,3.21-.02.11-.01.23-.06.32-.14.24-.31.47-.46.71-.18-.2-.43-.36-.53-.6-.55-1.28-1.07-2.58-1.6-3.87-.88-2.13-1.76-4.26-2.62-6.4-.09-.24-.04-.53-.06-.8.27.01.56-.04.8.05,3.53,1.32,7.05,2.65,10.57,4.01.18.07.29.32.44.49-.18.14-.34.35-.53.4-1.18.29-2.37.54-3.64.83Z"/></g></svg>