<?xml version="1.0" encoding="utf-8"?>
<!-- Generator: Adobe Illustrator 27.3.1, SVG Export Plug-In . SVG Version: 6.00 Build 0)  -->
<svg version="1.1" id="Capa_1" xmlns="http://www.w3.org/2000/svg" xmlns:xlink="http://www.w3.org/1999/xlink" x="0px" y="0px"
	 viewBox="0 0 16.9 16" style="enable-background:new 0 0 16.9 16;" xml:space="preserve">
<style type="text/css">
	.st0{fill:#CB6D61;}
</style>
<g id="Background">
</g>
<path class="st0" d="M14.6,2.2c-1.2-1.1-3-1.6-4.9-1.3C9.2,1,8.6,1.1,8.1,1.3c0.8,0.2,1.5,0.6,2.1,0.9c1.1,0.7,2,1.5,2.4,2.2
	c0.1,0.2,0,0.5-0.2,0.6c-0.2,0.1-0.5,0-0.6-0.2C11.5,4.2,10.8,3.5,9.8,3C8.9,2.5,7.9,2,6.8,1.8c-0.8,0.4-1.7,1-2.4,1.6
	C5.3,3.6,6.2,4,7,4.4c1.4,0.7,2.6,1.8,3,2.5c0.1,0.2,0,0.5-0.2,0.6c-0.2,0.1-0.5,0-0.6-0.2C9,6.7,7.9,5.8,6.6,5.2
	c-1-0.5-2.1-0.9-3.1-0.9l0,0C2.9,4.9,2.4,5.6,2,6.4c1,0.1,2,0.5,2.9,0.9c1.3,0.6,2.3,1.5,2.7,2.2c0.1,0.2,0,0.5-0.2,0.6
	c-0.2,0.1-0.5,0-0.6-0.2C6.5,9.3,5.6,8.6,4.5,8c-0.9-0.5-2-0.8-2.9-0.9C1.2,7.9,1,8.6,0.9,9.3c-0.2,1.7,0.1,3.2,1.2,4.3l0.2,0.2
	c1.2,1.1,3,1.6,4.9,1.3c1.9-0.3,4-1.3,5.7-2.9l0,0c0.1-0.1,0.3-0.3,0.4-0.4c1.5-1.6,2.4-3.4,2.6-5.1c0.2-1.7-0.1-3.2-1.2-4.3
	L14.6,2.2L14.6,2.2z M9.6,0.1c2.1-0.3,4.2,0.2,5.6,1.5c0.1,0.1,0.1,0.1,0.2,0.2c1.2,1.3,1.7,3.1,1.4,5c-0.3,1.9-1.2,3.8-2.8,5.5
	c-0.1,0.1-0.3,0.3-0.5,0.5l0,0c-1.8,1.7-4.1,2.8-6.2,3.1c-2.2,0.3-4.2-0.2-5.6-1.5c-0.1-0.1-0.1-0.1-0.2-0.2c-1.2-1.3-1.7-3.1-1.4-5
	c0.3-1.9,1.2-3.8,2.8-5.5C3,3.5,3.2,3.4,3.4,3.2l0,0c1-0.9,2-1.6,3.1-2.2l0,0l0,0C7.6,0.5,8.6,0.2,9.6,0.1L9.6,0.1z"/>
</svg>
