<?xml version="1.0" encoding="UTF-8"?>
<svg id="Content" xmlns="http://www.w3.org/2000/svg" version="1.1" viewBox="0 0 19.74 19.74">
  <!-- Generator: Adobe Illustrator 29.0.0, SVG Export Plug-In . SVG Version: 2.1.0 Build 186)  -->
  <defs>
    <style>
      .st0 {
        fill: #babac5;
      }
    </style>
  </defs>
  <path class="st0" d="M14.4,0H5.34C2.39,0,0,2.39,0,5.34v9.07c0,2.95,2.39,5.34,5.34,5.34h9.07c2.95,0,5.33-2.39,5.33-5.34V5.34c0-2.95-2.39-5.34-5.33-5.34ZM12.71,5.64h-1.02c-1.07-.03-1.08.79-1.08.79v1.54s2.05-.02,2.05-.02l-.27,2.08h-1.79s-.02,5.32-.02,5.32l-2.11-.02v-5.3h-1.8v-2.07s1.79,0,1.79,0v-1.46c-.01-.88.27-1.45.27-1.45.38-.72.86-.99,1.09-1.08.08-.03.15-.07.23-.1.67-.31,2.67-.08,2.67-.08v1.85Z"/>
</svg>