<?xml version="1.0" encoding="UTF-8"?><svg id="Content" xmlns="http://www.w3.org/2000/svg" viewBox="0 0 29.43 29.43"><defs><style>.cls-1{fill:#f4efd7;}.cls-2{fill:#fff;}.cls-3{fill:#dad6c2;}.cls-4{fill:#f4de98;}.cls-5{fill:#355e74;}.cls-6{fill:#2b3059;}.cls-7{fill:#cb6d61;}</style></defs><path class="cls-2" d="m29.43,12.91H0s.87,8.14,2.4,10.38c1.72,2.52,5.81,6.13,12.31,6.13s10.59-3.61,12.31-6.13c1.53-2.25,2.4-10.38,2.4-10.38Z"/><path class="cls-1" d="m29.43,12.91c0,2.8-6.59,5.06-14.71,5.06S0,15.71,0,12.91s6.59-5.06,14.71-5.06,14.71,2.27,14.71,5.06Z"/><path class="cls-3" d="m28.94,12.83c0,2.55-6.37,4.61-14.23,4.61S.49,15.37.49,12.83s6.37-4.6,14.23-4.6,14.23,2.06,14.23,4.6Z"/><path class="cls-7" d="m14.71,9.83c-7.01,0-12.83,1.64-14.01,3.8,1.17,2.16,7,3.8,14.01,3.8s12.83-1.64,14.01-3.8c-1.17-2.16-7-3.8-14.01-3.8Z"/><path class="cls-5" d="m14.71,21.98c6.47,0,11.94-1.58,13.92-3.78.23-1.17.41-2.34.54-3.27-1.28,2.35-7.26,4.13-14.46,4.13S1.54,17.28.26,14.93c.13.93.32,2.1.54,3.27,1.98,2.2,7.45,3.78,13.91,3.78Z"/><path class="cls-4" d="m22.37,15.73l-.11-1.21.37-.03c1.98-.16,2.73-.87,2.77-1.43.04-.62-.7-1.22-1.76-1.42-.3-.06-.59-.08-.89-.08-.96,0-1.79.31-2.74.66-1.26.47-2.68,1-4.8,1-1.25,0-2.6-.4-4.02-.82-1.44-.43-2.93-.87-4.29-.87-.94,0-1.73.21-2.41.64-.38.24-1,.7-.85,1.06.28.64,2.05,1.28,3.57,1.28.18,0,.36,0,.52-.03l.36-.04.18,1.2-.38.05c-.2.02-.41.04-.64.04-1.62,0-4.17-.63-4.77-2.02-.22-.5-.33-1.5,1.32-2.54.89-.56,1.9-.83,3.1-.83,1.57,0,3.22.49,4.67.91,1.33.39,2.59.77,3.65.77,1.88,0,3.19-.49,4.34-.92.98-.36,2-.74,3.2-.74.37,0,.74.04,1.13.11,1.72.32,2.86,1.43,2.78,2.69-.07,1.1-1.14,2.35-3.92,2.57l-.36.03Z"/><path class="cls-4" d="m18.5,15.6c-1.11,0-2.26-.27-3.41-.79-2.48-1.13-4.5-1.37-5.77-1.37-1.57,0-2.47.34-2.79.49l-.31.14-.61-1.06.36-.17c.42-.2,1.66-.68,3.73-.61,1.91.06,3.91.56,5.92,1.48.97.44,1.94.67,2.86.67,1.62,0,3.02-.71,3.95-2.01l.2-.27,1.08.64-.23.33c-.91,1.27-2.18,2.1-3.68,2.41-.42.09-.86.13-1.31.13Z"/><path class="cls-4" d="m15.23,16.38l-.31-.15c-.82-.39-1.69-.59-2.59-.59-1.51,0-2.58.56-2.59.57l-.3.16-.68-1.02.35-.19c.14-.08,1.41-.73,3.2-.73,1.09,0,2.15.24,3.16.72l.36.17-.61,1.06Z"/><path class="cls-4" d="m10.01,5.21l-.6-1.12.33-.17c1.14-.61,1.69-2.76,1.69-2.78l.09-.36,1.23.3-.09.36c-.03.11-.67,2.71-2.32,3.6l-.32.17Z"/><path class="cls-4" d="m15.31,5.97l-1.05-.7.2-.31s.8-1.23.98-2.38l.06-.36,1.25.2-.06.36c-.23,1.45-1.14,2.83-1.18,2.88l-.2.3Z"/><path class="cls-4" d="m13.36,5.5l-1.05-.7.2-.31s.81-1.23.98-2.38l.06-.36,1.25.2-.06.36c-.23,1.45-1.14,2.83-1.18,2.89l-.2.3Z"/><polygon class="cls-6" points="29.43 4.88 9.52 1.15 9.42 1.68 29.22 6.41 29.43 4.88"/><polygon class="cls-6" points="28.3 9.35 9.34 2.22 9.15 2.72 27.82 10.81 28.3 9.35"/><path class="cls-4" d="m11.36,5.11c-.39,0-.76-.18-1.04-.52-.75-.89-.37-2.62.04-3.5.42-.9.91-1.09,1.25-1.09s.65.14.85.38c.31.39.23.89.2,1.04l-1.06-.04s-.09.23-.1.27c-.38.83-.43,1.86-.2,2.13.04.05.07.06.08.07-.02,0,.04.02.1-.12l1.15.46c-.25.53-.65.85-1.12.91-.05,0-.1,0-.15,0Z"/><path class="cls-4" d="m13.48,5.86c-.4,0-.78-.2-1.04-.55-1.01-1.35-.44-3.18.15-4.01.42-.59.83-.72,1.1-.72.09,0,.18.01.27.04.33.1.87.35.76,1.5l-1.15-.22c-.29.61-.56,2.04-.09,2.69l1.11.49c-.19.44-.55.72-.98.77-.05,0-.09,0-.13,0Z"/><path class="cls-4" d="m15.43,11.31c.37-1.03-.58-2.73-.92-3.59-.63-1.57-.53-5.72.64-6.54.34-.24.73-.28,1.06-.12.34.17.7.75.57,1.44l-1.1-.21c-.31.86-.51,3.97.09,5.29.42.92,1.26,2.43.79,3.96-.31.99-1.39.5-1.12-.23Z"/></svg>