<?xml version="1.0" encoding="utf-8"?>
<!-- Generator: Adobe Illustrator 27.3.1, SVG Export Plug-In . SVG Version: 6.00 Build 0)  -->
<svg version="1.1" id="Capa_1" xmlns="http://www.w3.org/2000/svg" xmlns:xlink="http://www.w3.org/1999/xlink" x="0px" y="0px"
	 viewBox="0 0 19.5 18.5" style="enable-background:new 0 0 19.5 18.5;" xml:space="preserve">
<style type="text/css">
	.st0{fill:#CB6D61;}
</style>
<g id="Background">
</g>
<path class="st0" d="M1.2,11c0.4,1.6,1.2,2.9,2.3,4c1.6,1.6,3.8,2.6,6.2,2.6c2.4,0,4.6-1,6.2-2.6c1.1-1.1,1.9-2.4,2.3-3.9
	c-0.8,0.6-1.8,1.1-3.1,1.5c-1.5,0.4-3.3,0.7-5.3,0.7c-2,0-3.8-0.2-5.3-0.7c-0.5-0.1-1-0.3-1.4-0.5l0,0L3,12l0,0l0,0l0,0l0,0l0,0l0,0
	l0,0l0,0l0,0l0,0h0l0,0l0,0l0,0l0,0l0,0l0,0l0,0l0,0l0,0l0,0l0,0l0,0l0,0l0,0l0,0l0,0l0,0l0,0l0,0l0,0l0,0l0,0l0,0l0,0l0,0l0,0l0,0
	l0,0l0,0l0,0l0,0l0,0l0,0l0,0l0,0l0,0l0,0l0,0l0,0l0,0l0,0l0,0l0,0l0,0l0,0l0,0l0,0l0,0l0,0l0,0l0,0l0,0l0,0l0,0l0,0l0,0l0,0l0,0
	l0,0l0,0l0,0l0,0l0,0l0,0l0,0l0,0l0,0l0,0l0,0L1.2,11L1.2,11L1.2,11L1.2,11L1.2,11L1.2,11L1.2,11z M7.9,8.9C7.8,8.8,7.7,8.7,7.7,8.6
	l0,0l0,0l0,0l0-0.1l0,0c-0.6-1-1-1.8-1.2-2.7l0,0l0,0l0,0h0l0-0.1l0,0l0,0l0,0l0,0l0,0l0,0l0,0l0,0l0,0l0,0l0,0l0,0l0,0l0,0l0,0l0,0
	l0,0l0,0l0,0l0,0l0,0l0,0l0,0l0,0v0l0,0l0,0v0L6.1,5C5.9,4.1,5.6,3.3,5.1,2.5l0,0C4.4,1.5,3.5,1,2.9,1C2.7,1,2.5,1,2.3,1.1
	C2.2,1.2,2.1,1.3,2,1.4c-0.2,0.4-0.1,1.1,0.5,2c0.3,0.3,0.6,0.7,0.9,1c0.3,0.3,0.6,0.6,0.9,1l0,0l0,0l0,0l0,0l0,0l0,0l0,0l0,0l0,0
	l0,0l0,0l0,0l0,0l0,0l0,0l0,0l0,0l0,0l0,0l0,0l0,0c0.7,0.9,1.4,1.8,2,2.9l0,0c0,0.1,0.1,0.1,0.1,0.2l0,0l0,0l0,0l0,0l0,0l0,0l0,0
	l0,0l0,0l0,0l0,0l0,0l0,0h0l0,0l0,0l0,0h0l0,0h0l0,0l0,0l0,0h0l0,0h0l0,0l0,0l0,0h0l0,0l0,0l0,0h0l0,0h0l0,0l0,0l0,0h0l0,0h0l0,0
	l0,0l0,0h0l0,0h0l0,0l0,0l0,0h0l0,0h0l0,0l0,0l0,0h0l0,0l0,0l0,0l0,0l0,0h0l0,0h0l0,0v0l0,0h0l0,0h0l0,0h0l0,0l0,0l0,0l0,0l0,0h0
	l0,0h0l0,0v0l0,0h0l0,0h0l0,0l0,0l0,0l0,0l0,0h0l0,0l0,0l0,0h0l0,0h0l0,0l0,0l0,0h0l0,0l0,0l0,0l0,0l0,0h0l0,0h0l0,0h0l0,0h0l0,0
	l0,0l0,0h0l0,0h0l0,0l0,0l0,0l0,0l0,0h0l0,0l0,0l0,0h0l0,0h0l0,0h0l0,0l0,0l0,0h0L7.9,8.9L7.9,8.9z M7.3,5.5C7.5,6,7.6,6.5,7.9,7
	c0.3,0,0.5,0,0.8-0.1c0.4,0,0.8,0,1.2,0c2.1,0,4,0.3,5.6,0.8c1.3,0.4,2.3,1,3,1.7l0,0l0,0l0,0l0,0l0,0l0,0l0,0l0,0l0,0l0,0l0,0l0,0
	l0,0l0,0l0,0l0,0l0,0l0,0l0,0l0,0l0,0l0,0l0,0l0,0l0,0l0,0l0,0v0l0,0l0,0l0,0l0,0l0,0l0,0l0,0l0,0l0,0l0,0l0,0l0,0l0,0l0,0l0,0l0,0
	l0,0l0,0l0,0l0,0l0,0l0,0l0,0l0,0l0,0l0,0l0,0l0,0l0,0l0,0l0,0l0,0l0,0l0,0l0,0v0l0,0l0,0l0,0v0l0,0v0l0,0l0,0v0
	c0-0.9-0.9-1.7-2.4-2.3c-1.6-0.7-3.9-1.1-6.4-1.1c-0.5,0-1,0-1.5,0.1C7.9,5.5,7.6,5.5,7.3,5.5L7.3,5.5z M8.4,7.9L8.4,7.9L8.4,7.9
	L8.5,8c0.1,0.2,0.3,0.4,0.4,0.6l0,0l0,0.1l0,0l0,0l0,0l0,0l0,0l0,0l0,0l0,0l0,0l0,0l0,0l0,0l0,0l0,0l0,0l0,0l0,0c0.4,0,0.8,0,1.2,0
	c0.3,0,0.5,0.2,0.5,0.5c0,0.3-0.2,0.5-0.5,0.5c-0.9-0.1-1.7,0-2.5,0.2c-0.8,0.2-1.5,0.4-2.2,0.7c-0.2,0.1-0.5,0-0.6-0.3
	c-0.1-0.2,0-0.5,0.3-0.6C5.4,9.7,5.7,9.6,6,9.5C5.9,9.4,5.9,9.2,5.8,9.1l0,0l0,0l0,0l0,0l0,0l0,0l0,0l0,0l0,0l0,0l0,0l0,0l0,0l0,0
	l0,0l0,0l0,0l0,0l0,0l0,0l0,0l0,0l0,0l0,0l0,0l0,0l0,0l0,0l0,0l0,0l0,0l0,0l0,0l0,0l0,0l0,0l0,0l0,0l0,0l0,0l0,0l0,0l0,0l0,0
	C5.5,8.6,5.5,8.5,5.4,8.4C4.5,8.6,3.7,8.9,3.1,9.3c-0.5,0.3-0.9,0.6-1.2,0.9c0.4,0.3,0.9,0.6,1.5,0.9l0,0l0,0l0,0l0,0l0,0l0,0l0,0
	l0,0l0,0l0,0l0,0l0,0l0,0l0,0l0,0l0,0l0,0l0,0l0,0l0,0l0,0l0,0l0,0l0,0l0,0l0,0l0,0l0,0l0,0l0,0l0,0l0,0l0,0l0,0l0,0l0.1,0l0,0
	l0.1,0l0,0l0.1,0l0,0l0.1,0l0,0l0.1,0l0,0l0.1,0l0,0l0.1,0l0,0l0.1,0l0,0l0.1,0l0,0l0.1,0l0,0l0.1,0l0,0l0.1,0l0,0l0.1,0l0,0l0.1,0
	l0,0l0.1,0l0,0l0.1,0l0,0l0.1,0l0,0l0.1,0l0,0l0.1,0l0,0l0.1,0l0,0l0.1,0l0,0L7,12l0,0l0.1,0l0,0l0.1,0l0,0l0.1,0l0,0l0.1,0l0,0
	l0.1,0l0,0l0.1,0l0,0l0.1,0l0,0l0.1,0l0,0l0.1,0l0,0l0.1,0l0,0l0.1,0l0,0l0.1,0h0l0.1,0l0,0l0.1,0h0l0.1,0l0,0l0.1,0h0l0.1,0l0,0
	l0.1,0h0l0.1,0h0l0.1,0h0l0.1,0h0l0.1,0h0l0.1,0h0l0.1,0h0.2l0.1,0l0,0l0.1,0h0l0.1,0l0.1,0h0l0.1,0h0l0.1,0l0.1,0h0l0.1,0l0,0
	l0.1,0h0l0.1,0l0.1,0l0,0l0.1,0l0.1,0l0.1,0l0.1,0l0,0l0.1,0l0.1,0h0l0.1,0h0l0.1,0l0.1,0l0.1,0l0.1,0l0.1,0l0.1,0l0.1,0l0.1,0h0
	l0.1,0l0.1,0h0l0.1,0h0l0.1,0h0l0.1,0l0.1,0l0.1,0l0.1,0h0l0.1,0l0,0l0.1,0l0.1,0l0,0l0.1,0l0.1,0l0.1,0h0l0.1,0h0l0.1,0l0.1,0l0,0
	l0.1,0h0l0.1,0h0l0.1,0l0.1,0h0l0.1,0h0l0.1,0l0,0l0.1,0l0,0l0.1,0h0l0.1,0h0l0.1,0l0.1,0l0.1,0l0.1,0l0.1,0l0.1,0l0.1,0l0.1,0h0
	l0.1,0l0.1,0h0l0.1,0l0,0l0,0l0,0l0,0l0,0l0,0l0,0l0,0l0,0l0,0l0,0l0,0l0,0l0,0l0,0l0,0l0,0l0,0l0,0l0,0l0,0l0,0l0,0l0,0l0,0l0,0
	l0,0l0,0h0l0,0l0,0l0,0l0,0l0,0c0.1,0,0.1-0.1,0.2-0.1l0,0l0,0l0,0h0l0,0l0,0l0,0l0,0l0,0l0.1-0.1l0,0l0,0l0,0l0,0l0,0l0,0l0,0l0,0
	l0,0l0,0l0.1,0l0,0l0,0l0,0l0,0c0,0,0.1-0.1,0.1-0.1c-0.5-0.6-1.4-1.1-2.6-1.5c-1.4-0.5-3.3-0.8-5.3-0.8c-0.4,0-0.8,0-1.1,0L8.4,7.9
	L8.4,7.9z M4.8,7.6C4.7,7.3,4.5,7.1,4.3,6.9l0,0l0,0l0,0l0,0l0,0l0,0l0,0l0,0l0,0l0,0l0,0l0,0l0,0l0,0l0,0l0,0l0,0l0,0l0,0l0,0l0,0
	l0,0L3.8,6.3C3,6.6,2.2,7,1.7,7.5C1.2,7.9,1,8.3,1,8.8v0l0,0v0l0,0l0,0l0,0l0,0l0,0l0,0l0,0l0,0l0,0l0,0l0,0l0,0l0,0l0,0l0,0l0,0
	l0,0l0,0l0,0l0,0l0,0l0,0l0,0l0,0l0,0l0,0l0,0l0,0v0l0,0l0,0l0,0l0,0l0,0l0,0l0,0l0,0l0,0l0,0l0,0l0,0l0,0l0,0l0,0l0,0l0,0l0,0l0,0
	l0,0l0,0l0,0l0,0l0,0l0,0l0,0l0,0l0,0l0,0l0,0l0,0l0,0l0,0l0,0l0,0l0,0l0,0l0,0l0,0l0,0l0,0l0,0l0,0l0,0l0,0l0,0l0,0l0,0
	c0.3-0.4,0.8-0.8,1.4-1.1C3.3,8.1,4,7.8,4.8,7.6L4.8,7.6z M3.1,5.6L2.7,5.1c-0.3-0.3-0.6-0.7-1-1.1c0,0,0-0.1-0.1-0.1
	C0.9,2.7,0.8,1.7,1.1,1c0.2-0.3,0.4-0.6,0.7-0.8C2.1,0.1,2.5,0,2.9,0c0.9,0,2.1,0.6,3,2C6.5,2.8,6.7,3.7,7,4.6
	c0.4,0,0.7-0.1,1.1-0.1c0.5,0,1.1-0.1,1.6-0.1c2.6,0,5,0.4,6.7,1.2c1.9,0.8,3,1.9,3,3.2v0c0,2.7-1.1,5.1-2.9,6.9
	c-1.8,1.8-4.2,2.9-6.9,2.9c-2.7,0-5.1-1.1-6.9-2.9C1.1,13.9,0,11.5,0,8.8v0c0-0.8,0.4-1.4,1.1-2C1.6,6.3,2.3,5.9,3.1,5.6L3.1,5.6z"
	/>
</svg>
