<?xml version="1.0" encoding="UTF-8"?>
<svg xmlns="http://www.w3.org/2000/svg" version="1.1" viewBox="0 0 87.11 73.34">
  <defs>
    <style>
      .cls-1 {
        fill: #c1d9e5;
      }

      .cls-2 {
        fill: #e7e1c9;
      }

      .cls-3 {
        fill: #253857;
      }
    </style>
  </defs>
  <!-- Generator: Adobe Illustrator 28.7.1, SVG Export Plug-In . SVG Version: 1.2.0 Build 142)  -->
  <g>
    <g id="Content">
      <g>
        <path class="cls-3" d="M43.41,73.34c-13.12,0-26.24,0-39.36,0-.76,0-1.51,0-2.27-.02-.93-.02-2.01-.16-1.74-1.33.13-.55,1.22-1.21,1.89-1.24,4.41-.15,8.83-.13,13.24-.17,5.37-.05,4.75.52,4.76-4.95.03-16.52.04-33.04.06-49.57,0-.63-.02-1.26.01-1.89.16-2.87,1.09-3.83,3.88-4.04q4.24-.31,4.27-4.68c0-.88-.06-1.78.09-2.64.32-1.92,1.65-2.77,3.49-2.78,7.95-.03,15.89-.07,23.84.03,2.28.03,3.32,1.27,3.49,3.63.1,1.38.09,2.78.01,4.16-.09,1.55.43,2.42,2.11,2.31.5-.03,1.01-.02,1.51.01,3.54.19,4.45,1.04,4.49,4.61.07,7.44.04,14.88.05,22.32.01,10.21,0,20.43.05,30.64.01,2.72.09,2.77,2.73,2.82,4.67.08,9.33.07,14,.11.75,0,1.53-.01,2.23.19.37.11.91.73.85,1.01-.1.5-.54,1.2-.96,1.29-.96.22-2,.16-3.01.16-13.24,0-26.49,0-39.73,0ZM22.75,41.52c0,8.19,0,16.39,0,24.58,0,.88.04,1.77.01,2.65-.04,1.28.58,1.8,1.83,1.79,3.28-.02,6.56-.02,9.83.01,1.32.01,1.73-.63,1.73-1.87,0-2.01-.08-4.06.25-6.02.67-4.01,3.81-6.29,7.86-6,3.73.27,6.41,3.04,6.64,6.94.1,1.63.08,3.28.03,4.92-.04,1.44.58,2.06,2.02,2.04,2.77-.04,5.55.02,8.32,0,3.15-.04,3.21-.06,3.22-3.09.02-17.15.02-34.29,0-51.44,0-3.08-.16-3.23-3.2-3.24-11.73-.03-23.45-.03-35.18,0-3.31,0-3.35.05-3.36,3.41-.03,8.45,0,16.89-.01,25.34ZM43.6,9.99c3.14,0,6.29.02,9.43,0,3.29-.03,3.29-.05,3.31-3.33,0-.38.01-.75,0-1.13-.11-2.64-.11-2.72-2.83-2.74-5.91-.05-11.82-.02-17.72-.02-5.23,0-5.15,0-4.98,5.11.05,1.7.68,2.17,2.24,2.14,3.52-.07,7.04-.02,10.56-.02ZM43.59,70.56c5.28-.07,4.61.61,4.61-4.62,0-1,.02-2.03-.18-3.01-.41-2.02-1.93-3.33-3.9-3.55-1.93-.22-3.88.72-4.62,2.55-.46,1.13-.64,2.43-.65,3.66-.03,5.5-.52,4.92,4.74,4.97Z"/>
        <rect class="cls-2" x="31.49" y="23.86" width="25.67" height="5.9"/>
        <rect class="cls-2" x="31.49" y="37.46" width="25.67" height="5.9"/>
        <polygon class="cls-1" points="68.45 28.48 68.45 37.72 77.43 37.72 77.43 43.62 68.45 43.62 68.45 69.8 83.85 69.8 83.85 28.48 68.45 28.48"/>
        <polygon class="cls-1" points="18.65 28.48 18.65 37.72 9.67 37.72 9.67 43.62 18.65 43.62 18.65 69.8 3.25 69.8 3.25 28.48 18.65 28.48"/>
      </g>
    </g>
  </g>
</svg>