<?xml version="1.0" encoding="UTF-8"?>
<svg xmlns="http://www.w3.org/2000/svg" version="1.1" viewBox="0 0 18.62 13.59">
  <defs>
    <style>
      .cls-1 {
        fill: #ffff;
      }
    </style>
  </defs>
  <!-- Generator: Adobe Illustrator 28.7.1, SVG Export Plug-In . SVG Version: 1.2.0 Build 142)  -->
  <g>
    <g id="Content">
      <g>
        <path class="cls-1" d="M2.87,11.05h12.83c.53,0,.96-.43.96-.96v-.44c0-3.21-2.06-5.94-4.92-6.95,0-.07.02-.13.02-.19,0-1.39-1.13-2.51-2.51-2.51s-2.51,1.13-2.51,2.51c0,.08.02.15.02.22C3.93,3.77,1.91,6.47,1.91,9.65v.44c0,.53.43.96.96.96ZM9.25.9c.87,0,1.57.69,1.6,1.55-.5-.11-1.03-.17-1.57-.17-.57,0-1.12.07-1.65.19.02-.87.73-1.57,1.61-1.57Z"/>
        <path class="cls-1" d="M17.79,11.94H.82c-.46,0-.82.37-.82.82s.37.82.82.82h16.97c.46,0,.82-.37.82-.82s-.37-.82-.82-.82Z"/>
      </g>
    </g>
  </g>
</svg>