<?xml version="1.0" encoding="UTF-8"?>
<svg xmlns="http://www.w3.org/2000/svg" version="1.1" viewBox="0 0 19.83 19.01">
  <defs>
    <style>
      .cls-1 {
        fill: #ffff;
      }
    </style>
  </defs>
  <!-- Generator: Adobe Illustrator 28.7.1, SVG Export Plug-In . SVG Version: 1.2.0 Build 142)  -->
  <g>
    <g id="Content">
      <path class="cls-1" d="M12.43,19c0-1.7,0-3.32,0-4.93q0-1.63-1.64-1.63c-.67,0-1.35,0-2.02,0-1.17,0-1.27.11-1.28,1.25,0,1.44,0,2.88,0,4.32,0,.3-.03.6-.05.98-1.38,0-2.69.04-3.99-.02-.88-.04-1.15-.67-1.15-1.48,0-1.96-.01-3.92,0-5.89.01-.91-.22-1.5-1.27-1.66-1.07-.16-1.4-1.28-.59-1.99C3.33,5.39,6.24,2.86,9.16.32c.5-.44,1.08-.43,1.59.01,2.92,2.53,5.84,5.06,8.72,7.63.27.24.44.87.33,1.21-.11.34-.61.69-.99.78-1.21.29-1.39.44-1.4,1.71,0,1.93,0,3.86,0,5.79,0,1.16-.38,1.53-1.55,1.54-1.1.01-2.19,0-3.42,0Z"/>
    </g>
  </g>
</svg>