<?xml version="1.0" encoding="UTF-8"?><svg id="Content" xmlns="http://www.w3.org/2000/svg" viewBox="0 0 21.41 19.98"><defs><style>.cls-1{fill:#6f853a;}.cls-2{fill:#cd4e3f;}.cls-3{fill:#9ac14c;}</style></defs><path class="cls-2" d="m21.39,9.86c.31,5.47-4.68,10.12-10.66,10.12S-.56,15.05.05,9.61C.9,1.94,6.57,1.43,10.74,1.43c2.53,0,10.05-2.2,10.66,8.44Z"/><path class="cls-3" d="m3.2,8.21c2.21-3.44,6-2.43,7-3.7,0,2.45,1.78,1.26,2.68,2.37,1.16,1.42,1.58,3.96,2.91,4.46-1.31-2.82.84-2.71-2.18-6.49,1.59.99,2.42-.01,4.59.88-1.86-3.04-4.83-2.16-4.83-2.16,0,0,1.87-1.71,3.43-.82-1.65-2.43-6.37.66-6.37.66,0,0-1.97-3.38-6.19.16,2.45-1,5.19,0,5.19,0,0,0-4.47-1.11-6.22,4.64Z"/><path class="cls-1" d="m3.2,8.21s2.59-4.81,7.08-4.38c-3.95-1.84-7.08,2.02-7.08,4.38Z"/><path class="cls-1" d="m4.24,3.58s3.29-2.46,6.19,0c-.87-3.02-5.25-1.61-6.19,0Z"/><path class="cls-1" d="m11.13,3.87c4.34,2.01,2.88,4.27,4.67,7.48-1.19-2.65,1.78-7.48-4.67-7.48Z"/><path class="cls-1" d="m9.43,3.58s1-1.48,1.36-3.35c.05-.25,1.1-.22,1.06.02-.34,2.4.6,3.73.6,3.73,0,0-.75.26-1.68.26s-1.34-.66-1.34-.66Z"/><path class="cls-3" d="m11.32,0c.29,0,.53.1.53.23s-.24.23-.53.23-.53-.1-.53-.23.24-.23.53-.23Z"/></svg>