<?xml version="1.0" encoding="UTF-8"?><svg id="Content" xmlns="http://www.w3.org/2000/svg" viewBox="0 0 85.32 37.91"><defs><style>.cls-1{fill:#cb6d61;}</style></defs><g id="gb0ePZ"><path class="cls-1" d="m45.43,30.26c-.1,4.77-2.35,7.51-6.13,7.64-3.84.13-6.15-2.51-6.55-7.64-.37,0-.74,0-1.12,0-2.35,0-4.69,0-7.04,0-1.77,0-2.53-.75-2.53-2.54-.01-4.65,0-9.31,0-13.96,0-3.7,0-7.4,0-11.09C22.06.76,22.81,0,24.69,0c11.77,0,23.54,0,35.31,0,1.86,0,2.63.78,2.64,2.68,0,6.19,0,12.37,0,18.56,0,2.17,0,4.33,0,6.5,0,1.75-.79,2.52-2.56,2.52-4.44,0-8.89,0-13.33,0-.42,0-.84,0-1.32,0Zm-3.05-28.6c-5.83,0-11.66,0-17.5,0-.74,0-1.21.1-1.21,1.02.02,8.32.02,16.64,0,24.96,0,.74.26,1,1,.99,2.7-.03,5.41,0,8.11-.04.35,0,.82-.24,1.03-.52,2.91-3.79,7.72-3.79,10.58,0,.21.28.68.51,1.03.52,4.84.03,9.67,0,14.51.04.88,0,1.1-.34,1.07-1.14-.06-1.53-.07-3.05-.07-4.58.01-6.65.01-13.29.07-19.94,0-1.04-.33-1.33-1.35-1.32-5.76.04-11.52.02-17.28.02Zm1.38,29.95c0-2.59-2.04-4.7-4.61-4.73-2.56-.03-4.67,2.06-4.7,4.64-.03,2.63,2.08,4.74,4.71,4.72,2.51-.02,4.58-2.11,4.59-4.63Z"/><path class="cls-1" d="m77.24,30.26c-.04.88,0,1.64-.13,2.36-.56,3.25-3.58,5.59-6.73,5.26-3.43-.36-5.87-3.06-5.79-6.48.02-.76.06-1.39-.65-1.96-.36-.29-.5-1.02-.5-1.55-.03-6.29-.03-12.57-.02-18.86,0-1.61.82-2.41,2.45-2.42,3.8-.02,7.61-.03,11.41.02.4,0,.95.31,1.16.65,2.1,3.34,4.18,6.69,6.17,10.09.42.72.63,1.66.65,2.51.08,2.66.03,5.33.03,8,0,1.56-.79,2.37-2.34,2.39-1.88.02-3.76,0-5.72,0Zm-12.11-1.97c.09.06.19.11.28.17.06-.13.12-.26.19-.37,2.63-3.88,8.19-3.71,10.64.06.17.26.63.44.96.45,1.81.04,3.63-.01,5.44.03.8.02,1.04-.28,1.03-1.06-.04-2.52.02-5.05-.04-7.57-.01-.64-.18-1.35-.5-1.9-1.79-3.03-3.66-6.01-5.47-9.02-.36-.59-.75-.82-1.44-.81-3.27.04-6.54.05-9.81,0-1-.02-1.36.25-1.35,1.3.04,5.94.02,11.88.02,17.81,0,.31.03.62.05.92Zm5.83,7.95c2.57-.03,4.61-2.15,4.59-4.74-.02-2.56-2.17-4.67-4.72-4.62-2.58.05-4.64,2.18-4.6,4.75.03,2.57,2.16,4.64,4.73,4.61Z"/><path class="cls-1" d="m8.25,10.64c-2.35,0-4.69,0-7.04,0-.6,0-1.23-.03-1.21-.83.02-.77.63-.83,1.24-.83,4.69,0,9.39,0,14.08,0,.62,0,1.22.11,1.21.86,0,.78-.64.81-1.24.8-2.35,0-4.69,0-7.04,0Z"/><path class="cls-1" d="m14.02,4.47c1.95,0,3.9,0,5.85,0,.6,0,1.21.04,1.21.83,0,.79-.61.83-1.22.83-3.94,0-7.87,0-11.81,0-.61,0-1.22-.06-1.22-.83,0-.76.61-.83,1.22-.83,1.99,0,3.97,0,5.96,0Z"/><path class="cls-1" d="m13.08,15.08c-1.99,0-3.98,0-5.98,0-.63,0-1.27-.13-1.13-.87.06-.32.73-.75,1.13-.75,3.95-.06,7.9-.05,11.84,0,.4,0,1.08.43,1.13.75.13.73-.51.87-1.14.87-1.95,0-3.91,0-5.86,0Z"/><path class="cls-1" d="m39.07,35.24c-2.01-.02-3.64-1.65-3.65-3.66,0-2.05,1.67-3.71,3.73-3.69,2.01.02,3.64,1.65,3.65,3.66.01,2.05-1.67,3.71-3.73,3.69Zm.03-1.64c1.08.01,2.03-.94,2.04-2.03,0-1.11-.91-2.03-2.02-2.03-1.12,0-2.03.89-2.03,2.01,0,1.1.92,2.04,2.02,2.05Z"/><path class="cls-1" d="m66.13,8.94c3.3,0,6.35,0,9.41.02.23,0,.56.17.67.36,1.99,3.39,3.96,6.79,5.99,10.29-.29.04-.45.08-.61.08-4.93.02-9.86.04-14.79.03-.22,0-.63-.36-.64-.56-.04-3.36-.03-6.73-.03-10.22Zm13.23,9.08c-1.44-2.49-2.78-4.82-4.14-7.13-.08-.13-.27-.27-.42-.27-2.29-.02-4.58-.01-6.86-.01v7.42h11.41Z"/><path class="cls-1" d="m70.91,27.89c2.02,0,3.66,1.63,3.67,3.66,0,2.03-1.62,3.67-3.64,3.68-2.05,0-3.7-1.59-3.73-3.6-.03-2.08,1.61-3.73,3.7-3.74Zm2.02,3.64c-.02-1.11-.95-2-2.06-1.99-1.12.01-2.01.93-2,2.05.01,1.1.95,2.02,2.06,2.01,1.08-.01,2.02-.98,2.01-2.07Z"/></g></svg>