<?xml version="1.0" encoding="UTF-8"?>
<svg xmlns="http://www.w3.org/2000/svg" version="1.1" viewBox="0 0 19.5 19.03">
  <defs>
    <style>
      .cls-1 {
        fill: #ffff;
      }
    </style>
  </defs>
  <!-- Generator: Adobe Illustrator 28.7.1, SVG Export Plug-In . SVG Version: 1.2.0 Build 142)  -->
  <g>
    <g id="Content">
      <path class="cls-1" d="M9.82,15.9l-.72.46-4.53,2.58c-.33.19-.75.07-.94-.26-.08-.15-.11-.31-.08-.47l1.09-6.06L.21,7.97c-.28-.26-.29-.7-.02-.98.11-.12.26-.19.41-.21h0l5.96-.8L9.08.41c.16-.35.57-.5.92-.35.16.07.28.2.34.34l2.59,5.55,5.97.74c.38.05.65.39.6.77-.02.16-.1.3-.2.41l-4.36,4.23,1.17,6.05c.07.38-.17.74-.55.81-.17.03-.33,0-.47-.07l-4.59-2.55-.67-.44Z"/>
    </g>
  </g>
</svg>