<?xml version="1.0" encoding="UTF-8"?>
<svg xmlns="http://www.w3.org/2000/svg" version="1.1" viewBox="0 0 94.89 70.6">
  <defs>
    <style>
      .cls-1 {
        fill: #c1d9e5;
      }

      .cls-2 {
        fill: #e7e1c9;
      }

      .cls-3 {
        fill: #253857;
      }
    </style>
  </defs>
  <!-- Generator: Adobe Illustrator 28.7.1, SVG Export Plug-In . SVG Version: 1.2.0 Build 142)  -->
  <g>
    <g id="Content">
      <g>
        <path class="cls-1" d="M66.5,28.39h-28.39c0-15.57,12.82-28.39,28.39-28.39s28.39,12.81,28.39,28.39h-28.39Z"/>
        <path class="cls-2" d="M28.39,28.39H0C0,12.81,12.82,0,28.39,0s28.39,12.81,28.39,28.39h-28.39Z"/>
        <g>
          <path class="cls-3" d="M47.53,47.91c6.09-6.63,13.39-9.27,22.02-8.36,11.28,1.19,20.25,10.78,20.61,22.11.06,1.76.05,3.54-.1,5.3-.04.43-.75,1.11-1.15,1.11-.44,0-1.17-.63-1.23-1.06-.19-1.23-.13-2.51-.12-3.77.15-12.61-9.9-20.55-19.57-21.16-6.23-.39-11.71,1.43-16.34,5.64-2.22,2.02-2.21,2.07-.59,4.64,2.27,3.61,3.55,7.52,3.53,11.8-.02,3.89-2.29,6.35-5.9,6.44-3.63.09-6.05-2.28-6.25-6.1-.21-4.23.25-8.37,2.35-12.11.98-1.74.58-2.72-.89-3.76-6.86-4.84-14.22-5.81-21.85-2.36-7.67,3.47-11.76,9.65-12.21,18.12-.04.76.15,1.56-.05,2.26-.21.75-.76,1.41-1.16,2.11-.45-.64-1.31-1.31-1.27-1.93.16-3.01.09-6.14.95-8.97,4.48-14.8,22.61-20.95,35.92-12.32,1.06.68,2.05,1.46,3.32,2.36ZM47.86,52.88c-2.69,3.66-2.85,7.63-2.67,11.64.1,2.15,1.42,3.37,3.29,3.38,2.01.02,3.48-1.42,3.43-3.69-.09-4.09-1.14-7.89-4.05-11.34Z"/>
          <path class="cls-3" d="M29.7,38.16c-6.92.05-12.29-5.19-12.4-12.08-.11-7.2,5.04-12.67,12.08-12.83,7.07-.15,12.79,5.57,12.69,12.7-.09,6.85-5.47,12.16-12.37,12.2ZM39.38,25.89c.05-5.06-4.5-9.61-9.65-9.67-5.13-.05-9.79,4.42-9.86,9.47-.07,5.24,4.64,9.98,9.86,9.92,5.1-.06,9.6-4.6,9.65-9.73Z"/>
          <path class="cls-3" d="M78.7,23.84c.06,6.97-5.48,12.52-12.46,12.49-6.81-.03-12.22-5.44-12.27-12.29-.05-6.82,5.27-12.34,12.05-12.5,6.96-.16,12.62,5.31,12.68,12.29ZM75.96,24.02c.02-5.22-4.4-9.66-9.63-9.64-5.23.01-9.64,4.42-9.63,9.65,0,5.3,4.31,9.58,9.63,9.58,5.32,0,9.61-4.27,9.63-9.59Z"/>
        </g>
      </g>
    </g>
  </g>
</svg>