<?xml version="1.0" encoding="utf-8"?>
<!-- Generator: Adobe Illustrator 28.3.0, SVG Export Plug-In . SVG Version: 6.00 Build 0)  -->
<svg version="1.1" id="Capa_1" xmlns="http://www.w3.org/2000/svg" xmlns:xlink="http://www.w3.org/1999/xlink" x="0px" y="0px"
	 viewBox="0 0 19.5 18.1" style="enable-background:new 0 0 19.5 18.1;" xml:space="preserve">
<style type="text/css">
	.st0{fill:#BF665D;}
</style>
<g id="Background">
</g>
<g>
	<path class="st0" d="M4.1,13.8c0.1-0.4,0.1-0.8,0.1-1.1c-0.1-0.5-0.2-1-0.3-1.6c-0.2-0.8-0.5-1.7-1-2.5C2.5,8,2,7.6,1.5,7.3
		C1.1,7.1,0.8,7.2,0.7,7.2C0.5,7.3,0.3,7.4,0.2,7.8C0.1,8,0.1,8.2,0.1,8.4c0,0.1,0,0.2,0,0.2l0,0l0,0c0.1,1.9,0.8,3.9,2,5.3
		c0.2,0.2,0.4,0.4,0.5,0.5c0.2,0.1,0.4,0.2,0.6,0.2c0.1,0,0.3,0,0.4-0.1C3.8,14.4,4,14.1,4.1,13.8z M3,12.7c0,0.2,0,0.3,0,0.5
		C2,12.4,1.1,10,1.3,8.6C1.6,8.8,1.8,9,2,9.4C2.6,10.5,3,11.6,3,12.7z"/>
	<path class="st0" d="M11.4,14.5c-0.1-0.3-0.3-0.5-0.6-0.6c-0.4-0.2-0.8-0.3-1.1-0.3c-1.5-0.1-3,0.2-4.5,0.9c-0.4,0.2-0.7,0.4-1,0.7
		l-0.1,0.1c-0.2,0.2-0.4,0.5-0.4,0.8c0,0.5,0.3,0.8,0.7,1c0.3,0.1,0.7,0.2,1.2,0.3c0.1,0,0.2,0,0.3,0c0.2,0,0.3,0,0.5,0
		c0.2,0,0.4-0.1,0.6-0.1C7.3,17.1,7.6,17,7.8,17c1.2-0.1,2.3-0.7,3.3-1.7C11.4,15,11.5,14.7,11.4,14.5z M9.9,14.8
		c-1,1-3.3,1.6-4.7,1.1C6,15.1,8.5,14.4,9.9,14.8z"/>
	<path class="st0" d="M15.2,8.3L15.2,8.3c-0.2,0-0.3-0.1-0.4-0.1c-0.2,0-0.3,0-0.5-0.1c-0.4-0.1-0.8-0.1-1.2-0.1
		c-1.3,0.1-2.6,0.6-3.7,1.4c-0.3,0.2-0.6,0.5-0.9,0.9c-0.2,0.3-0.3,0.6-0.2,0.9C8.4,11.6,8.6,11.9,9,12c0.2,0.1,0.4,0.1,0.6,0.1
		c0.1,0,0.2,0,0.2,0l0,0l0.3,0c0.1,0,0.3,0,0.4,0c1.7-0.2,3.1-0.7,4.3-1.6c0.3-0.2,0.6-0.6,0.8-0.9c0.2-0.2,0.2-0.5,0.1-0.7
		C15.7,8.6,15.5,8.4,15.2,8.3z M14.3,9.3c-0.1,0.1-0.2,0.2-0.3,0.3c-0.7,0.5-1.6,0.9-2.8,1.1c-0.5,0.1-1,0.2-1.6,0.1
		c0.2-0.2,0.4-0.3,0.6-0.5c1-0.6,2-1,3.1-1.2C13.6,9.2,14,9.2,14.3,9.3z"/>
	<path class="st0" d="M15.3,11c-0.1-0.1-0.4-0.1-0.7,0.1l-0.2,0.1c-0.2,0.1-0.5,0.2-0.7,0.4c-0.3,0.2-0.7,0.5-0.9,0.8
		c-0.4,0.6-0.7,1.2-1.1,1.9c-0.4,0.9-0.6,1.7-0.7,2.5l0,0.1c0,0.1,0,0.2,0,0.2c0.1,0.4,0.2,0.7,0.5,0.8c0.1,0.1,0.3,0.1,0.4,0.1
		c0.2,0,0.3,0,0.5-0.1c0.3-0.1,0.6-0.3,0.8-0.6c1.2-1.2,2.1-2.7,2.5-4.5c0.1-0.5,0.1-0.9,0-1.4C15.7,11.2,15.5,11.1,15.3,11z
		 M14.7,12.4c0,1.2-1.4,3.7-2.5,4.4c0-0.2,0-0.3,0-0.5c0.3-1,0.7-2.2,1.5-3.1C13.9,12.9,14.3,12.6,14.7,12.4z"/>
	<path class="st0" d="M18.4,8.6c-0.2-0.3-0.5-0.4-0.9-0.4c-0.3,0.1-0.6,0.3-0.7,0.5l0,0.1c-0.2,0.4-0.3,0.7-0.4,1.1
		c-0.1,0.5-0.2,0.9-0.2,1.4l-0.1,0.5c0,0.1,0,0.3,0,0.4l0,0.1c0.1,0.5,0.2,1,0.3,1.5c0.1,0.4,0.2,0.9,0.4,1.4c0.2,0.4,0.5,0.7,1,0.7
		c0,0,0.1,0,0.1,0c0.5,0,0.9-0.4,1.1-1c0.3-0.9,0.5-1.9,0.5-3.4C19.5,10.7,19.1,9.6,18.4,8.6z M17.7,9.7c0.7,1.1,0.9,3.4,0.1,4.8
		c-0.1-0.1-0.1-0.2-0.2-0.3c-0.2-0.5-0.3-1.1-0.3-1.6C17.2,11.5,17.3,10.6,17.7,9.7z"/>
	<path class="st0" d="M6.6,6.3C6.6,6.3,6.5,6.4,6.4,6.5C6.2,6.8,6,7.1,5.8,7.5c-0.5,1-0.7,2.2-0.7,3.4l0,0.2c0,0.1,0,0.2,0,0.4
		c0,0.4,0.1,0.8,0.3,1.2c0.2,0.3,0.4,0.4,0.6,0.5c0.1,0,0.1,0,0.2,0c0.2,0,0.4-0.1,0.6-0.2c0.1-0.1,0.3-0.2,0.4-0.4
		c0.4-0.5,0.7-1,1-1.8C8.6,9.6,9,8.3,8.8,7l0-0.1C8.7,6.6,8.6,6.3,8.5,6C8.4,5.7,8.2,5.5,7.9,5.5c-0.3-0.1-0.5,0-0.8,0.3L7,5.9
		C6.9,6,6.8,6.1,6.6,6.3z M6.2,10.9c0.2-1.1,0.4-2,0.6-2.8C6.9,7.7,7.2,7.3,7.6,7c0.3,1.3-0.4,3.9-1.3,4.8
		C6.2,11.5,6.1,11.2,6.2,10.9z"/>
	<path class="st0" d="M8.6,4.7c0.1,0.8,0.3,1.5,0.6,2.4c0.2,0.6,0.7,0.8,1,0.8c0,0,0,0,0.1,0c0.3,0,0.8-0.1,1-0.7
		c0.1-0.3,0.3-0.7,0.3-1c0.1-0.4,0.1-0.7,0.2-1.1c0-0.2,0-0.3,0.1-0.5c0.1-1,0-1.9-0.3-2.7c-0.2-0.5-0.5-1-0.8-1.4
		C10.5,0.1,10.2,0,10,0C9.8,0,9.5,0.1,9.2,0.5C9.1,0.7,9,0.9,8.9,1.2C8.6,1.9,8.5,2.7,8.5,3.6l0,0l0,0.3C8.5,4.2,8.5,4.4,8.6,4.7z
		 M10.1,1.6c0.3,0.3,0.4,0.7,0.5,1.1c0.2,1.1,0.2,2.3-0.1,3.3c0,0.1-0.1,0.3-0.2,0.5C9.6,5.3,9.5,2.6,10.1,1.6z"/>
	<path class="st0" d="M13,6.2c1.3,0.9,2.8,1.4,4.6,1.6c0.1,0,0.1,0,0.2,0c0.4,0,0.7-0.1,0.9-0.1C19,7.5,19.3,7.3,19.4,7
		c0.1-0.3,0.1-0.6-0.1-0.9c-0.1-0.2-0.3-0.4-0.5-0.6c-0.3-0.2-0.7-0.5-1-0.7c-1.2-0.8-2.4-1.1-3.6-1.2l0,0l0,0c-0.1,0-0.3,0-0.4,0.1
		c-0.3,0-0.7,0.1-1,0.2C12.3,4,12,4.2,11.9,4.5c-0.1,0.3,0,0.6,0.2,0.9C12.4,5.7,12.7,5.9,13,6.2z M13.4,4.9
		c0.4-0.1,0.7-0.1,1.1-0.1c1,0.1,1.9,0.6,2.9,1.1l0.1,0c0.1,0.1,0.3,0.2,0.4,0.2c0.1,0.1,0.2,0.2,0.2,0.3c-0.2,0.1-0.5,0.1-0.8,0
		C16.1,6.4,15,6,14,5.4C13.8,5.3,13.6,5.1,13.4,4.9z"/>
	<path class="st0" d="M3.6,7.9C3.7,8,3.8,8,3.9,8c0.2,0,0.4,0,0.5-0.1c0.2-0.1,0.6-0.4,0.9-0.7c0.4-0.5,0.7-1,1-1.5
		c0.6-1,0.8-1.9,0.8-3l0-0.1c0-0.1,0-0.2,0-0.3C7.1,2,7,1.8,7,1.7l0-0.2C6.9,1.1,6.7,0.8,6.5,0.7C6.2,0.6,5.9,0.6,5.6,0.8
		C5.4,0.9,5.1,1.1,4.8,1.4c-1,1.2-1.6,2.7-1.9,4.4c-0.1,0.5,0,1,0.1,1.4C3.1,7.6,3.3,7.8,3.6,7.9z M5.9,2.1C6,2.6,6,3.1,5.9,3.6
		C5.6,4.4,5.3,5.2,4.8,6C4.6,6.2,4.4,6.5,4.1,6.6C4,5.4,4.8,3,5.9,2.1z"/>
</g>
</svg>
