<?xml version="1.0" encoding="utf-8"?>
<!-- Generator: Adobe Illustrator 27.7.0, SVG Export Plug-In . SVG Version: 6.00 Build 0)  -->
<svg version="1.1" id="Capa_1" xmlns="http://www.w3.org/2000/svg" xmlns:xlink="http://www.w3.org/1999/xlink" x="0px" y="0px"
	 viewBox="0 0 12.23 16.26" style="enable-background:new 0 0 12.23 16.26;" xml:space="preserve">
<style type="text/css">
	.st0{fill:#646477;}
</style>
<g id="Background">
</g>
<path class="st0" d="M12.22,5.4c0-0.07-0.02-0.13-0.04-0.2c-0.01-0.02-0.01-0.05-0.03-0.07c-0.04-0.08-0.08-0.15-0.15-0.22l-4.7-4.7
	C7.25,0.16,7.18,0.11,7.1,0.07C7.08,0.06,7.05,0.06,7.03,0.05C6.97,0.03,6.9,0.01,6.83,0.01C6.82,0.01,6.8,0,6.79,0H1.42
	C0.64,0,0,0.64,0,1.42v13.41c0,0.78,0.64,1.42,1.42,1.42h9.39c0.78,0,1.42-0.64,1.42-1.42V5.45C12.23,5.43,12.22,5.42,12.22,5.4z
	 M7.54,2.56L9.67,4.7H7.54V2.56z M1.5,14.76V1.5h4.54v3.95c0,0.41,0.34,0.75,0.75,0.75h3.95v8.56H1.5z"/>
</svg>
