<?xml version="1.0" encoding="utf-8"?>
<!-- Generator: Adobe Illustrator 27.3.1, SVG Export Plug-In . SVG Version: 6.00 Build 0)  -->
<svg version="1.1" id="Capa_1" xmlns="http://www.w3.org/2000/svg" xmlns:xlink="http://www.w3.org/1999/xlink" x="0px" y="0px"
	 viewBox="0 0 20.1 13" style="enable-background:new 0 0 20.1 13;" xml:space="preserve">
<style type="text/css">
	.st0{fill:#CB6D61;}
</style>
<g id="Background">
</g>
<path class="st0" d="M18.8,3.4c-0.2-0.2-0.5-0.3-0.7-0.3c-0.3,0-0.5,0.1-0.7,0.3l-0.7-0.7c0.2-0.2,0.3-0.5,0.3-0.7
	c0-0.3-0.1-0.5-0.3-0.7C16.4,1.1,16.2,1,15.9,1c-0.3,0-0.5,0.1-0.7,0.3C15,1.5,14.9,1.7,14.9,2c0,0.3,0.1,0.5,0.3,0.7
	c0,0,0.1,0.1,0.1,0.1l0,0c0,0,0.1,0,0.1,0.1c0.2,0.1,0.4,0.4,0.2,0.7c0,0.1-0.1,0.1-0.1,0.1l-2.1,2.1l0.7,0.7l2.1-2.1
	c0.2-0.2,0.5-0.2,0.7,0c0,0,0.1,0.1,0.1,0.2c0,0,0,0.1,0.1,0.1l0,0c0,0,0.1,0.1,0.1,0.1c0.2,0.2,0.5,0.3,0.7,0.3
	c0.3,0,0.5-0.1,0.7-0.3c0.2-0.2,0.3-0.5,0.3-0.7C19.1,3.9,19,3.6,18.8,3.4L18.8,3.4z M13.1,4.8L13.1,4.8c-0.6-1-1.8-1.6-3.2-1.9
	C9.1,2.8,8.2,2.8,7.4,3C6.5,3.2,5.6,3.5,4.8,4C3,5.2,1.5,7.2,1,10.3c0,0.2,0,0.4,0,0.6c0.1,0.2,0.2,0.4,0.3,0.6
	c0.1,0.2,0.3,0.3,0.5,0.4C2.1,12,2.3,12,2.5,12h5.5l0,0c-0.6-0.6-1-1.5-1-2.5C7,7.3,8.9,6.7,10.8,6c0.6-0.2,1.2-0.4,1.7-0.6
	L13.1,4.8L13.1,4.8z M10.4,13H2.5c-0.4,0-0.7-0.1-1.1-0.2c-0.3-0.1-0.6-0.4-0.9-0.7c-0.2-0.3-0.4-0.6-0.5-0.9C0,10.9,0,10.5,0,10.2
	c0.5-3.4,2.2-5.7,4.2-7c0.9-0.6,1.9-1,2.9-1.2c1-0.2,2-0.2,2.9-0.1c1.6,0.2,3,1,3.8,2.1l0.7-0.7C14.1,3,13.9,2.5,13.9,2
	c0-0.5,0.2-1,0.6-1.4l0,0C14.9,0.2,15.4,0,15.9,0c0.5,0,1,0.2,1.4,0.6C17.7,1,17.9,1.5,17.9,2l0,0.1l0.1,0c0.5,0,1,0.2,1.4,0.6
	c0.4,0.4,0.6,0.9,0.6,1.4s-0.2,1-0.6,1.4c-0.4,0.4-0.9,0.6-1.4,0.6c-0.5,0-1-0.2-1.4-0.6l-2,2C14.4,8,14.2,8.6,14,9.2
	c-0.6,1.9-1.2,3.8-3.5,3.8L10.4,13L10.4,13z M8.8,11.3c0.5,0.5,1.1,0.7,1.8,0.7c1.5,0,2-1.5,2.5-3.1c0.2-0.5,0.4-1.1,0.6-1.6
	l-0.9-0.9c-0.5,0.2-1.1,0.4-1.6,0.6C9.6,7.5,8,8,8,9.5C8,10.2,8.3,10.9,8.8,11.3L8.8,11.3z"/>
</svg>
