<!-- Generated by IcoMoon.io -->
<svg version="1.1" xmlns="http://www.w3.org/2000/svg" width="32" height="32" viewBox="0 0 32 32">
<path d="M30.25 8.688c0-0.375-0.125-0.688-0.25-0.938-3.75 0.125-6.625 0.375-9.313 1.125-2.563 0.813-5.063 2.063-8.063 4.188 0.125 0.375 0.188 0.813 0.188 1.188 0 0.875-0.313 1.688-0.875 2.25-0.625 0.563-1.375 0.938-2.25 0.938s-1.688-0.375-2.25-0.938c-0.563-0.563-0.938-1.375-0.938-2.25s0.375-1.625 0.938-2.25c0.563-0.563 1.375-0.875 2.25-0.875 0.75 0 1.438 0.25 2 0.688 3.188-2.25 5.813-3.625 8.563-4.438 2.5-0.75 5.063-1.063 8.25-1.188l-0.125-0.063c-1.5-0.875-3.625-1.313-5.25-1.313-3.125 0-6.25 0.188-9.125 0.813-2.875 0.688-5.5 1.75-7.75 3.625-1.188 0.938-2.313 2.063-3.125 3.313-0.813 1.188-1.375 2.5-1.375 3.875 0 0.5 0.125 1.063 0.313 1.625 0.313 1 0.938 2.063 1.813 2.875 0.875 0.75 1.938 1.25 3.188 1.25 0.5 0 1-0.063 1.563-0.25 2.938-1 4.75-2.563 6.625-4.313 1.25-1.125 2.563-2.313 4.25-3.375 1.375-0.938 3.313-1.563 5.188-2.25 2.813-1 5.563-1.938 5.563-3.313zM1.75 20.875v0.625c0 0.5 0.125 1 0.313 1.563 0.313 1.063 0.938 2.125 1.813 2.875 0.875 0.813 1.938 1.313 3.188 1.313 0.5 0 1-0.125 1.563-0.313 2.938-0.938 4.75-2.563 6.625-4.25 1.25-1.125 2.563-2.313 4.25-3.438 1.375-0.875 3.313-1.563 5.188-2.188 2.813-1 5.563-1.938 5.563-3.375v-2.438c-1.25 0.875-3.125 1.563-5 2.188-1.813 0.625-3.625 1.313-4.875 2.125-1.625 1.063-2.875 2.188-4.063 3.25-2 1.813-3.938 3.5-7.188 4.563-0.688 0.25-1.438 0.375-2.063 0.375-1.688 0-3.125-0.688-4.188-1.688-0.438-0.313-0.813-0.75-1.125-1.188zM31.813 8.688v5c0 2.5-3.25 3.688-6.625 4.875-1.75 0.563-3.563 1.25-4.813 2.063-1.625 1.063-2.875 2.188-4.063 3.25-2.063 1.813-3.938 3.5-7.188 4.563-0.75 0.25-1.438 0.375-2.063 0.375-1.688 0-3.125-0.688-4.25-1.688-1.063-1-1.813-2.25-2.25-3.563-0.25-0.688-0.375-1.438-0.375-2.063v-4.75c0-0.125 0-0.188 0-0.313 0-1.75 0.625-3.313 1.625-4.75 0.875-1.375 2.188-2.625 3.438-3.625 2.438-2.063 5.313-3.25 8.438-3.938 3-0.688 6.188-0.938 9.438-0.938 1.875 0 4.313 0.563 6.063 1.563 1.5 0.938 2.625 2.188 2.625 3.875zM10.813 13.125c-0.313-0.25-0.688-0.438-1.125-0.438s-0.813 0.188-1.125 0.438c-0.313 0.313-0.438 0.688-0.438 1.125s0.125 0.813 0.438 1.125c0.25 0.313 0.688 0.438 1.125 0.438s0.813-0.125 1.063-0.438c0.313-0.313 0.5-0.688 0.5-1.125s-0.188-0.813-0.438-1.125z"></path>
</svg>
