<!-- Generated by IcoMoon.io -->
<svg version="1.1" xmlns="http://www.w3.org/2000/svg" width="32" height="32" viewBox="0 0 32 32" fill="#262C57">
<path d="M6.688 22.813c-0.688 0.438-1.375 0.813-2.125 1.188-0.438 0.25-0.875 0.438-1.375 0.563-0.563 0.125-1-0.25-1.125-0.688s-0.25-1 0.375-1.375c0.813-0.5 1.625-0.938 2.438-1.438 0.188-0.125 0.438-0.313 0.75-0.5-1.063-0.25-1.938-0.5-2.813-0.75-0.563-0.188-1-0.438-1.063-1.125-0.063-1.188 0.625-1.625 1.938-1.25 1.313 0.438 2.688 0.75 3.938 1.25 0.938 0.375 1.563-0.125 2.25-0.5 1.188-0.688 2.375-1.375 3.625-2.125-0.938-0.563-1.938-1.188-2.875-1.75-0.125-0.063-0.313-0.063-0.375-0.125-1.125-1-2.25-1-3.563-0.438-1.063 0.438-2.25 0.688-3.375 1-0.75 0.188-1.438-0.188-1.563-0.813-0.188-0.875 0.125-1.313 1-1.563 1-0.25 1.875-0.563 2.875-0.875-1.063-0.625-2.063-1.188-3-1.813-0.563-0.313-0.813-1.188-0.563-1.625 0.313-0.563 1.063-0.75 1.688-0.438 0.688 0.375 1.313 0.75 2 1.125 0.313 0.188 0.625 0.313 1.063 0.563-0.188-0.875-0.313-1.625-0.5-2.313-0.063-0.25-0.125-0.438-0.188-0.625-0.188-0.625 0.125-1.375 0.625-1.563 0.75-0.25 1.438 0.063 1.688 0.813 0.313 1.125 0.563 2.25 0.813 3.438 0.188 0.563 0.313 1.188 0.438 1.75 0.063 0.125 0.188 0.313 0.313 0.375 1.438 0.875 2.938 1.75 4.438 2.563 0.063 0.063 0.188 0 0.313 0 0-1.75 0-3.5 0-5.313 0-0.125-0.063-0.25-0.125-0.313-0.75-0.75-1.5-1.375-2.25-2.125-0.563-0.563-1.188-1.125-1.688-1.75-0.375-0.375-0.375-1.188 0-1.563 0.375-0.438 0.938-0.5 1.438-0.25 0.313 0.188 0.625 0.438 0.875 0.688 0.563 0.563 1.063 1.125 1.563 1.688 0.063-0.063 0.125-0.125 0.25-0.125 0-1.063 0-2.188 0-3.25 0-0.813 0.375-1.313 1.063-1.375 0.625-0.063 1.25 0.375 1.313 1.188 0.063 0.75 0 1.5 0.063 2.313 0 0.375 0 0.688 0 1.125 0.75-0.688 1.438-1.313 2.188-1.938 0.563-0.563 1.313-0.625 1.813-0.125 0.5 0.438 0.438 1.188-0.125 1.813-1.188 1.125-2.375 2.25-3.563 3.375-0.125 0.188-0.313 0.438-0.313 0.625-0.063 1.75 0 3.563 0 5.438 0.875-0.5 1.688-0.938 2.5-1.375 0.688-0.438 1.313-0.813 1.938-1.25 0.25-0.125 0.5-0.375 0.563-0.625 0.438-1.563 0.813-3.188 1.188-4.75 0.188-0.938 0.75-1.313 1.625-1.063 0.563 0.125 0.875 0.938 0.688 1.625-0.188 0.875-0.438 1.813-0.688 2.875 0.75-0.375 1.375-0.75 2-1.063 0.375-0.188 0.75-0.438 1.125-0.625 0.688-0.313 1.313-0.063 1.688 0.563 0.313 0.563 0.125 1.125-0.625 1.563-0.938 0.563-1.875 1.125-3 1.75 1.063 0.313 1.938 0.625 2.813 0.875s1.375 0.813 1.25 1.438c-0.188 0.688-1.063 1.125-1.813 0.938-1-0.313-2-0.625-3-0.875-0.5-0.188-1-0.313-1.5-0.5-0.688-0.25-1.188 0.063-1.688 0.375-1.313 0.813-2.625 1.5-3.938 2.313 1.625 0.938 3.125 1.813 4.625 2.688 0.25 0.125 0.688 0.125 0.938 0.063 1.438-0.438 2.813-0.938 4.313-1.313 0.438-0.125 1.063-0.063 1.5 0.125 0.25 0.125 0.625 0.75 0.5 1-0.188 0.438-0.625 0.938-1.063 1.125-0.875 0.375-1.875 0.563-3 0.875 0.938 0.5 1.75 0.938 2.563 1.438 0.313 0.188 0.688 0.375 0.938 0.688 0.438 0.5 0.375 1.063-0.063 1.5-0.438 0.5-1 0.5-1.5 0.188-0.875-0.438-1.688-0.938-2.563-1.375-0.125-0.063-0.25-0.125-0.5-0.25 0.25 1 0.5 1.938 0.688 2.813 0.25 0.813-0.188 1.563-0.938 1.75-0.625 0.188-1.188-0.313-1.375-1.188-0.375-1.5-0.813-3.063-1.125-4.563-0.188-0.813-0.938-1-1.5-1.313-1.125-0.688-2.313-1.313-3.625-2.063 0 1.063 0.125 2.125 0 3.125-0.25 1.875 0.375 3.313 1.875 4.438 0.75 0.5 1.375 1.25 2.063 1.875 0.813 0.813 0.438 1.813-0.438 2.125-0.625 0.25-1-0.063-1.375-0.375-0.688-0.625-1.313-1.375-2.125-2.188 0 1.188 0.063 2.188 0 3.188 0 0.438-0.188 1.063-0.5 1.313-0.25 0.25-0.938 0.313-1.25 0.125-0.313-0.125-0.625-0.688-0.625-1.063-0.125-1.063-0.063-2.25-0.188-3.5-0.375 0.375-0.75 0.75-1.125 1.125-0.438 0.438-0.938 0.875-1.375 1.313-0.563 0.375-1.063 0.188-1.438-0.25s-0.5-1-0.063-1.5c0.375-0.438 0.813-0.875 1.25-1.313 0.938-0.875 1.813-1.813 2.75-2.688 0.063-0.125 0.188-0.313 0.188-0.438 0-1.75 0-3.5 0-5.375-1.063 0.563-1.938 1.063-2.875 1.625-0.375 0.188-0.688 0.563-1.125 0.625-1.063 0.375-1.188 1.188-1.375 2.125-0.313 1.313-0.688 2.625-1 3.938-0.188 0.625-0.938 1.125-1.5 0.938-0.688-0.25-1-0.938-0.813-1.688 0.25-0.938 0.438-1.813 0.688-2.75-0.063-0.125-0.063-0.125-0.125-0.188z"></path>
</svg>
