<!-- Generated by IcoMoon.io -->
<svg version="1.1" xmlns="http://www.w3.org/2000/svg" width="32" height="32" viewBox="0 0 32 32" fill="#262C57">
<path d="M16.125 26l-1.125 0.75-7.125 4.063c-0.563 0.25-1.188 0.125-1.5-0.438-0.125-0.25-0.125-0.5-0.125-0.75l1.75-9.5-6.938-6.563c-0.5-0.438-0.5-1.063-0.063-1.563 0.188-0.188 0.375-0.25 0.625-0.313l9.313-1.25 4-8.75c0.25-0.563 0.875-0.813 1.438-0.563 0.25 0.125 0.438 0.313 0.563 0.563l4.063 8.688 9.375 1.188c0.563 0.063 1 0.625 0.938 1.188-0.063 0.25-0.188 0.5-0.313 0.688l-6.875 6.625 1.875 9.5c0.063 0.563-0.313 1.125-0.875 1.25-0.25 0.063-0.563 0-0.75-0.125l-7.188-4z"></path>
</svg>
