<!-- Generated by IcoMoon.io -->
<svg version="1.1" xmlns="http://www.w3.org/2000/svg" width="32" height="32" viewBox="0 0 32 32">
<path d="M26.813 4.75h-9.188v-2.688c0-0.875-0.75-1.563-1.625-1.563s-1.625 0.688-1.625 1.625v2.625h-9.188c-0.938 0-1.625 0.688-1.625 1.625 0 0.875 0.688 1.563 1.625 1.563h21.625c0.938 0 1.625-0.688 1.625-1.563 0-0.938-0.688-1.625-1.625-1.625zM6.063 27.875c0 2 1.625 3.625 3.625 3.625h12.625c2 0 3.625-1.625 3.625-3.625v-17.938h-19.875zM20.188 13.188h2v14.5h-2zM15 13.188h2v14.5h-2zM9.813 13.188h2v14.5h-2z"></path>
</svg>
