<?xml version="1.0" encoding="UTF-8"?><svg id="Content" xmlns="http://www.w3.org/2000/svg" xmlns:xlink="http://www.w3.org/1999/xlink" viewBox="0 0 175.74 108.36"><defs><style>.cls-1{fill:#e09590;}.cls-2{clip-path:url(#clippath);}.cls-3{fill:#ffc9c5;}.cls-4{fill:none;}.cls-5{fill:#f2c1c0;}</style><clipPath id="clippath"><rect class="cls-4" x="-41.2" y="-28.69" width="217.34" height="197.81"/></clipPath><clipPath id="clippath-1"><rect class="cls-4" x="-275.57" y="-26.87" width="179.81" height="197.81"/></clipPath></defs><g class="cls-2"><path class="cls-5" d="m265.38,127.39c-24.77,0-48.46-16.2-66.19-45.74-18.93-31.53-59.2-29.37-59.61-29.34l-.49-7.72c1.84-.11,45.4-2.45,66.73,33.08,18.38,30.62,43.25,45.65,68.27,41.22,21.62-3.82,39.73-22.12,44.04-44.5,4.8-24.89,18.84-44.7,40.59-57.28,22.81-13.19,53.44-18.56,91.03-15.96l-.53,7.72c-70.38-4.86-114.23,18.92-123.5,66.99-4.91,25.45-25.59,46.28-50.29,50.65-3.36.59-6.72.89-10.06.89Z"/><path class="cls-5" d="m109.73,27.34h20.55v42.33h-20.55c-10.16,0-18.42-8.25-18.42-18.42v-5.49c0-10.16,8.25-18.42,18.42-18.42Z" transform="translate(221.27 97.73) rotate(-179.62)"/><polygon class="cls-5" points="124.32 56.24 138.44 54.72 138.54 39.48 124.44 37.77 124.32 56.24"/><rect class="cls-5" x="135.16" y="42.71" width="15.12" height="9.5" transform="translate(285.12 95.86) rotate(-179.62)"/><rect class="cls-5" x="147.68" y="38.84" width="2.21" height="6.8" transform="translate(297.29 85.46) rotate(-179.62)"/><rect class="cls-5" x="143.66" y="38.82" width="2.21" height="6.8" transform="translate(289.25 85.38) rotate(-179.62)"/><rect class="cls-5" x="139.64" y="38.79" width="2.21" height="6.8" transform="translate(281.22 85.3) rotate(-179.62)"/><rect class="cls-5" x="147.62" y="48.51" width="2.21" height="6.8" transform="translate(297.1 104.79) rotate(-179.62)"/><rect class="cls-5" x="143.6" y="48.48" width="2.21" height="6.8" transform="translate(289.06 104.71) rotate(-179.62)"/><rect class="cls-5" x="139.58" y="48.45" width="2.21" height="6.8" transform="translate(281.02 104.63) rotate(-179.62)"/><path class="cls-5" d="m51.55,15.48l29.02.19c.93,0,1.8.54,2.18,1.39,1.14,2.55,4.98,7.98,17.43,10.71,10.46,2.29,10.89,38.45.57,41.32-11.75,3.27-15.62,10.76-16.78,14.06-.34.97-1.26,1.61-2.29,1.6l-31.76-.21,1.63-69.07Z"/><path class="cls-1" d="m46.54,37.15l-40.32-.27c-2.78-.02-5.01-2.28-5-5.06h0c.02-2.78,2.28-5.01,5.06-5l40.32.27-.07,10.06Z"/><path class="cls-1" d="m46.31,71.38l-40.32-.27c-2.78-.02-5.01-2.28-5-5.06h0c.02-2.78,2.28-5.01,5.06-5l40.32.27-.07,10.06Z"/><path class="cls-3" d="m29.29,49.87c.13-20.33,5.33-36.95,12.84-38.56l.8-.15,17.07.11c.38,0,.76.1,1.11.26,1.46.66,2.25,2.26,2.08,3.85-.55,5.07-4.36,19.35-4.45,32.77-.09,14.14,3.49,31.29,3.9,36.73.1,1.4-.53,2.77-1.72,3.51-.45.28-.94.48-1.44.48l-17.07-.11h-.77c-7.48-1.71-12.49-18.56-12.36-38.89Z"/><path class="cls-1" d="m50.47,53.02l-20.95-.14s-.22-2.9-.21-3.86c0-1.05.31-4.2.31-4.2l20.91.14c2.23.01,4.02,1.83,4,4.06h0c-.01,2.23-1.83,4.02-4.06,4Z"/></g></svg>