<?xml version="1.0" encoding="UTF-8"?><svg id="Content" xmlns="http://www.w3.org/2000/svg" xmlns:xlink="http://www.w3.org/1999/xlink" viewBox="0 0 160.84 145.62"><defs><style>.cls-1{fill:#e09590;}.cls-2{clip-path:url(#clippath-1);}.cls-3{fill:#ffc9c5;}.cls-4{fill:none;}</style><clipPath id="clippath"><rect class="cls-4" x="234.52" y="-18.13" width="217.34" height="197.81"/></clipPath><clipPath id="clippath-1"><rect class="cls-4" x=".15" y="-16.31" width="179.81" height="197.81"/></clipPath></defs><g class="cls-2"><path class="cls-3" d="m-132.08,141.94c-6.98-1.33-14.17-4.04-20.87-8.44-12.11-7.96-31.91-28.05-28.41-73.18C-177.43,9.58-243.29.04-243.96-.05l1.04-7.67c.74.1,18.45,2.59,35.89,12.08,23.7,12.89,35.24,32.45,33.38,56.56-3.03,39.1,11.89,57.54,24.95,66.12,15.16,9.97,32.91,10.01,42.6,4.9,14.25-7.52,20-23.36,23.43-32.82.65-1.79,1.21-3.34,1.76-4.64,15.62-37.21,37.76-28.77,61.2-19.84,18.73,7.14,39.97,15.23,65.13,6.05l2.65,7.27c-27.87,10.18-51.53,1.16-70.54-6.08-24.06-9.17-38.58-14.71-51.31,15.6-.47,1.12-1,2.58-1.62,4.28-3.56,9.83-10.2,28.12-27.1,37.03-7.26,3.83-18.15,5.35-29.59,3.16Z"/><path class="cls-3" d="m114.52,36.88l-18.68,4.86c-1.78.46-3.15,1.81-3.75,3.55-1.04,3-4.24,8.05-14.05,12.83-9.61,4.68-1.61,38.08,9.06,38.2,10.46.11,15.99,4.53,18.53,7.52,1.35,1.59,3.49,2.26,5.5,1.73l21.03-5.47-17.65-63.21Z"/><path class="cls-3" d="m96.49,94.36l-18.26,4.75c-10.75,2.79-21.72-3.65-24.52-14.4h0c-2.79-10.75,3.65-21.72,14.4-24.52l18.26-4.75,10.12,38.91Z"/><polygon class="cls-3" points="61.26 90.26 47.22 92.32 43.58 78.31 56.84 73.27 61.26 90.26"/><rect class="cls-3" x="33.83" y="82.17" width="15.12" height="9.02" transform="translate(-20.48 13.2) rotate(-14.57)"/><rect class="cls-3" x="33.18" y="80.14" width="2.21" height="6.46" transform="translate(-19.87 11.31) rotate(-14.57)"/><rect class="cls-3" x="37.07" y="79.13" width="2.21" height="6.46" transform="translate(-19.5 12.26) rotate(-14.57)"/><rect class="cls-3" x="40.96" y="78.12" width="2.21" height="6.46" transform="translate(-19.12 13.2) rotate(-14.57)"/><rect class="cls-3" x="35.49" y="89.03" width="2.21" height="6.46" transform="translate(-22.03 12.18) rotate(-14.57)"/><rect class="cls-3" x="39.38" y="88.02" width="2.21" height="6.46" transform="translate(-21.66 13.12) rotate(-14.57)"/><rect class="cls-3" x="43.27" y="87" width="2.21" height="6.46" transform="translate(-21.27 14.07) rotate(-14.57)"/><path class="cls-1" d="m135.04,105.38c-7.81,2.03-18.51-13.14-23.91-33.88-5.39-20.74-3.43-39.2,4.38-41.23l16.52-4.3,19.52,75.1-16.79,4.37"/><path class="cls-3" d="m155.95,59.86c5.39,20.74,3.43,39.2-4.38,41.23-7.81,2.03-18.51-13.14-23.91-33.88-5.39-20.74-3.43-39.2,4.38-41.23,7.81-2.03,18.51,13.14,23.91,33.88Z"/><path class="cls-1" d="m138.71,63.85c1,3.86.4,7.36-1.35,7.81-1.75.46-3.98-2.31-4.99-6.17-1-3.86-.4-7.36,1.35-7.81,1.75-.46,3.98,2.31,4.99,6.17Z"/><path class="cls-1" d="m151.74,60.95c1,3.86.4,7.36-1.35,7.81-1.75.46-3.98-2.31-4.99-6.17-1-3.86-.4-7.36,1.35-7.81,1.75-.46,3.98,2.31,4.99,6.17Z"/></g></svg>