<?xml version="1.0" encoding="UTF-8"?>
<svg xmlns="http://www.w3.org/2000/svg" version="1.1" viewBox="0 0 74.89 311.3">
  <defs>
    <style>
      .cls-1 {
        fill: none;
      }

      .cls-2 {
        isolation: isolate;
      }

      .cls-3 {
        fill: #efd0bf;
        mix-blend-mode: multiply;
      }
    </style>
  </defs>
  <!-- Generator: Adobe Illustrator 28.7.1, SVG Export Plug-In . SVG Version: 1.2.0 Build 142)  -->
  <g class="cls-2">
    <g id="Content">
      <g>
        <path class="cls-1" d="M4.47,144.69c2.06,1.15.79,3.07-1.67,1.5-2.22-1.45-.88-2.94,1.67-1.5ZM25.79,61.94c-2.07.69-2.81-1.32-.81-1.6,2.13-.33,2.49,1.04.81,1.6ZM28.16,43.22c1.64,1.03.36,2.44-1.51,1.72-2.3-.88-.3-2.83,1.51-1.72ZM26.62,68.29c2.14,2.16-.92,2.74-2.38.74-1.05-1.44.44-2.7,2.38-.74ZM26.47,88.33c-1.22-.32-.5-1.86,1.14-2.03,1.97-.22,1.62,2.74-1.14,2.03ZM29.33,95.24c.87,1.4-.62,2.67-2.27.66-1.34-1.64.98-2.77,2.27-.66ZM28.16,102.55c.86,2.12-.9,2.23-1.62.75-.97-2.01.78-2.95,1.62-.75ZM27.1,125.97c-2.12-1.38-.72-2.71.56-2.02,1.89,1,.91,2.97-.56,2.02ZM27.18,197.45c2.25.54-.16,5.87-2.44,4.24-1.39-.99.79-4.64,2.44-4.24ZM30.17,164.96c2.75,1.47.81,3.93-2.09,1.61-1.29-1.03-.17-2.82,2.09-1.61ZM28.33,77.83c-2.29-1.11-.96-3.05.28-2.26,2.66,1.74,1.37,3.39-.28,2.26ZM26.81,112.61c1.59,1.52.11,3.09-1.53,1.14-1.07-1.28-.05-2.62,1.53-1.14ZM23.95,156.78c-2.26-.62-.68-2.53,1.1-1.94,1.93.61,1.06,2.52-1.1,1.94ZM22.03,148.22c-1.7-1.75-.59-3.16.78-2.21,1.68,1.16,1.15,4.18-.78,2.21ZM22.23,181.47c3.23,1.78,1.6,4.74-2.5,2.31-3.06-1.66-.83-4.14,2.5-2.31ZM16.27,194.37c-1.38-1.74,3.71-3.14,4.62-1.79.97,1.49-3.18,3.65-4.62,1.79ZM16.27,206.75c-2.51,2.67-4.54-.99-1.14-3.14,2.04-1.29,3.81.22,1.14,3.14ZM16.77,139.3c1.95,1.24.16,3.02-2.35,1.15-1.29-1-.44-2.94,2.35-1.15ZM14.95,112.34c1.93,1.73.93,3.77-.85,1.81-1.5-1.64-.18-2.74.85-1.81ZM17.67,71.02c1.76,1.3.99,3.41-.96,2.03-2.07-1.47-1.03-3.51.96-2.03ZM17.72,64c2.09,1.61,1.13,3.37-.66,2.14-2.3-1.57-1.27-3.64.66-2.14ZM17.05,167.69c-1.02-2.51,1.3-2.89,2.15-1.24,1.66,3.28-1.16,3.66-2.15,1.24ZM17.69,127.57c-1.64-1.27-.3-2.65,1.04-1.27,1.36,1.44.47,2.43-1.04,1.27ZM18.31,80.29c2.63-.33,2.95,1.76,1.16,2.16-2.18.46-3.19-1.91-1.16-2.16ZM17.96,55.59c-1.48-1.12.02-2.38,2.05-1.45,2.7,1.21-.05,2.96-2.05,1.45ZM17.93,47.68c-1.74-.38-1.82-2.21.04-1.98,2.25.29,2.67,2.54-.04,1.98ZM17.92,38.16c-.9,1.43-3.93-.51-2.87-1.95.75-1.02,3.41.55,2.87,1.95ZM15.86,93.71c1.76,2.63-.83,3.12-2.18.98-1.15-1.83.73-3.17,2.18-.98ZM14.2,149.47c2.29,2.03.42,4.1-2.03,1.72-2.43-2.38.1-3.46,2.03-1.72ZM11.8,219.28c2.59.08,2.66,2.73-.97,3.05-2.98.27-2.37-3.13.97-3.05ZM6.35,171.14c-2.06-2.13.63-3.95,3.42-1.44,2.73,2.49-.24,4.73-3.42,1.44ZM6.2,181.31c4.08,3.24,1.32,7.34-.92,3.62,0,0-.01-.02-.02-.02-1.97-2.64-.83-4.99.93-3.59ZM3.73,159.1c-2.82-1.56-1.39-3.02.99-1.86,2.41,1.23,1.3,3.14-.99,1.86ZM6.98,137.97c-1.37-1.05-.92-2.69,1.23-1.6,1.93.97,1.23,3.5-1.23,1.6ZM6.27,84.32c-2.47-1.85-1.11-4.26,1.52-2.19,2.08,1.63,1.31,4.34-1.52,2.19ZM10.61,64.14c1.52.85.98,2.43-.83,1.66-2.31-.97-1.25-2.83.83-1.66ZM5.21,47.4c-.82-1.11.09-3.01,2.36-1.56,2.59,1.65-.53,4.04-2.36,1.56ZM5.86,38.27c-2.31-.55-2.08-2.49-.04-2.15,3.36.58,1.49,2.51.04,2.15ZM5.13,108.44c2.07,1.17,2.06,4.09-.23,2.62-2.81-1.82-1.19-3.43.23-2.62ZM4.68,126.27c.77,1.51-.79,2.36-2.44.23-1.29-1.72,1.36-2.42,2.44-.23ZM2.9,229.08c-1.35,1.86-3.97,1.35-2.15-2.38,1.68-3.45,4.68-1.17,2.15,2.38ZM4.32,202.5c-2.36,1.11-3.67-1.17-.36-2.76,2.88-1.39,2.89,1.57.36,2.76ZM3.6,280.76c3.94,1.07,2.59,3.43-.5,2.66-3.07-.76-2.53-3.48.5-2.66ZM4.15,310.08c-2.22,2.72-5.57.41-2.52-2.13,2.98-2.48,5.11.19,2.52,2.13ZM7.64,298.03c-2.7,1.74-4.68.15-2.11-1.74,2.77-2.08,4.58.15,2.11,1.74ZM5.84,266.57c-1.86-2.52-.18-5.11,2.73-1.79,2.61,2.99-.59,4.67-2.73,1.79ZM11.06,237.94c-2.37-.69-1.78-3.13,1.85-2.84,3.8.32,2.13,4.01-1.85,2.84ZM17.81,247c1.73,1.41-1.43,3.91-3.65,2.98-3.32-1.44,1.88-4.42,3.65-2.98ZM16.15,274.71c3.78-.03,3.25,2.72.06,2.83-3.95.13-3.57-2.8-.06-2.83ZM15.78,289.21c-2.96-.09-2.9-2.85.93-2.45,2.76.28,3.16,2.53-.93,2.45ZM18.55,260.86c-2.27,2.09-4.05.46-2.78-1.07,2.57-3.05,4.66-.64,2.78,1.07ZM20.71,213.99c1.75-2.33,4.55-.38,2.39,2.34-1.96,2.46-5.4,1.61-2.39-2.34ZM21.25,227.86c1.3-2.66,3.29.41,2.35,2.75-.89,2.21-3.42-.56-2.35-2.75ZM27.58,239.34c.13,1.64-2.68,2.23-3.9,1.44-3.1-1.97,3.7-4,3.9-1.44ZM26.63,250.96c3.33.86,1.99,3.02-.02,3-3.34-.05-3.78-3.97.02-3ZM28.35,268.47c-3.1,2.7-5.76-.15-1.92-2.89,3.3-2.33,4.6.6,1.92,2.89ZM33.66,177.6c2.08,1.04.17,2.95-2.55,1.74-2.94-1.29-.29-3.16,2.55-1.74ZM34.86,66.72c.99,1.3.29,4.14-1.56,1.97-1.41-1.68-.06-4.09,1.56-1.97ZM34.24,58.65c2.17-.78,3.03.6,1.23,1.71-2.41,1.45-3.56-.85-1.23-1.71ZM34.61,102.94c2.16,1.35-.39,2.69-1.72,1.53-1.21-1.08-.18-2.73,1.72-1.53ZM34.54,126.99c-.7-2.19.78-2.66,1.67-1.31,1.22,1.93-.95,3.61-1.67,1.31ZM33.62,153.05c-2.03-.99-1.39-2.79.34-1.69,1.87,1.19,1.45,2.5-.34,1.69ZM37.28,162.19c1.17,1.32-.35,2.19-1.68.49-.81-1.03.15-2.22,1.68-.49ZM35.68,95.72c-.81-.42-1.11-1.79,1.17-1.93,2.28-.08.34,2.68-1.17,1.93ZM34.07,135.96c1.85,2.33-.18,3.47-1.35,1.89-1.24-1.67.28-3.24,1.35-1.89ZM32.12,205.42c3.35-2.24,5.13.33,3.37,1.9-3.49,3.08-6.29.04-3.37-1.9ZM36.52,234.12c-2.72,2.22-4.15-1.33-.85-2.65,1.85-.72,3.01.89.85,2.65ZM31.89,219.94c.65-3.85,4.6-3.78,3.39-.31-1.04,2.93-3.84,3.05-3.39.31ZM35.85,247.79c-2.58,1.26-4.13-1.17-1.03-2.97,3.01-1.73,4.32,1.34,1.03,2.97ZM35.15,192.62c-.58-.77,1.1-4.41,2.47-3.1,1.29,1.26-1.32,4.64-2.47,3.1ZM36.3,88.86c-2.17-.68-1.71-2.73.82-2.04,2.09.55,1.44,2.73-.82,2.04ZM36.62,78.53c-1.92-1.17-.71-3.31,1.25-1.44,1.45,1.37-.1,2.17-1.25,1.44ZM37.47,46.05c-2.11-.94-.99-3.03.85-2.08,2.49.56,1.6,3.15-.85,2.08ZM41.18,53.28c2.37.88,1.29,2.62-.22,2.24-3.05-.76-2.75-3.41.22-2.24ZM41.46,63.94c2.49,1.58.99,3-.94,1.79-2.01-1.25-.69-2.84.94-1.79ZM61.28,166.86c1.44,1.73.16,2.75-.95,2.06-2.58-1.63-.93-4.37.95-2.06ZM59.76,103.83c3.05.06,2.44,2.06.75,2.23-2.77.27-2.9-2.26-.75-2.23ZM59.81,136.27c-.49-2.3,1.31-3.04,1.97-.97,1.02,3.23-1.53,3.03-1.97.97ZM61.9,126.05c-2.01-1-1.22-3.27,1.21-1.7,1.85,1.22.01,2.3-1.21,1.7ZM64.43,108.93c1.9.51,2.28,1.98,1.25,2.34-2.2.77-3.16-2.84-1.25-2.34ZM65.38,118.36c2.31,0,2.32,1.71.58,1.85-1.61.15-2.25-1.83-.58-1.85ZM68.96,79.55c1.77.98.82,2.5-1.16,1.83-2.06-.71-.79-2.93,1.16-1.83ZM66.77,90.19c.07,1.18-1.89,1.27-3.01.05-2.44-2.67,2.9-2.12,3.01-.05ZM63.25,96.98c1.56,1.8-1.78,1.72-2.13.19-.26-1.11,1.24-1.2,2.13-.19ZM60.63,73.05c-1.78-1.32-1.02-3.01.09-2.75,2.28.52,2.7,4.76-.09,2.75ZM59.97,54.5c-1.2-2.55,1.75-2.86,1.96-.81.21,1.77-.96,2.96-1.96.81ZM57.77,63.04c-1.84-1.37-.43-2.76.94-1.97,2.27,1.31,1.41,3.73-.94,1.97ZM58.28,80.85c2.17,1.4.91,2.97-.34,2.23-1.88-1.1-1.33-3.28.34-2.23ZM57.14,110.82c2.2,1.03.95,2.59-.44,1.7-1.52-.98-.89-2.31.44-1.7ZM56.47,154.8c-1.35-1.74.02-3.39,1.1-2.27,1.44,1.5.24,4.01-1.1,2.27ZM55.98,120.56c-2.22-.47-2.3-3.31-.27-2.24,2.54,1.32,1.31,2.47.27,2.24ZM55.97,126.78c.9,2.23-3.12,1.37-3.25-.26-.12-1.52,2.75-1.02,3.25.26ZM42.07,139.83c-1.75-1.12-.91-3.29,1.05-1.58,1.79,1.57.67,3.14-1.05,1.58ZM41.25,107.65c-1.66-.48-1.2-2.56,1.24-2,1.48.35.2,2.43-1.24,2ZM43.91,149c.97.88.15,2.68-2.07,1.23-1.99-1.26-.05-3.16,2.07-1.23ZM44.73,197.47c1.78-2.96,4.6-1.71,2.28,1.95-1.35,2.13-4.1,1.1-2.28-1.95ZM50,58.42c-1.59-1.67-.14-3.93,1.73-1.37,1.38,1.92.06,3.24-1.73,1.37ZM49.38,68.64c-1.11-1.7.07-3.83,1.78-1.89,1.96,2.22-.51,3.82-1.78,1.89ZM48.47,51.41c-2.25-1.33-.04-2.96,1.91-1.47,1.59,1.25-.41,2.37-1.91,1.47ZM49.17,112.81c1.36,2.17-.66,3.26-1.64,1.33-1.02-1.95.63-2.98,1.64-1.33ZM45.36,84.39c-.98-1.35.05-2.71,1.4-1.43,1.89,1.82,0,3.34-1.4,1.43ZM44.98,128.81c-1.43-1.63-.18-3.03,1.47-1.19,1.57,1.75.12,3.01-1.47,1.19ZM46.02,168.57c-.6-1.58.79-2.59,2.01-.5.02.03.04.06.06.1,1.1,1.93-1.31,2.45-2.07.41ZM45.72,159.43c.2-.93,1.93-.67,2.92,0,2.47,1.69-3.37,2.16-2.92,0ZM48.03,150.74c-.67-1.32.38-1.97,1.28-.56,1.18,1.77-.48,2.14-1.28.56ZM50.75,105.22c1.72-.43,2.97,1.2.3,2.19-1.94.7-2.26-1.7-.3-2.19ZM53.69,139.76c1.86,1.88.86,3.62-1.46,1.65-2-1.74-.01-3.11,1.46-1.65ZM51.78,99.15c-2.17-.62-.22-2.37,1.65-1.9,1.37.35-.16,2.3-1.65,1.9ZM51.14,26.03c-2.91-.68-1.78-3.16.42-2.11,2.02.95,1.39,2.58-.42,2.11ZM48.6,44.25c-2.69.14-2.85-2.85-.51-2.19,1.77.51,2.03,2.11.51,2.19ZM46.9,73.61c2.16,1.59-.87,2.71-2.22.88-.75-1.02.55-2.14,2.22-.88ZM45.42,90.56c2.73.45-.4,3.44-2.1,2.07-1.04-.85.47-2.36,2.1-2.07ZM43.65,98.41c2.77.22,2.19,2.84-.06,2.13-2.41-.72-1.7-2.28.06-2.13ZM41.29,115.96c2.98.97,1.3,3.38-.84,1.6-1.57-1.31-.61-2.27.84-1.6ZM43.61,175.39c1.26,1.01.11,2.72-2.12,1.4-1.97-1.16-.08-3.12,2.12-1.4ZM44.48,223.54c-3.08,2.54-4.87.64-2.84-1.27,2.54-2.37,4.88-.39,2.84,1.27ZM48.51,209.9c-1.73,2.18-3.86.86-2.27-1.85,2.41-4.06,4.41-.84,2.27,1.85ZM51.64,186.36c-.28,2.78-2.64,2.76-2.67.98-.06-3.27,2.99-4.31,2.67-.98ZM51.48,179.49c-1.68-1.57,1.62-2.69,3.05-.39,1.28,2.08-1.24,2.09-3.05.39ZM53.47,171.82c-.74-.83.11-2.26,2.23-.73,1.58,1.12-.52,2.69-2.23.73ZM59.36,190.48c-1.74,2.82-4.46,1.54-2.28-1.78,2.13-3.24,4.17-1.28,2.28,1.78ZM60.87,178.57c-2.62.66-3.1-1.76-.46-2.03,1.9-.19,2.45,1.53.46,2.03ZM63.01,147.97c-1.36-1.64.47-3.12,2.04-.79.82,1.22-.42,2.76-2.04.79ZM65.17,161.15c-1.64-1.82.42-4.91,1.77-2.99,1.33,1.88-.29,4.62-1.77,2.99ZM67.96,142.21c-.7-1.36.2-2.75,1.27-1.68,2.29,2.31-.26,3.72-1.27,1.68ZM68.5,131.87c-1.88-1.7-.26-3.56,1.28-2.06,1.46,1.41.88,3.99-1.28,2.06ZM71.92,104.65c.95.85.24,2.39-1.57,1.7-2.15-.81-1.07-4.06,1.57-1.7ZM72.11,114.95c-1.91-.46-1.88-2.95-.54-2.65,1.97.44,2.41,3.09.54,2.65ZM73.18,89.62c1.57.34,2.4,3.11,1.01,3.55-1.71.55-2.73-3.92-1.01-3.55ZM72.45,74.42c1.09,1.53-.46,4.1-1.91,1.04-.77-1.62.68-2.75,1.91-1.04ZM70.37,97.28c.41,1.18-2.15,2.26-2.6,1.04-.27-.76,2.19-2.23,2.6-1.04ZM69.15,46.84c1.38.79,1.39,4.42-.23,3.64-2.1-1-1.35-4.53.23-3.64ZM68.06,54c1.98,1.48.52,3.4-.94,2-1.64-1.59-.36-2.97.94-2ZM68.05,63.13c.53,2.51-1.63,2.9-2.17.66-.48-1.96,1.65-2.9,2.17-.66ZM62.02,32.21c-1.32-1.56-.22-3.07,1.69-1.2,1.48,1.41.11,3.33-1.69,1.2ZM62.81,23.94c.51,1.99-1.28,2.35-2.03.54-.78-1.84,1.4-2.98,2.03-.54ZM62.39,38.57c.68,1.44-1.05,2.97-2.51.4-1.23-2.15,1.27-3.07,2.51-.4ZM57.99,44.96c2.79,1.12,2.1,2.85.61,2.65-2.62-.33-2.61-3.45-.61-2.65ZM55.15,88.85c1.97-.12,1.92,1.87-.08,2.18-2.21.36-2.45-2.03.08-2.18ZM52.68,12.42c1.9,1.71.38,2.9-1.17,1.89-2.29-1.52-.56-3.47,1.17-1.89ZM50.09,4.66c2.23,1.56.66,3.29-1.49,1.82-1.91-1.3-.63-3.3,1.49-1.82ZM48.74,32.92c1.83,1.04.06,2.58-1.78,1.72-2.24-1.04-.4-2.98,1.78-1.72ZM45.38,17.83c.65,2.23-1.6,2.81-2.96.64-1.74-2.75,1.93-4.14,2.96-.64ZM40.74,6.16c2.91.61,1.5,3.47-1.22,2.7-2.07-.57-2.26-3.44,1.22-2.7ZM39.32,24.92c2.53,1.4.21,2.85-1.79,1.59-1.75-1.12-.23-2.72,1.79-1.59ZM35.92,35.31c1.74.4.76,2.64-1.64,2.37-2.1-.51-.1-2.77,1.64-2.37ZM34.14.93c1.95,1.09-1.17,3.14-2.99,1.74-1.55-1.17,1.15-2.79,2.99-1.74ZM33.33,13.93c.81,1.32-.21,2.4-1.96,1.33-2.83-1.69-.15-4.73,1.96-1.33ZM30.15,52.79c-2.47,1.41-3.75-.42-2.15-1.25,2.27-1.16,3.63.39,2.15,1.25ZM26.42,26.61c-2.97-.58-.78-3.06,1.95-2.18,2.24.72.83,2.73-1.95,2.18ZM28.27,6.38c1.98,1.47-2.08,2.96-3.17,1.15-.9-1.5,1.86-2.11,3.17-1.15ZM24.97,33.49c2.31-.26,2.6,1.81.58,2-2.99.29-2.32-1.81-.58-2ZM23.82,137.74c2.37,1.13.82,3.25-1.33,1.91-1.53-.95-.29-2.67,1.33-1.91ZM20.79,92.85c-2.62-1.7-1.92-3.62.19-2.53,2.35,1.22,1.36,3.51-.19,2.53ZM19.8,16.15c-3.16-1.27-1.46-4.23,1.35-2.28,2.13,1.49.41,3-1.35,2.28ZM21.48.62c1.55,1.73-2.79,2.72-3.58,1.25-.91-1.65,2.2-2.56,3.58-1.25ZM17.87,24.09c1.99,1.49,1.23,4.52-1.15,2.84-2.39-1.7-1.12-4.5,1.15-2.84ZM15.24,6.47c2.32,1.42-.91,3.39-2.74,1.5-1.23-1.24.57-2.82,2.74-1.5ZM9.54,125.16c-.39-2.12,1.38-3.07,2.24-.8,1.2,3.2-1.65,3.91-2.24.8ZM10.81,58.55c-2.8.35-2.77-1.5-1.06-1.71,2.49-.3,2.93,1.51,1.06,1.71ZM8.07,30.81c-1.99-.74-1.96-2.95.63-2.67,3.96.48,2.96,4.01-.63,2.67ZM9.78,17.34c2.09.66,1.21,2.6-1.03,2.47-2.64-.15-2.08-3.46,1.03-2.47ZM6.23.35c2.69.94.55,3.81-2.01,2.5C2.17,1.82,3.43-.63,6.23.35ZM5.43,8.73c1.3.95.89,3.23-2.14,1.45-.88-.53-.88-3.54,2.14-1.45ZM3.91,70.4c1.04,2.33-2.54,1.49-2.52-.4.01-1.55,1.88-.96,2.52.4Z"/>
        <path class="cls-3" d="M23.61,230.61c.94-2.34-1.06-5.41-2.35-2.75-1.07,2.19,1.46,4.96,2.35,2.75Z"/>
        <path class="cls-3" d="M23.1,216.33c2.15-2.72-.64-4.67-2.39-2.34-3.01,3.95.43,4.8,2.39,2.34Z"/>
        <path class="cls-3" d="M15.76,259.79c-1.27,1.53.51,3.16,2.78,1.07,1.87-1.71-.22-4.12-2.78-1.07Z"/>
        <path class="cls-3" d="M16.71,286.76c-3.83-.4-3.89,2.36-.93,2.45,4.09.08,3.69-2.17.93-2.45Z"/>
        <path class="cls-3" d="M33.3,68.7c1.85,2.17,2.55-.67,1.56-1.97-1.62-2.11-2.97.29-1.56,1.97Z"/>
        <path class="cls-3" d="M26.43,265.59c-3.84,2.74-1.18,5.59,1.92,2.89,2.68-2.29,1.37-5.22-1.92-2.89Z"/>
        <path class="cls-3" d="M16.21,277.54c3.18-.11,3.72-2.86-.06-2.83-3.51.03-3.88,2.96.06,2.83Z"/>
        <path class="cls-3" d="M33.66,177.6c-2.84-1.42-5.49.44-2.55,1.74,2.72,1.21,4.63-.7,2.55-1.74Z"/>
        <path class="cls-3" d="M26.63,250.96c-3.8-.97-3.36,2.95-.02,3,2.01.02,3.34-2.14.02-3Z"/>
        <path class="cls-3" d="M27.58,239.34c-.19-2.56-6.99-.53-3.9,1.44,1.22.79,4.03.2,3.9-1.44Z"/>
        <path class="cls-3" d="M.75,226.7c-1.82,3.73.8,4.25,2.15,2.38,2.53-3.55-.47-5.84-2.15-2.38Z"/>
        <path class="cls-3" d="M3.96,199.75c-3.31,1.59-2,3.87.36,2.76,2.54-1.18,2.53-4.15-.36-2.76Z"/>
        <path class="cls-3" d="M2.24,126.51c1.65,2.12,3.21,1.27,2.44-.23-1.09-2.19-3.73-1.49-2.44.23Z"/>
        <path class="cls-3" d="M4.91,111.06c2.29,1.47,2.29-1.45.23-2.62-1.42-.81-3.04.8-.23,2.62Z"/>
        <path class="cls-3" d="M17.81,247c-1.77-1.45-6.97,1.54-3.65,2.98,2.22.93,5.38-1.57,3.65-2.98Z"/>
        <path class="cls-3" d="M3.1,283.42c3.09.77,4.44-1.59.5-2.66-3.04-.82-3.57,1.91-.5,2.66Z"/>
        <path class="cls-3" d="M1.63,307.95c-3.05,2.54.3,4.85,2.52,2.13,2.59-1.95.46-4.61-2.52-2.13Z"/>
        <path class="cls-3" d="M12.91,235.1c-3.63-.29-4.23,2.14-1.85,2.84,3.98,1.17,5.65-2.52,1.85-2.84Z"/>
        <path class="cls-3" d="M5.84,266.57c2.14,2.88,5.34,1.2,2.73-1.79-2.91-3.32-4.59-.73-2.73,1.79Z"/>
        <path class="cls-3" d="M5.53,296.29c-2.57,1.88-.58,3.48,2.11,1.74,2.47-1.59.65-3.82-2.11-1.74Z"/>
        <path class="cls-3" d="M5.82,36.12c-2.03-.34-2.27,1.6.04,2.15,1.45.36,3.32-1.57-.04-2.15Z"/>
        <path class="cls-3" d="M38.32,43.97c-1.84-.95-2.96,1.14-.85,2.08,2.45,1.07,3.34-1.52.85-2.08Z"/>
        <path class="cls-3" d="M35.15,192.62c1.15,1.54,3.76-1.84,2.47-3.1-1.37-1.31-3.04,2.33-2.47,3.1Z"/>
        <path class="cls-3" d="M41.18,53.28c-2.97-1.16-3.27,1.49-.22,2.24,1.51.37,2.58-1.36.22-2.24Z"/>
        <path class="cls-3" d="M36.62,78.53c1.15.72,2.7-.07,1.25-1.44-1.97-1.86-3.17.27-1.25,1.44Z"/>
        <path class="cls-3" d="M35.47,60.36c1.8-1.11.93-2.49-1.23-1.71-2.33.86-1.17,3.16,1.23,1.71Z"/>
        <path class="cls-3" d="M40.52,65.72c1.93,1.21,3.42-.21.94-1.79-1.63-1.05-2.95.54-.94,1.79Z"/>
        <path class="cls-3" d="M61.79,135.3c-.66-2.07-2.47-1.33-1.97.97.44,2.06,3,2.26,1.97-.97Z"/>
        <path class="cls-3" d="M63.11,124.35c-2.43-1.58-3.22.7-1.21,1.7,1.22.6,3.06-.48,1.21-1.7Z"/>
        <path class="cls-3" d="M60.34,168.92c1.11.7,2.39-.33.95-2.06-1.87-2.31-3.52.43-.95,2.06Z"/>
        <path class="cls-3" d="M60.51,106.05c1.69-.17,2.3-2.17-.75-2.23-2.16-.04-2.02,2.5.75,2.23Z"/>
        <path class="cls-3" d="M37.12,86.82c-2.53-.69-2.99,1.35-.82,2.04,2.26.69,2.91-1.49.82-2.04Z"/>
        <path class="cls-3" d="M37.28,162.19c-1.53-1.73-2.49-.54-1.68.49,1.33,1.7,2.85.82,1.68-.49Z"/>
        <path class="cls-3" d="M33.96,151.36c-1.73-1.09-2.37.7-.34,1.69,1.8.8,2.21-.5.34-1.69Z"/>
        <path class="cls-3" d="M36.85,93.8c-2.28.14-1.97,1.51-1.17,1.93,1.5.75,3.44-2,1.17-1.93Z"/>
        <path class="cls-3" d="M32.88,104.47c1.33,1.16,3.89-.18,1.72-1.53-1.9-1.2-2.94.45-1.72,1.53Z"/>
        <path class="cls-3" d="M36.21,125.69c-.88-1.35-2.37-.88-1.67,1.31.72,2.3,2.89.62,1.67-1.31Z"/>
        <path class="cls-3" d="M35.27,219.63c1.21-3.47-2.73-3.54-3.39.31-.45,2.74,2.35,2.62,3.39-.31Z"/>
        <path class="cls-3" d="M36.52,234.12c2.15-1.75,1-3.36-.85-2.65-3.3,1.32-1.87,4.87.85,2.65Z"/>
        <path class="cls-3" d="M34.82,244.83c-3.1,1.8-1.55,4.23,1.03,2.97,3.29-1.62,1.98-4.7-1.03-2.97Z"/>
        <path class="cls-3" d="M32.72,137.85c1.17,1.58,3.2.44,1.35-1.89-1.07-1.35-2.59.22-1.35,1.89Z"/>
        <path class="cls-3" d="M35.48,207.31c1.76-1.57-.01-4.13-3.37-1.9-2.92,1.94-.12,4.98,3.37,1.9Z"/>
        <path class="cls-3" d="M10.61,64.14c-2.09-1.17-3.15.69-.83,1.66,1.81.76,2.36-.81.83-1.66Z"/>
        <path class="cls-3" d="M24.74,201.68c2.28,1.64,4.69-3.7,2.44-4.24-1.65-.4-3.83,3.25-2.44,4.24Z"/>
        <path class="cls-3" d="M27.1,125.97c1.47.95,2.45-1.02.56-2.02-1.28-.68-2.68.65-.56,2.02Z"/>
        <path class="cls-3" d="M27.62,86.3c-1.64.17-2.37,1.71-1.14,2.03,2.77.71,3.12-2.25,1.14-2.03Z"/>
        <path class="cls-3" d="M27.06,95.91c1.65,2,3.14.73,2.27-.66-1.29-2.1-3.61-.97-2.27.66Z"/>
        <path class="cls-3" d="M28.16,102.55c-.84-2.2-2.59-1.26-1.62.75.71,1.48,2.48,1.37,1.62-.75Z"/>
        <path class="cls-3" d="M30.17,164.96c-2.26-1.21-3.38.58-2.09,1.61,2.9,2.32,4.84-.14,2.09-1.61Z"/>
        <path class="cls-3" d="M28.61,75.57c-1.24-.79-2.57,1.16-.28,2.26,1.65,1.12,2.94-.52.28-2.26Z"/>
        <path class="cls-3" d="M23.95,156.78c2.16.58,3.03-1.33,1.1-1.94-1.79-.59-3.37,1.32-1.1,1.94Z"/>
        <path class="cls-3" d="M22.81,146.01c-1.37-.95-2.48.46-.78,2.21,1.92,1.97,2.46-1.05.78-2.21Z"/>
        <path class="cls-3" d="M26.81,112.61c-1.58-1.48-2.59-.13-1.53,1.14,1.64,1.95,3.11.37,1.53-1.14Z"/>
        <path class="cls-3" d="M0,212.72v3.63c.45-.07.97-.34,1.47-.88,2.49-2.68.53-4.59-1.47-2.75Z"/>
        <path class="cls-3" d="M1.32,191.5c-.46-.57-.91-.95-1.32-1.19v3.38c1.69.88,2.99-.22,1.32-2.19Z"/>
        <path class="cls-3" d="M26.62,68.29c-1.94-1.96-3.43-.7-2.38.74,1.46,2.01,4.52,1.43,2.38-.74Z"/>
        <path class="cls-3" d="M.32,65.42c-.11-.09-.21-.18-.32-.25v2.12c.91.15,1.53-.79.32-1.88Z"/>
        <path class="cls-3" d="M0,54.56v.06s0-.04,0-.06Z"/>
        <path class="cls-3" d="M0,24.49v2.46c.59-.31.84-1.26,0-2.46Z"/>
        <path class="cls-3" d="M19.73,183.78c4.1,2.42,5.73-.53,2.5-2.31-3.34-1.83-5.57.65-2.5,2.31Z"/>
        <path class="cls-3" d="M25.79,61.94c1.67-.56,1.32-1.93-.81-1.6-1.99.28-1.25,2.29.81,1.6Z"/>
        <path class="cls-3" d="M26.65,44.94c1.86.72,3.15-.7,1.51-1.72-1.81-1.1-3.81.85-1.51,1.72Z"/>
        <path class="cls-3" d="M2.68,253.25c2.52-.45,3.03-2.98.13-3.11-1.45-.06-2.39.46-2.81,1.09v1.43c.39.52,1.26.84,2.68.59Z"/>
        <path class="cls-3" d="M2.8,146.19c2.47,1.57,3.74-.35,1.67-1.5-2.56-1.43-3.89.06-1.67,1.5Z"/>
        <path class="cls-3" d="M17.98,45.7c-1.86-.23-1.78,1.6-.04,1.98,2.71.56,2.3-1.69.04-1.98Z"/>
        <path class="cls-3" d="M6.35,171.14c3.18,3.28,6.15,1.05,3.42-1.44-2.79-2.51-5.49-.68-3.42,1.44Z"/>
        <path class="cls-3" d="M10.82,222.33c3.63-.31,3.56-2.97.97-3.05-3.34-.08-3.95,3.31-.97,3.05Z"/>
        <path class="cls-3" d="M5.29,184.93c2.24,3.72,5-.38.92-3.62-1.76-1.4-2.9.95-.93,3.59,0,0,.01.02.02.02Z"/>
        <path class="cls-3" d="M12.16,151.18c2.45,2.38,4.32.31,2.03-1.72-1.93-1.74-4.46-.66-2.03,1.72Z"/>
        <path class="cls-3" d="M13.68,94.68c1.35,2.15,3.94,1.66,2.18-.98-1.45-2.19-3.33-.85-2.18.98Z"/>
        <path class="cls-3" d="M65.68,111.27c1.03-.36.65-1.83-1.25-2.34-1.91-.5-.95,3.11,1.25,2.34Z"/>
        <path class="cls-3" d="M7.79,82.13c-2.64-2.07-3.99.34-1.52,2.19,2.83,2.15,3.6-.56,1.52-2.19Z"/>
        <path class="cls-3" d="M15.06,36.2c-1.06,1.44,1.96,3.38,2.87,1.95.55-1.4-2.11-2.98-2.87-1.95Z"/>
        <path class="cls-3" d="M4.72,157.24c-2.38-1.16-3.81.3-.99,1.86,2.29,1.28,3.4-.63.99-1.86Z"/>
        <path class="cls-3" d="M8.2,136.37c-2.15-1.09-2.6.55-1.23,1.6,2.46,1.9,3.15-.63,1.23-1.6Z"/>
        <path class="cls-3" d="M17.69,127.57c1.51,1.16,2.39.17,1.04-1.27-1.34-1.39-2.68,0-1.04,1.27Z"/>
        <path class="cls-3" d="M17.05,66.14c1.8,1.23,2.75-.53.66-2.14-1.93-1.51-2.97.57-.66,2.14Z"/>
        <path class="cls-3" d="M16.71,73.05c1.95,1.38,2.72-.73.96-2.03-1.99-1.48-3.03.56-.96,2.03Z"/>
        <path class="cls-3" d="M14.95,112.34c-1.03-.94-2.35.17-.85,1.81,1.78,1.96,2.78-.08.85-1.81Z"/>
        <path class="cls-3" d="M15.13,203.6c-3.39,2.15-1.36,5.81,1.14,3.14,2.66-2.92.9-4.43-1.14-3.14Z"/>
        <path class="cls-3" d="M17.05,167.69c.99,2.43,3.81,2.04,2.15-1.24-.85-1.66-3.17-1.27-2.15,1.24Z"/>
        <path class="cls-3" d="M20.01,54.14c-2.03-.93-3.53.33-2.05,1.45,2,1.51,4.74-.24,2.05-1.45Z"/>
        <path class="cls-3" d="M18.31,80.29c-2.03.25-1.01,2.62,1.16,2.16,1.79-.4,1.47-2.49-1.16-2.16Z"/>
        <path class="cls-3" d="M7.57,45.84c-2.27-1.45-3.18.45-2.36,1.56,1.83,2.49,4.95.09,2.36-1.56Z"/>
        <path class="cls-3" d="M20.89,192.58c-.91-1.36-6,.05-4.62,1.79,1.44,1.86,5.59-.3,4.62-1.79Z"/>
        <path class="cls-3" d="M14.42,140.45c2.51,1.87,4.3.09,2.35-1.15-2.79-1.79-3.64.15-2.35,1.15Z"/>
        <path class="cls-3" d="M58.6,47.61c1.49.2,2.18-1.53-.61-2.65-2-.8-2.01,2.32.61,2.65Z"/>
        <path class="cls-3" d="M55.07,91.03c2-.32,2.05-2.3.08-2.18-2.54.16-2.29,2.54-.08,2.18Z"/>
        <path class="cls-3" d="M62.02,32.21c1.8,2.12,3.17.21,1.69-1.2-1.91-1.87-3.02-.36-1.69,1.2Z"/>
        <path class="cls-3" d="M51.51,14.31c1.54,1.01,3.07-.18,1.17-1.89-1.72-1.58-3.46.38-1.17,1.89Z"/>
        <path class="cls-3" d="M62.81,23.94c-.62-2.44-2.8-1.29-2.03.54.75,1.81,2.54,1.44,2.03-.54Z"/>
        <path class="cls-3" d="M62.39,38.57c-1.25-2.67-3.75-1.74-2.51.4,1.47,2.57,3.19,1.04,2.51-.4Z"/>
        <path class="cls-3" d="M42.42,18.46c1.36,2.17,3.61,1.59,2.96-.64-1.03-3.51-4.69-2.11-2.96.64Z"/>
        <path class="cls-3" d="M39.52,8.87c2.72.76,4.13-2.09,1.22-2.7-3.48-.74-3.29,2.13-1.22,2.7Z"/>
        <path class="cls-3" d="M46.97,34.64c1.83.86,3.6-.68,1.78-1.72-2.17-1.25-4.02.69-1.78,1.72Z"/>
        <path class="cls-3" d="M48.6,6.49c2.14,1.46,3.72-.26,1.49-1.82-2.12-1.47-3.4.52-1.49,1.82Z"/>
        <path class="cls-3" d="M68.91,50.47c1.62.79,1.61-2.85.23-3.64-1.59-.89-2.33,2.63-.23,3.64Z"/>
        <path class="cls-3" d="M74.18,93.17c1.39-.44.56-3.21-1.01-3.55-1.72-.36-.7,4.1,1.01,3.55Z"/>
        <path class="cls-3" d="M71.92,104.65c-2.64-2.37-3.72.89-1.57,1.7,1.82.69,2.52-.85,1.57-1.7Z"/>
        <path class="cls-3" d="M71.56,112.3c-1.34-.3-1.37,2.19.54,2.65,1.87.45,1.43-2.21-.54-2.65Z"/>
        <path class="cls-3" d="M68.5,131.87c2.16,1.93,2.74-.65,1.28-2.06-1.54-1.5-3.16.36-1.28,2.06Z"/>
        <path class="cls-3" d="M68.05,63.13c-.53-2.24-2.65-1.3-2.17.66.55,2.24,2.71,1.85,2.17-.66Z"/>
        <path class="cls-3" d="M67.96,142.21c1.01,2.04,3.56.63,1.27-1.68-1.07-1.08-1.97.31-1.27,1.68Z"/>
        <path class="cls-3" d="M37.53,26.51c2,1.26,4.32-.19,1.79-1.59-2.02-1.13-3.54.47-1.79,1.59Z"/>
        <path class="cls-3" d="M68.06,54c-1.3-.97-2.58.41-.94,2,1.46,1.39,2.92-.52.94-2Z"/>
        <path class="cls-3" d="M67.77,98.32c.45,1.22,3.01.15,2.6-1.04-.41-1.2-2.87.28-2.6,1.04Z"/>
        <path class="cls-3" d="M72.45,74.42c-1.22-1.71-2.68-.58-1.91,1.04,1.45,3.06,3,.49,1.91-1.04Z"/>
        <path class="cls-3" d="M65.96,120.21c1.74-.14,1.73-1.86-.58-1.85-1.67.02-1.03,2.01.58,1.85Z"/>
        <path class="cls-3" d="M65.17,161.15c1.48,1.63,3.09-1.11,1.77-2.99-1.35-1.92-3.41,1.17-1.77,2.99Z"/>
        <path class="cls-3" d="M21.48.62c-1.38-1.31-4.49-.4-3.58,1.25.79,1.47,5.13.48,3.58-1.25Z"/>
        <path class="cls-3" d="M9.75,56.84c-1.71.21-1.74,2.06,1.06,1.71,1.86-.21,1.42-2.01-1.06-1.71Z"/>
        <path class="cls-3" d="M16.72,26.93c2.38,1.68,3.15-1.35,1.15-2.84-2.27-1.66-3.54,1.15-1.15,2.84Z"/>
        <path class="cls-3" d="M15.24,6.47c-2.16-1.32-3.96.26-2.74,1.5,1.83,1.89,5.06-.07,2.74-1.5Z"/>
        <path class="cls-3" d="M8.7,28.15c-2.59-.28-2.63,1.92-.63,2.67,3.59,1.34,4.59-2.19.63-2.67Z"/>
        <path class="cls-3" d="M3.29,10.17c3.02,1.79,3.44-.5,2.14-1.45-3.02-2.1-3.02.91-2.14,1.45Z"/>
        <path class="cls-3" d="M3.91,70.4c-.65-1.36-2.51-1.95-2.52-.4-.01,1.89,3.56,2.73,2.52.4Z"/>
        <path class="cls-3" d="M4.22,2.85c2.57,1.31,4.71-1.57,2.01-2.5-2.8-.98-4.06,1.47-2.01,2.5Z"/>
        <path class="cls-3" d="M8.75,19.81c2.24.12,3.11-1.81,1.03-2.47-3.11-.99-3.67,2.32-1.03,2.47Z"/>
        <path class="cls-3" d="M9.54,125.16c.59,3.11,3.44,2.4,2.24-.8-.86-2.27-2.63-1.32-2.24.8Z"/>
        <path class="cls-3" d="M31.37,15.26c1.75,1.08,2.77,0,1.96-1.33-2.1-3.4-4.79-.37-1.96,1.33Z"/>
        <path class="cls-3" d="M30.15,52.79c1.48-.86.12-2.42-2.15-1.25-1.6.83-.32,2.66,2.15,1.25Z"/>
        <path class="cls-3" d="M26.42,26.61c2.78.54,4.19-1.47,1.95-2.18-2.74-.88-4.92,1.6-1.95,2.18Z"/>
        <path class="cls-3" d="M31.15,2.67c1.82,1.4,4.95-.65,2.99-1.74-1.84-1.04-4.54.58-2.99,1.74Z"/>
        <path class="cls-3" d="M21.15,13.87c-2.81-1.95-4.51,1.01-1.35,2.28,1.76.71,3.48-.8,1.35-2.28Z"/>
        <path class="cls-3" d="M22.49,139.65c2.15,1.34,3.7-.78,1.33-1.91-1.61-.76-2.86.95-1.33,1.91Z"/>
        <path class="cls-3" d="M20.98,90.32c-2.11-1.09-2.81.83-.19,2.53,1.55.99,2.54-1.31.19-2.53Z"/>
        <path class="cls-3" d="M28.27,6.38c-1.31-.96-4.07-.35-3.17,1.15,1.09,1.81,5.15.31,3.17-1.15Z"/>
        <path class="cls-3" d="M25.56,35.49c2.02-.19,1.73-2.26-.58-2-1.74.19-2.41,2.29.58,2Z"/>
        <path class="cls-3" d="M34.28,37.68c2.39.26,3.38-1.97,1.64-2.37-1.74-.4-3.74,1.86-1.64,2.37Z"/>
        <path class="cls-3" d="M51.73,57.05c-1.87-2.56-3.32-.3-1.73,1.37,1.79,1.87,3.11.55,1.73-1.37Z"/>
        <path class="cls-3" d="M41.84,150.23c2.22,1.46,3.04-.35,2.07-1.23-2.12-1.94-4.06-.03-2.07,1.23Z"/>
        <path class="cls-3" d="M52.72,126.53c.13,1.62,4.15,2.49,3.25.26-.51-1.27-3.37-1.77-3.25-.26Z"/>
        <path class="cls-3" d="M42.5,105.65c-2.45-.57-2.9,1.52-1.24,2,1.45.43,2.73-1.65,1.24-2Z"/>
        <path class="cls-3" d="M42.07,139.83c1.71,1.56,2.84-.01,1.05-1.58-1.95-1.7-2.79.46-1.05,1.58Z"/>
        <path class="cls-3" d="M47.01,199.42c2.32-3.66-.5-4.91-2.28-1.95-1.82,3.05.93,4.08,2.28,1.95Z"/>
        <path class="cls-3" d="M47.54,114.15c.98,1.93,3,.84,1.64-1.33-1-1.64-2.65-.62-1.64,1.33Z"/>
        <path class="cls-3" d="M45.36,84.39c1.39,1.91,3.29.39,1.4-1.43-1.35-1.28-2.38.08-1.4,1.43Z"/>
        <path class="cls-3" d="M49.38,68.64c1.26,1.93,3.74.34,1.78-1.89-1.71-1.95-2.88.19-1.78,1.89Z"/>
        <path class="cls-3" d="M50.38,49.93c-1.94-1.49-4.16.15-1.91,1.47,1.5.9,3.5-.22,1.91-1.47Z"/>
        <path class="cls-3" d="M60.71,70.3c-1.1-.26-1.87,1.43-.09,2.75,2.78,2.01,2.37-2.23.09-2.75Z"/>
        <path class="cls-3" d="M44.98,128.81c1.59,1.83,3.03.56,1.47-1.19-1.65-1.84-2.89-.45-1.47,1.19Z"/>
        <path class="cls-3" d="M55.98,120.56c1.04.23,2.27-.92-.27-2.24-2.03-1.07-1.95,1.77.27,2.24Z"/>
        <path class="cls-3" d="M68.96,79.55c-1.95-1.1-3.22,1.12-1.16,1.83,1.98.67,2.93-.85,1.16-1.83Z"/>
        <path class="cls-3" d="M59.97,54.5c1,2.14,2.17.96,1.96-.81-.21-2.05-3.16-1.74-1.96.81Z"/>
        <path class="cls-3" d="M63.77,90.25c1.12,1.21,3.07,1.12,3.01-.05-.11-2.06-5.45-2.61-3.01.05Z"/>
        <path class="cls-3" d="M61.12,97.17c.35,1.53,3.7,1.61,2.13-.19-.89-1.01-2.4-.93-2.13.19Z"/>
        <path class="cls-3" d="M56.7,112.52c1.38.89,2.64-.66.44-1.7-1.33-.61-1.96.71-.44,1.7Z"/>
        <path class="cls-3" d="M56.47,154.8c1.33,1.74,2.54-.77,1.1-2.27-1.08-1.12-2.45.53-1.1,2.27Z"/>
        <path class="cls-3" d="M57.94,83.09c1.25.74,2.51-.83.34-2.23-1.67-1.04-2.22,1.13-.34,2.23Z"/>
        <path class="cls-3" d="M58.72,61.07c-1.37-.8-2.79.6-.94,1.97,2.35,1.76,3.21-.66.94-1.97Z"/>
        <path class="cls-3" d="M60.4,176.54c-2.63.28-2.16,2.69.46,2.03,1.99-.51,1.44-2.22-.46-2.03Z"/>
        <path class="cls-3" d="M41.64,222.28c-2.04,1.9-.24,3.8,2.84,1.27,2.04-1.66-.3-3.63-2.84-1.27Z"/>
        <path class="cls-3" d="M46.24,208.05c-1.58,2.71.54,4.03,2.27,1.85,2.13-2.69.13-5.91-2.27-1.85Z"/>
        <path class="cls-3" d="M43.59,100.54c2.24.71,2.82-1.91.06-2.13-1.76-.15-2.46,1.42-.06,2.13Z"/>
        <path class="cls-3" d="M48.98,187.34c.03,1.78,2.39,1.8,2.67-.98.32-3.33-2.73-2.29-2.67.98Z"/>
        <path class="cls-3" d="M41.29,115.96c-1.44-.67-2.41.29-.84,1.6,2.14,1.78,3.81-.64.84-1.6Z"/>
        <path class="cls-3" d="M41.49,176.79c2.23,1.32,3.38-.39,2.12-1.4-2.2-1.72-4.09.25-2.12,1.4Z"/>
        <path class="cls-3" d="M51.48,179.49c1.81,1.7,4.33,1.7,3.05-.39-1.43-2.31-4.73-1.18-3.05.39Z"/>
        <path class="cls-3" d="M65.06,147.18c-1.57-2.34-3.4-.85-2.04.79,1.62,1.97,2.86.43,2.04-.79Z"/>
        <path class="cls-3" d="M48.08,168.16s-.04-.07-.06-.1c-1.21-2.08-2.6-1.07-2.01.5.75,2.05,3.17,1.52,2.07-.41Z"/>
        <path class="cls-3" d="M55.7,171.09c-2.13-1.53-2.98-.1-2.23.73,1.71,1.95,3.82.39,2.23-.73Z"/>
        <path class="cls-3" d="M57.08,188.71c-2.18,3.32.54,4.6,2.28,1.78,1.89-3.06-.15-5.01-2.28-1.78Z"/>
        <path class="cls-3" d="M49.31,150.18c-.9-1.41-1.95-.75-1.28.56.8,1.57,2.46,1.21,1.28-.56Z"/>
        <path class="cls-3" d="M52.23,141.41c2.31,1.97,3.32.23,1.46-1.65-1.47-1.46-3.46-.09-1.46,1.65Z"/>
        <path class="cls-3" d="M51.05,107.4c2.67-.98,1.42-2.61-.3-2.19-1.96.49-1.65,2.88.3,2.19Z"/>
        <path class="cls-3" d="M43.32,92.63c1.7,1.38,4.83-1.61,2.1-2.07-1.63-.29-3.14,1.22-2.1,2.07Z"/>
        <path class="cls-3" d="M48.64,159.43c-.99-.67-2.71-.92-2.92,0-.46,2.15,5.39,1.69,2.92,0Z"/>
        <path class="cls-3" d="M48.09,42.07c-2.34-.66-2.18,2.32.51,2.19,1.52-.08,1.26-1.68-.51-2.19Z"/>
        <path class="cls-3" d="M53.43,97.25c-1.87-.47-3.82,1.28-1.65,1.9,1.49.4,3.02-1.55,1.65-1.9Z"/>
        <path class="cls-3" d="M44.68,74.49c1.35,1.83,4.39.71,2.22-.88-1.67-1.26-2.97-.14-2.22.88Z"/>
        <path class="cls-3" d="M51.56,23.92c-2.2-1.05-3.32,1.42-.42,2.11,1.81.47,2.44-1.16.42-2.11Z"/>
      </g>
    </g>
  </g>
</svg>