<?xml version="1.0" encoding="UTF-8"?>
<svg xmlns="http://www.w3.org/2000/svg" version="1.1" viewBox="0 0 114.48 382.85">
  <defs>
    <style>
      .cls-1 {
        fill: none;
      }

      .cls-2 {
        fill: #cb6d61;
        opacity: .08;
      }
    </style>
  </defs>
  <!-- Generator: Adobe Illustrator 28.7.1, SVG Export Plug-In . SVG Version: 1.2.0 Build 142)  -->
  <g>
    <g id="Content">
      <g>
        <path class="cls-1" d="M1.72,275.28c-.56-1.7-1.13-3.33-1.72-4.94v45.72c.75-1.83,1.31-3.74,1.88-5.63,3.52-11.85,3.74-23.3-.16-35.14Z"/>
        <path class="cls-1" d="M14.76,253.29c2.08-8.88,5.48-18.45,3.86-27.59-1.57-8.83-6.5-16.53-10.08-24.62-2.51-5.67-5.46-11.39-8.54-17.3v50.42c3.33,14.76,3.21,31.24,8.45,45.57,1.65-8.97,4.41-18.33,6.32-26.48Z"/>
        <path class="cls-2" d="M73.28,323.4c-19.01,8.73-38.23,17.59-54.65,30.55-6.87,5.42-13.24,11.66-18.63,18.59v10.31c12.54-12.23,30.67-17.41,43.26-26.34,12.31-8.73,23.97-19.29,30.03-33.11Z"/>
        <path class="cls-2" d="M38.93,293.9c6.53-5.11,22.8-18.34,23.41-27.01.48-6.81-5.63-7.8-10.92-6.55-8.22,1.93-12.83,8.22-16.82,15.09-6.03,10.37-13.28,19.8-19.4,30.21-3.38,5.74-6.66,12.17-10.48,17.87,2.4-7.56,4.44-15.28,5.83-23.11.37-2.08.86-4.12,1.46-6.13,1.98-6.58,5.21-12.71,9.66-17.93,5.66-6.64,12.82-11.76,18.93-17.95,7.18-7.26,15.06-14.24,21.74-22.17,11.42-13.55,26.62-29.92,31.97-46.94,3.9-12.4,8.69-31.38,8.19-43.85-7.16,3.66-13.35,14.74-18.46,21.01-10.11,12.38-18.55,25.56-25.02,40.31-7.22,16.49-18.71,29.77-28.94,44.34-4.83,6.87-10.15,18.2-15.42,25.08,1.57-11.3,5.59-24.47,8.46-36.31,2.12-8.75,2.87-17.73,4.97-26.43,2.6-10.77,4.41-22.07,8.45-32.5,5.18-13.36,15.93-26.28,23.82-38.81,4.6-7.3,21.39-37.21,11.6-45.21-7.76-7.16-20.74,24.76-22.33,28.43-9.22,21.29-16.21,43.32-22.26,65.64-.68-40.29,7.81-51.6,22.19-97.83,9.52-30.61,14.47-65.91-2.46-93.14-16.14,13.38-20.36,36.52-19.28,57.46,1.08,20.94,6.33,41.73,4.64,62.63-1.29,15.9-6.56,31.23-8.41,47.08-1.94,16.62-.09,29.51-2.28,48.78-4.27-7.71-7.81-17.84-10.51-24.91C2.01,166.87.88,158.9.52,133.35c-.09-6.49-.27-12.37-.52-17.73v68.17c3.08,5.91,6.04,11.63,8.54,17.3,3.57,8.09,8.51,15.79,10.08,24.62,1.63,9.14-1.77,18.71-3.86,27.59-1.91,8.16-4.67,17.51-6.32,26.48-5.24-14.33-5.11-30.81-8.45-45.57v36.13c.58,1.61,1.16,3.25,1.72,4.94,3.9,11.85,3.68,23.29.16,35.14-.56,1.9-1.13,3.8-1.88,5.63v23.33c1.95-5.55,6.4-14.1,18.64-27.94,6.37-7.2,12.86-11.72,20.29-17.54Z"/>
        <path class="cls-2" d="M99.32,302.5c7.32-1.7,14.36-5.52,15.08-11.57,1.46-12.2-15.76-19.63-57.78,8.42-14.73,9.83-36.7,27.01-56.61,44.09v6.64c1.35-2.17,2.88-4.16,4.69-5.88,30.6-29.21,73.76-36.85,94.63-41.71Z"/>
      </g>
    </g>
  </g>
</svg>