<?xml version="1.0" encoding="UTF-8"?>
<svg xmlns="http://www.w3.org/2000/svg" version="1.1" viewBox="0 0 196.38 317.65">
  <defs>
    <style>
      .cls-1 {
        fill: #cb6d61;
        opacity: .15;
      }
    </style>
  </defs>
  <!-- Generator: Adobe Illustrator 28.7.1, SVG Export Plug-In . SVG Version: 1.2.0 Build 142)  -->
  <g>
    <g id="Content">
      <g>
        <path class="cls-1" d="M107.56,281.73c-21.91,2.65-40.15,17.46-57.04,31.66,44.77,14.16,65.32-11.49,88.13-11.83,8.52-.13,14.88,3.31,19.51,9.14v-9.8c-12.21-14.8-31.87-21.43-50.6-19.16Z"/>
        <path class="cls-1" d="M168.26,212.23c-6.61-12.1-13.62-22.91-16.26-36.63-6.46-33.62,10.43-49.43,13.49-78.38,4.25-40.21-14.67-56.15-25.38-97.22-.88,14.38-4.27,21.12-7.6,47.82-.87,6.96-.95,13.96-1.43,20.89-2.11,29.98,7.33,60.25,10.47,75.69,2.06,10.14,3.35,22.82,7.64,35.8-25.35-38.02-24.9-69.8-42.6-100.92-17.56-30.86-34.68-45.03-47.08-66.55,4.97,25.86,3.17,43.03,12.57,74.35,6.41,21.36,19.91,38.36,39.32,55.54,18.14,16.06,28.27,30.48,42.17,50.96-19.23-16.26-35.95-19.24-52.96-25.4C65.91,155.63,36.36,127.31,0,120.98c11.97,21.46,27.04,42.77,49.35,53.08,27.91,12.9,61.21,6.15,89.71,17.29,27.66,10.81,38.27,44.84,47.9,70.52-13.91-20.48-28.52-41.34-49.41-54.58-17.74-11.25-38.67-16.12-59.14-20.81,21.09,40.67,50.29,43.58,78.01,56.07,26.08,11.74,33.78,23.85,39.95,47.39v-90.56c-6.52,22.73-4.86,48.22-.89,73.02-11.35-33.37-22.1-47.15-24.07-65.21-1.13-10.38,2.86-19.71,9.65-27.65,4.33-5.06,9.68-8.58,15.3-12.13v-23.28c-2.45,3.31-5.19,6.99-8.26,11.07-13.12,17.45-25.92,36.09-19.86,57.03Z"/>
      </g>
    </g>
  </g>
</svg>