<?xml version="1.0" encoding="UTF-8"?>
<svg xmlns="http://www.w3.org/2000/svg" xmlns:xlink="http://www.w3.org/1999/xlink" version="1.1" viewBox="0 0 88.06 166.94">
  <defs>
    <style>
      .cls-1 {
        fill: none;
      }

      .cls-2 {
        fill: #92bbac;
        mix-blend-mode: multiply;
      }

      .cls-2, .cls-3 {
        isolation: isolate;
      }

      .cls-4 {
        clip-path: url(#clippath);
      }
    </style>
    <clipPath id="clippath">
      <rect class="cls-1" width="88.06" height="166.94"/>
    </clipPath>
  </defs>
  <!-- Generator: Adobe Illustrator 28.7.1, SVG Export Plug-In . SVG Version: 1.2.0 Build 142)  -->
  <g>
    <g id="Capa_1">
      <g class="cls-3">
        <g id="Content">
          <g class="cls-4">
            <path class="cls-2" d="M59.14,123.12c.03.32.53.28.5-.06-.56-5.51-.33-3.41-.65-6.58-.03-.3-.49-.27-.47.06.4,4.45.16,2.09.62,6.58ZM68.26,129.57c.12.68,1.06.46.95-.12-.39-2.22-.63-3.71-1.02-6.57-.09-.59-.96-.48-.9.11.31,2.86.68,4.89.97,6.57h0ZM50.5,121.47c0,.26.39.4.57.16.27-.35-.38-8.76-.42-9.21-.04-.37-.61-.33-.58.07.26,2.91.29,3.84.43,8.98ZM61.41,135.62c.03.4.67.37.63-.08-.3-3.95-.45-5.37-.54-7.79,0-.31-.54-.35-.54.06,0,2.28.19,4.36.45,7.8h0ZM38.58,85.84c.18-3.38.16-4.83-.45-8.19-.15-.82-1.27-.59-1.17.14.5,3.87.45,5,.28,7.87-.05.98,1.29,1,1.34.18h0ZM44.99,94.5c-.12-.6-.93-.43-.84.1.87,5.14.92,7.82.96,9.13.02.59.98.58.95-.12-.09-3.13-.45-6.15-1.07-9.11h0ZM29.97,62.91c.13,3.42.44,7.91.69,11.32,0,.23.25.39.47.37.65-.08.24-.26-.38-11.78-.02-.48-.81-.47-.78.09h0ZM56.03,98.28c.46,5.03.63,6.76.72,10.3.02.73,1.29.81,1.26-.16-.08-2.97-.21-5.21-.84-10.28-.09-.74-1.21-.64-1.14.14ZM21.82,108.85c.5-3.62.58-5.4.61-7.56.01-.57-.73-.56-.75-.1-.09,1.88-.17,3.65-.71,7.54-.08.56.77.68.85.12h0ZM25.46,126.31c-.06,1.07,1.37,1.01,1.42.19.19-3.32.41-7.53.51-10.86.02-.93-1.18-.92-1.25-.17-.29,3.9-.4,5.99-.68,10.84ZM15.39,133.32c.69-5.08.83-6,1.23-12.13.04-.62-.82-.67-.87-.12-.57,6.81-.47,6.02-1.29,12.13-.09.62.85.73.93.13h0ZM33.48,139.43c-.02.46.58.43.59.08.12-2.86.39-8.15.33-12.29,0-.28-.5-.3-.5,0-.03,4.15-.17,6.75-.42,12.21h0ZM22.68,148.73c-.02.67.85.63.87.12.29-8.99.29-8.52.23-12.14,0-.44-.76-.43-.76,0-.21,11.39-.05,3.03-.34,12.03h0ZM27.78,94.49c.18-3.49.41-6.08.73-9.7.05-.58-.76-.64-.83-.11-.46,3.37-.72,6.33-.9,9.67-.04.74.97.75,1.01.14h0ZM13.17,152.1c.02.57.96.57.93-.11-.11-2.78-.17-4.85,0-7.15.05-.57-.75-.62-.81-.11-.33,2.51-.24,4.84-.13,7.37h0ZM35.95,119.32c0-4.29,0-6.56-.5-10.81-.03-.32-.53-.27-.49.06.5,4.9.41,5.5.45,10.81,0,.3.55.36.54-.07h0ZM43.15,133.63c.03.37.62.35.59-.07-.13-1.79-.25-3.58-.4-5.37-.03-.34-.56-.32-.54.06.09,1.54.11,2.09.35,5.38h0ZM42.48,119.81c0,.29.51.3.49-.06-.2-6.3-.22-7.6-.43-9.56-.03-.28-.47-.25-.44.05.17,1.95.19,3.52.38,9.57h0ZM58.24,66.48c-.07-.5-.8-.39-.74.09.43,3.52.55,4.93.98,10.93.04.5.85.48.81-.1-.34-4.5-.5-7.09-1.05-10.92h0ZM49.12,29.79c.99,2.25,2.25,5.05,3.46,10.06.2.8,1.18.45,1.04-.13-1.16-4.62-1.94-6.74-3.59-10.29-.29-.63-1.17-.2-.91.36ZM53.71,52.82c.33,2.23.56,3.02,1.64,7.42.12.5.75.29.66-.08-1.05-4.2-1.32-5.18-1.69-7.42-.07-.42-.66-.31-.61.07h0ZM62.04,55.13c.14,1.12,1.79.88,1.66-.2-.36-2.85-1.75-6.86-2.7-9.57-.28-.78-1.49-.38-1.31.34.35,1.52,2.02,6.8,2.35,9.44h0ZM47.63,50.68c-.3-4.06-.65-8.89-1.43-12.75-.12-.58-.89-.4-.82.1.59,3.84.96,8.85,1.25,12.77.05.65,1.05.57,1-.12ZM57.45,17.13c.8,2.51,1.51,5.14,2.47,8.83.08.29.58.2.48-.19-.73-2.79-1.6-6.08-2.5-8.81-.09-.28-.54-.15-.44.17h0ZM62.66,35.41c1.06,2.67,2.11,5.35,3.17,8.02.2.51.96.2.76-.3-1.06-2.67-2.12-5.35-3.23-8-.2-.47-.89-.18-.71.28h.01ZM68.82,76.43c.18,1.07,1.66.72,1.51-.18-1.01-6.02-1.33-6.79-2.33-11.17-.24-1.03-1.56-.65-1.4.17.56,3.08,1.17,4.82,2.23,11.18h0ZM70.21,110.54c.1.72,1.13.53,1.04-.13-.2-1.42-.41-2.83-.6-4.25-.1-.68-1.09-.53-1.01.12.18,1.42.38,2.84.58,4.25h0ZM43.8,68.56c.25,1.22,1.83.72,1.64-.2-.83-3.97-.67-5.04-1.51-8.98-.22-1.06-1.64-.72-1.49.18.73,4.49.57,5.23,1.37,9h0ZM60.56,91.61c-.67-2.41-1.43-5.08-2.23-7.47-.11-.33-.63-.17-.51.18.49,1.52,1.25,4.03,2.2,7.48.1.35.66.2.54-.19h0ZM75.4,128.11c.09.55.86.4.79-.1-.59-3.82-.31-2.7-1.59-8.74-.11-.56-.88-.38-.78.1.87,4.5.72,3.12,1.58,8.74ZM63.67,108.25c.82,5.02.6,6.83,1.07,6.24.14-.18-.7-6.06-.73-6.28-.03-.23-.37-.16-.33.04h-.01ZM71.36,84.69c.3,1.86.78,4.5,1.91,10.65.08.37.59.26.53-.06-.1-.51-1.68-9.05-1.96-10.65-.07-.34-.53-.24-.48.06ZM34.88,93.01c-.03-.32-.55-.3-.52.06.26,3.26.11,5.38-.15,8.16-.04.43.57.46.6.08.23-2.52.43-4.93.07-8.31h0ZM79.25,114.63c.08.57.91.43.84-.1-.47-3.29-.89-5.53-1.91-8.68-.16-.5-.96-.27-.78.31.82,2.63,1.29,4.56,1.85,8.47h0ZM66.7,97.46c.1.71,1.15.54,1.06-.13-.9-6.59-.9-6.74-.91-8.23,0-.56-.95-.66-1.04,0-.02,1.79.11,2.7.89,8.37h0ZM52.08,134.71c0,.29.52.32.5-.06-.07-2.69-.15-2.91-.21-5.95,0-.26-.42-.27-.42.05,0,2.41.06,3.28.13,5.96h0ZM61.28,9.7c-1.43-3.62-2.51-5.89-3.73-8.19-.1-.21-.44-.05-.32.2,1.38,2.69,2.55,5.35,3.64,8.11.11.31.5.11.41-.12ZM48.74-33.59c.57,1.78,1,2.86,2.75,7.52.21.55,1.05.23.83-.33-1.82-4.86-2.14-5.59-2.8-7.51-.17-.5-.97-.26-.79.32h0ZM48.19,77.83c.78,3.82,1.59,9.04,2.08,11.95.14.85,1.31.58,1.2-.15-.86-5.19-1.36-8.47-2.16-11.94-.19-.82-1.24-.51-1.11.14h0ZM-2.19-20.03c.15-.49-.62-.73-.79-.18-1.2,4.01-1.75,6.38-2.34,8.77-.13.53.68.74.82.19.74-3.02,1.24-5.14,2.31-8.78ZM-5.82,43.98c-.03-2.68-.07-6.25.05-9.59.01-.36-.56-.4-.58.01-.16,3.23-.14,6.48-.11,9.59,0,.42.65.41.64-.02h0ZM-16.08,37.32c-.2,1.02,1.26,1.22,1.42.34.84-4.29,1.31-7.21,2.12-14.63.1-.99-1.18-1.08-1.29-.3-.81,5.56-.94,7.78-2.26,14.6h.01ZM6.97,50.25c.41,4.27.61,5.69,1.04,8.43.08.52,1.04.47.92-.27-.5-3.09-.64-4.61-1.07-8.18-.07-.64-.93-.51-.88.02h-.01ZM.28,41.21c.04.52.75.42.72-.02-.35-4.87-.41-5.64-.79-8.65-.05-.47-.69-.39-.65.02.29,2.72.36,3.37.72,8.65ZM15.64,69.58c-.25-4.49-.64-10.31-.9-13.09-.06-.63-.94-.54-.9.03.31,4.18.64,9.76.82,13.09.04.69,1.02.58.98-.03ZM3.43,73.28c1.1,6.25,1.42,8.38,1.87,13.91.08.97,1.42.78,1.36-.04-.42-5.07-.88-8.7-2.19-14.17-.15-.61-1.17-.5-1.03.3h-.01ZM-12.65,56.91c.42-3.65.72-6.08.76-9.5.01-.7-1.08-.76-1.11.03-.18,3.8-.51,6.33-.83,9.19-.1.93,1.1.97,1.18.28ZM-1.09,52.7c.15,6.78-.74,7.45-.72,11.38,0,.74,1.15.75,1.15-.03-.02-3.99.96-4.71.61-11.38-.04-.7-1.06-.65-1.04.03ZM6.18-13.44c-.01-.82-1.29-.87-1.3.03-.09,6.55-.1,7.53-.86,12.67-.15,1.03,1.26,1.17,1.38.32.71-4.79.86-6.5.78-13.03h0ZM22.43,72.6c-.03-.33-.27-.6-.62-.59-1.21.03-.05,1.38-.36,9.89-.03.81,1.25.87,1.28-.03.11-2.75.08-5.2-.31-9.27h.01ZM-6.86,22.52c-.03.71,1.11.79,1.15-.03.07-1.55-.02-3.13-.39-6.67-.08-.74-1.08-.61-1.04.03.24,3.65.36,4.97.28,6.67ZM16.35-4.63c.05,2.37.08,4.74.11,7.11,0,.28.44.28.43-.01-.03-2.37-.06-4.74-.12-7.11,0-.27-.42-.27-.42.01ZM-10.89,1.13c0,2.62.04,1.27-.4,9.38-.04.75,1.18.86,1.23-.03.39-7.03.38-6.88.34-9.38-.02-.75-1.17-.77-1.17.03ZM-38.63-.09c.03-.4-.64-.52-.7.02-.19,2.44-.32,2.89-1.08,7.14-.1.54.66.63.74.17.72-4.09.9-4.87,1.04-7.33ZM-27.09-10.77c.03-.35-.56-.47-.62,0-.2,2.13-.63,5.53-1.22,9.06-.08.48.57.53.63.15.5-3,1.01-7.01,1.2-9.22h.01ZM-17.91,9.46c-.14,2.67-.33,3.77-1.04,9.29-.08.63.75.67.81.19.78-6.13.9-6.64.99-9.5.01-.46-.72-.52-.75.02h0ZM-29.92,18.42c-.49,4.05-.77,5.42-1.41,9.24-.11.65.8.77.89.21.61-3.63.98-5.62,1.35-9.36.05-.46-.78-.58-.83-.09ZM16.06,96.38c-.37-2.21-.24-1.61-1.04-7.97-.09-.83-1.2-.66-1.14.03.21,2.43.4,4.99.97,8.3.12.7,1.36.6,1.2-.35h.01ZM-12.75-31.38c.12-.94-1.12-1.01-1.22-.29-.68,4.68-.84,5.56-2.43,13.29-.19.91,1.14,1.14,1.31.31,1.32-6.46,1.76-8.62,2.33-13.31h.01ZM17.51,37.79c-.14-.7-1.39-.6-1.22.36.86,4.84.98,6.05.83,9.57-.04.81,1.29.92,1.33-.03.13-2.84.18-4.22-.94-9.89h0ZM-35.32,77.91c-.46,2.21-.52,3.03-1.02,7.53-.06.51.6.53.64.15.46-4.3.55-5.32.97-7.54.08-.42-.52-.52-.6-.14h0ZM-15.72-9.76c-.25,2.78-.36,5.57-.51,8.35-.04.6.96.71,1-.03.27-4.89.2-4.73.43-8.35.03-.54-.86-.68-.92.02h0ZM6.74,28.25c.13,6.21.12,5.61.09,13.06,0,.75,1.16.76,1.16-.03.03-5.63.04-7.83-.12-13.06-.02-.75-1.15-.71-1.13.03ZM-22.97-25.17c-.04-.7-1.06-.64-1.04.03.1,3.16.05,5.5,0,6.56-.04.65,1.04.76,1.08-.03.07-1.15.1-3.49-.03-6.56h-.01ZM2.03,13.52c-.05-.7-1.03-.62-1.02.03.09,4.21.11,5.71.09,7.98,0,.73,1.14.76,1.15-.03.01-2.08.01-4.24-.23-7.97h.01ZM-27.36,33.84c-.13,2.25-.27,4.57-1.64,10.51-.16.7.9.93,1.05.25,1.29-5.46,1.48-7.91,1.56-10.78.02-.6-.94-.67-.97.03h0ZM-5.57-43.12c0-.22-.35-.23-.35,0-.04,2.93.15,6.4.32,9.26.02.28.41.23.39,0-.18-2.97-.36-6.07-.37-9.26h.01ZM28.68-59.29c-.07-.54-.76-.4-.71.02.39,3.14.28,2.33.77,6.72.08.56.79.4.74-.02-.47-4.25-.45-4.14-.79-6.72h-.01ZM29.39,24.77c.12.77,1.08.53,1-.02,0,0-.57-4.29-1.91-10.1-.12-.51-.94-.38-.82.24,1.08,5.43,1.07,5.5,1.74,9.88h0ZM37.29,40.34c.12.59,1.04.4.91-.27-.52-2.46-.73-4.28-1-6.7-.07-.6-.88-.5-.84.02.23,2.83.4,4.36.93,6.94h0ZM23.46,6.74c.03.76,1.12.67,1.1-.03-.23-5.86-.39-8.37-.61-11.22-.06-.69-1.01-.59-.98.03.11,2.28.16,3.2.49,11.22ZM43.24,26.74c-.37-2.91-.68-5.58-1-8.83-.03-.37-.55-.31-.52.01.26,2.98.6,5.98.96,8.83.06.41.6.31.56-.01ZM55.58-16.74c-.11-.5-.93-.36-.8.24.59,2.77,1.15,5.53,1.71,8.31.1.54.95.36.83-.24-.55-2.77-1.12-5.54-1.73-8.3h-.01ZM34.81-67.93c-.03-.13,1.77,6.69,2.49,9.57.14.55.98.34.84-.24-.74-3.03-1.87-7.07-2.57-9.55-.13-.48-.89-.31-.75.22h0ZM44.52-5.68c.05.92,1.37.81,1.33-.03-.14-2.66-.39-5.26-1.08-9.48-.11-.67-1.3-.53-1.2.19.41,3.1.79,6.21.95,9.33h0ZM37.31,14.18c.22-6.48.26-6.29.33-12.71,0-.36-.57-.38-.57.02-.1,6.15-.21,8.2-.37,12.71,0,.4.6.41.62-.01h0ZM34.44-10.93c-.26-1.85-.92-6.49-1.54-10.14-.1-.58-1.13-.45-1.05.16.71,5.28.65,4.72,1.4,10.01.13.91,1.29.64,1.19-.03ZM48.82,18.89c.05.63.93.52.89-.02-.43-6.42-.35-5.05-.67-12.27-.03-.56-.84-.51-.82.02.19,5.56.23,6.75.6,12.27ZM41.86-50.67c-.09-.61-.85-.42-.78.02.7,5.13,1.01,6.81,1.29,8.24.09.46.9.39.79-.23-.48-2.48-.79-4.61-1.3-8.02h0ZM19.22-70.35c-.01-.38-.58-.36-.57,0,.09,2.63.4,5.61.73,8.23.05.44.64.33.59-.02-.49-3.9-.68-6.49-.75-8.23h0ZM9.23,18.28c.03.73,1.1.66,1.07-.03-.16-3.66-.46-7.58-1.01-11.21-.1-.73-1.02-.52-.96.02.47,3.95.73,7.54.89,11.21h.01ZM13.09,24.48c.27,2.11.58,4.22.89,6.34.13.81,1.15.57,1.07-.03-.41-2.84-.47-3.13-.95-6.33-.12-.78-1.08-.52-1,.03h-.01ZM21.03,24.18c-.08-.33-1.69-6.77-2.67-10.67-.08-.3-.56-.2-.48.14.17.69.8,3.34,2.63,10.68.09.34.61.21.52-.15ZM23.78,31.34c.21,2.75.42,5.51.63,8.26.05.62.91.52.87-.02-.22-2.75-.43-5.51-.68-8.26-.06-.58-.86-.49-.82.02ZM4.33-37.79c-.01-.23-.35-.2-.34,0,.13,2.77.07,5.1-.04,7.08-.01.21.32.23.34,0,.09-1.9.18-3.98.04-7.08h0ZM30.81,45.35c.32,2.45.75,5.12,1.15,7.53.12.71,1.43.64,1.26-.37-.44-2.56-.81-4.83-1.15-7.19-.14-.96-1.35-.68-1.27.03h.01ZM11.6-31.09c-.07-.42-.81-.4-.81.13.97,6.29,1.19,10.99,1.86,13.87.13.56,1.01.36.86-.25-.62-2.65-.92-8.1-1.91-13.75ZM18.67-49.28c.05-.39-.47-.42-.51-.12-.47,3.29-.56,4.5-.78,7.34-.02.32.52.4.55-.01.25-3.11.31-3.97.75-7.21h-.01ZM29.92-42.33c-.07-.76-1.13-.64-1.07.03.38,4.22.8,5.76,1.69,9.92.15.68,1.23.45,1.06-.31-.91-4.23-1.27-5.41-1.69-9.64h.01ZM38.39-35.18c.58,2.5,1.19,4.99,1.76,7.49.13.58,1.06.39.91-.27-.57-2.5-1.19-4.99-1.82-7.48-.14-.54-1.01-.36-.86.25h.01ZM20.75-33.71c.12,3.15.18,6.31.23,9.47,0,.46.7.44.7-.02-.05-3.16-.11-6.31-.23-9.47-.02-.47-.71-.43-.7.02ZM18.9-9.24c.11.73,1.02.51.95-.02-.16-1.08-.53-3.55-1.2-6.91-.11-.58-1.05-.41-.91.27.5,2.53.95,5.24,1.16,6.67h0ZM8.84-61.97c0-.5-.79-.55-.8.02-.09,4.32-.22,12.75-.24,13.56,0,.56.85.57.86-.02.13-8.18.16-10.9.18-13.56ZM22.88,57.46c.15,3.67.18,4.29.29,6.32.02.5.73.42.71-.02-.11-2.11-.21-4.21-.31-6.32-.02-.48-.71-.42-.69.02ZM-62.03,162.44c-.1.36.46.54.58.14.5-1.73,1-3.45,1.47-5.18.09-.33-.41-.49-.53-.13-.44,1.48-.62,2-1.53,5.17h0ZM-76.02,158.19c-.27,1.06,1.38,1.49,1.65.39,1.67-6.62,2.02-8.04,2.57-11.29.18-1.11-1.33-1.3-1.53-.36-1.09,5.11-1.98,8.46-2.68,11.27h0ZM-69.53,167.4c-.18.54.7.87.91.21.85-2.65,1.52-4.61,2.48-6.71.24-.52-.49-.84-.72-.38-1.18,2.24-1.9,4.46-2.67,6.87h0ZM-89.33,146.18c-4.13,10.62-1.09,2.82-4.47,11.17-.25.62.58.89.78.41,3.38-8.33,3.21-7.89,4.41-11.32.15-.42-.57-.67-.71-.27h-.01ZM-89.59,163.12c-2.24,9.06-2.87,10.31-2.08,9.82.18-.11,2.52-9.49,2.57-9.7.08-.32-.41-.45-.49-.12h0ZM-79.51,177.15c-.17.5.64.84.87.21.98-2.94,1.98-5.88,2.87-8.85.06-.22-.1-.45-.31-.5-.6-.14-.4.14-3.43,9.15h0ZM-85.03,168.37c-.06.22.1.45.31.51.64.15.31-.16,3.71-11.19.14-.46-.59-.72-.76-.18-1.06,3.25-2.32,7.58-3.26,10.86ZM-83.68,152.5c1.1-2.64,3.18-7.52,4.55-11.42.1-.27-.37-.45-.47-.18-1.46,3.88-2.49,6.27-4.61,11.32-.17.42.39.6.53.28ZM-54.5,145.76c-.08.31.4.44.49.12,1.38-5.36.87-3.31,1.66-6.4.07-.29-.37-.42-.46-.11-1.16,4.32-.57,2.02-1.69,6.39ZM-23.59,58.91c-.17.87,1.07,1.05,1.21.29,1-5.3,1.11-4.53,1.83-8.89.13-.78-.95-.94-1.09-.26-.99,4.95-.98,3.72-1.95,8.86h0ZM-47.37,154.13c-.13.72.88.84.98.23.43-2.35.73-3.91,1.38-6.89.13-.62-.78-.83-.93-.22-.74,2.95-1.12,5.11-1.44,6.88h0ZM-59.34,132.66c-.76,2.82-1.05,3.7-2.7,8.57-.08.25.23.51.48.35.38-.23,2.67-8.36,2.78-8.79.09-.36-.46-.52-.57-.13h.01ZM-61.25,147.93c-.84,2.26-1.08,3.1-1.94,5.64-.1.27.38.48.49.12.86-2.55.87-2.79,1.86-5.66.09-.25-.3-.4-.42-.1h0ZM-56.05,161.1c-.15.54.7.81.87.21,1.53-5.36,2.02-7.31,3.06-10.54.14-.42-.54-.73-.74-.18-1.1,3.01-1.87,5.84-3.19,10.51h0ZM-35.52,116.5c.19-.53-.66-.94-.97-.37-.64,1.67-.83,2.57-2.05,8.16-.16.7.89.91,1.04.24,1.44-6.49,1.48-6.64,1.98-8.04h0ZM-42.63,109.28c0-.35-.54-.36-.54,0,0,1.6-.04,4.22-.19,7.79,0,.36.56.39.58,0,.1-2.5.19-5.28.16-7.79h-.01ZM-41.31,157.4c-.14.72.88.88,1.02.24,1-4.97.85-3.46,2-11.47.11-.74-.91-.87-1-.24-.96,5.94-.53,4.16-2.02,11.47ZM-58.52,95.83c.14-.82-.99-.99-1.15-.27-.86,3.81-1.31,4.84-2.45,7.48-.39.9.87,1.38,1.19.63,1.33-3.11,1.82-4.47,2.41-7.84ZM-47.1,104.59c.1-.84-.99-.91-1.09-.26-.59,3.86-1.62,9.03-2.18,11.93-.16.85,1.03,1,1.17.28.98-5.17,1.65-8.42,2.09-11.95h.01ZM-35.79,92.3c.11-.49-.61-.64-.73-.17-.81,3.45-1.19,4.82-2.85,10.6-.14.49.63.74.79.19,1.23-4.34,1.98-6.83,2.78-10.61h.01ZM-95.66,131.55c-2.89,6.19-2.52,5.49-5.4,10.94-.3.56.55.98.83.44,2.4-4.53,2.85-5.34,5.34-10.96.25-.57-.54-.91-.78-.41h.01ZM-45.57,83.22c.16-1.07-1.29-1.24-1.46-.34-.86,4.47-1.27,5.11-1.82,8.92-.18,1.23,1.47,1.3,1.61.38.59-4.01,1.11-4.96,1.68-8.95h-.01ZM-87.2,114.54c.21-.53-.49-.78-.67-.35-.73,1.73-1.42,3.36-3.27,6.83-.26.5.49.91.76.4,1.71-3.22,2.41-4.87,3.18-6.88h0ZM-72.6,126.47c.08-.31-.4-.43-.48-.11-1.23,4.77-1.51,5.31-3.31,10.3-.11.28.39.53.53.12,1.47-4.04,2.27-6.15,3.26-10.31ZM-57.9,114.02c.09-.6-.73-.72-.83-.2-.96,5.12-1.84,7.66-2.25,8.9-.19.56.73.88.93.22,1-2.97,1.7-5.92,2.14-8.92h.01ZM-82.82,127.2c-1.62,3.56-2.45,5.48-4.38,9.94-.42.99.94,1.42,1.26.67,1.33-3.05,2.98-6.92,4.23-10.02.34-.86-.79-1.27-1.11-.59ZM-70.75,98.83c-1.6,3-2.86,5.7-4.19,8.76-.29.68.65,1.04.9.48,1.38-3.21,2.48-5.56,4.03-8.85.25-.52-.49-.86-.74-.39h0ZM-69.01,112.12c-.88,3.15-1.76,5.09-2.96,7.61-.19.39.37.63.53.29,1.09-2.29,2.1-4.48,2.93-7.78.08-.32-.41-.47-.51-.12h0ZM-68.98,136.91c-.09.28.37.46.48.11,1.98-5.98,2.42-7.21,2.9-9.12.07-.27-.35-.4-.43-.1-.51,1.89-1.03,3.37-2.95,9.11ZM-9.98,74.91c.08.9,1.31.72,1.25-.03-.54-6.73-.72-8.4-1.2-11.46-.09-.6-1.18-.5-1.1.17.48,4.02.73,7.27,1.05,11.32h0ZM9.76,100.73c-.44,4.93-.35,9.01-.2,13.65.03,1.06,1.61.98,1.58-.04-.14-4.6-.18-8.74.07-13.64.04-.81-1.35-1.06-1.44.04h-.01ZM-27.24,73.28c-.2,1.55-.45,7.08-1.05,9.67-.25,1.1,1.38,1.44,1.63.38.65-2.8.72-7.04.77-9.92,0-.82-1.27-.87-1.35-.14h0ZM-37.24,61.35c.09-.59-.7-.69-.8-.19-.77,3.8-2.15,8.63-3.24,12.42-.18.63.79.9.98.23,1.11-3.91,2.46-8.57,3.06-12.46h0ZM-18.98,102.58c-.14,3.02-.43,5.91-.85,8.85-.05.32.38.35.42.1.55-3.86.73-6.36.81-8.96.01-.23-.36-.26-.38,0ZM7.24,138.58c-.05-5.63-.12-8.67-.29-11.41-.06-.89-1.32-.8-1.3.03.03,1.05.14,8.03.18,11.41.01.93,1.42.91,1.41-.04h0ZM.88,103.62c-.03.36.61.49.65-.02.24-2.59.33-3.82.42-5.56,0-.25-.33-.4-.52-.2-.08.09-.54,5.65-.55,5.77h0ZM.02,113.15c-.01,3.67-.04,4.44,0,6.75.01.52.8.5.79-.02-.05-3.15,0-3.84-.1-6.75-.01-.45-.69-.45-.69.02ZM-31.67,54.71c.15,2.46.37,5.52-.23,10.63-.09.83.96.83,1.02.24.51-4.74.5-7,.18-10.89-.05-.69-1.03-.59-.98.02h.01ZM-14.8,95.3c-.03.3.47.38.51,0,.28-2.87.6-6.26.69-9.14,0-.29-.45-.32-.47,0-.12,2.64-.36,5.34-.73,9.14ZM-37.84,35.71c.11-.35-.46-.57-.6-.14-.99,2.94-2.14,7.28-2.93,10.54-.1.42.54.58.64.15,1.01-4.18,2.02-7.8,2.89-10.56h0ZM-26.92,105.32c1.13-6,1.1-6.83,1.67-11.29.13-1.05-1.24-1.14-1.37-.32-.54,3.09-.57,4.92-1.77,11.26-.2,1.07,1.31,1.25,1.48.35h-.01ZM-19.97,77.38c.01.55.83.52.82-.02-.08-2.87-.14-5.75-.27-8.62-.03-.51-.77-.48-.76.02.07,2.87.13,5.75.21,8.62ZM-5.86,88.64c-.2,2.36-.21,4.11-.47,8.82-.05.82,1.35,1,1.4-.04.27-4.83.25-6.43.35-8.81.03-.75-1.2-.94-1.29.03h.01ZM-8.01,156.11c-.02.48.74.52.76-.02.26-5.58.31-6.78.31-9.57,0-.43-.68-.46-.69.02-.06,3.45-.17,5.07-.38,9.57h0ZM-33.25,148.25c-.15.69.85.87.99.24.85-3.95,1.3-6.67,1.46-10.67.03-.63-.98-.7-1.02.03-.17,3.34-.44,5.73-1.44,10.41h.01ZM-19.69,132.31c0,3.8-.3,6.02-.78,9.92-.11.87,1.04.94,1.13.27.72-5.87.75-7.09.64-10.21-.02-.64-.99-.64-.99.03h0ZM-15.31,152.24c-.05.72,1.18.92,1.26-.03.22-3.36.49-6.72.54-10.08.01-.74-1.14-.79-1.18.03-.14,3.36-.4,6.72-.62,10.08ZM-31.41,127.66c-.06.38.46.45.52.12.09-.52,1.55-9.08,1.83-10.67.05-.34-.41-.41-.47-.11-.36,1.85-.82,4.49-1.88,10.66ZM-39.76,137.79c-.16.71.88.89,1.02.24.3-1.4.6-2.8.9-4.2.14-.67-.84-.88-.99-.23-.32,1.4-.63,2.79-.93,4.19h0ZM-50.48,131.58c.95-2.81,1.6-4.96,2.76-9.94.17-.72-.92-1.02-1.12-.27-1.3,4.88-1.74,6.56-2.88,9.92-.23.69.93,1.2,1.24.29h0ZM-13.08,133.13c-.02.53.82.57.84-.02.1-2.42.1-2.41.21-6.58.01-.49-.77-.55-.8.02-.1,2.19-.17,4.39-.25,6.58ZM-4.07,134.57c.05-1.37.16-3.65,0-6.09-.04-.61-.91-.55-.89.02.05,2.03-.02,4.06-.1,6.09-.02.62.97.68.99-.02ZM-24.69,131.53c0,.59.9.58.9-.02-.04-5.19-.08-5.99-.03-8.01.01-.53-.82-.58-.85.02-.08,1.86-.05,3.03-.01,8.01h-.01ZM-.73,148.62c0,.76,1.2.8,1.21-.03.02-3.38.08-4.2-.55-8.83-.11-.84-1.19-.63-1.12.03.52,5.11.48,5.28.47,8.83h0ZM-44.88,53.61c.12-.61-.75-.75-.87-.2-.51,2.49-1.37,5.32-2.05,7.54-.18.57.72.84.91.21.61-1.97,1.5-4.88,2.01-7.55ZM-44.78,133.45c.05-.23-.29-.28-.32-.08-.96,5-1.79,6.62-1.15,6.22.19-.12,1.44-5.92,1.48-6.15h0ZM-10.88,107.91s-.36,5.06-.88,10.89c-.07.78,1.27,1,1.35-.03.7-7.7.57-7.23.7-10.88.02-.68-1.09-.86-1.18.03h.01Z"/>
          </g>
        </g>
      </g>
    </g>
  </g>
</svg>