<?xml version="1.0" encoding="UTF-8"?>
<svg xmlns="http://www.w3.org/2000/svg" version="1.1" viewBox="0 0 142.64 792.64">
  <defs>
    <style>
      .cls-1, .cls-2 {
        fill: #355e74;
      }

      .cls-2, .cls-3 {
        opacity: .08;
      }
    </style>
  </defs>
  <!-- Generator: Adobe Illustrator 28.7.1, SVG Export Plug-In . SVG Version: 1.2.0 Build 142)  -->
  <g>
    <g id="Content">
      <g>
        <g class="cls-3">
          <path class="cls-1" d="M55.29,449.06c-1.3-2.8-2.5-5.64-3.59-8.52-5.51,9.11-10.46,19.49-15.63,33.57,6.24-8.48,12.63-16.85,19.22-25.05Z"/>
        </g>
        <g class="cls-3">
          <path class="cls-1" d="M11.91,477.12c-1.46-31.32-11.89-67.16,3.35-110.29,8.31-23.53,19.66-36.97,35.31-51.95-.22,11.46,3.53,25.34-19.33,86.99-10.12,27.29-12.19,36.22-12.3,65.7-.03,8.62-.44,20.84.92,30.78,10.25-19.58,13.59-34.03,22.48-50.88,2.27-4.31,4.79-8.47,7.41-12.57-.68-2.16-1.29-4.35-1.82-6.57-4.73-19.98-2.46-41.06,2.72-60.93,9.37-35.92,27.87-68.67,45.74-101.21s35.51-65.92,42.89-102.3,3.27-76.76-19.22-106.3C92.54,21.41,45,8.96,0,0v530.95c5.21-7.27,10.79-14.84,12.49-23.54,1.96-10.02-.11-20.23-.58-30.29Z"/>
        </g>
        <g class="cls-3">
          <path class="cls-1" d="M63.19,503.88c5.03-5.07,10.29-9.75,15.77-14.12-6.47-10.54-13.33-20.91-19.15-31.69-3.59,2.9-6.94,5.92-9.88,9.14-8.59,9.42-15.15,20.68-22.34,31.05-5.81,8.38-10.3,17.61-16.15,26.03-3.61,5.2-7.58,10.59-11.44,16v9.86c4.98-4.04,9.94-8.21,14.22-11.07,16.86-11.27,34.52-20.65,48.97-35.2Z"/>
        </g>
        <g class="cls-3">
          <path class="cls-1" d="M105.38,660.59c13.05-48.28,8.22-101.11-13.01-146.36-11.85,8.73-25.97,15.85-37.78,22.32-10.36,5.68-21.59,9.85-32.2,14.61-7.32,3.28-15.06,5.56-22.39,8.81v13.61c3.05-2.19,6.07-4.43,9.01-6.79,7.06-5.65,14.54-10.44,24.07-9.11,6.14.85,12.22,4.42,8.91,11.45-4.21,8.95-26.93,16.31-35.97,19.06-2.07.63-4.07,1.21-6.03,1.79v17.05c8.38-2.36,16.06-4.33,22.57-5.78,56.17-12.51,71.41,2.46,64.84,14.82-3.26,6.13-12.3,7.29-20.78,6.09-14.99-2.12-39.53-6.63-66.63-5.34v19.15c10.1-1.06,20.26-1.69,30.38-2.31-8.42,8.47-19.08,14.16-30.38,18.25v140.73c3.2-1.52,6.32-3.25,9.32-5.05,46.67-27.96,81.86-74.48,96.06-127Z"/>
        </g>
        <path class="cls-2" d="M99.86,379.32c22.7-28.6,42.47-64.06,35.68-99.94-22.64,7.58-36.64,30.42-44.1,53.1-7.46,22.68-10.43,46.93-20.82,68.43-5.79,11.98-13.71,22.75-20.87,33.97.6,1.91,1.25,3.79,1.95,5.66,11.35-18.77,25.08-32.15,48.16-61.22Z"/>
        <path class="cls-2" d="M91.19,435.78c7.88-5.86,38.02-30.73,30.91-43.25-5.3-10.79-32.2,17.77-35.4,21.02-11.13,11.29-21.51,23.21-31.4,35.52,1.41,3.04,2.92,6.04,4.52,9.01,9.84-7.94,21.46-14.91,31.38-22.29Z"/>
        <path class="cls-2" d="M92.38,514.23c5.91-4.35,11.26-9.11,15.48-14.39,9.24-11.57,22.13-29.76,26.73-43.21-9.11.94-20.24,10.17-28.25,14.72-9.66,5.49-18.79,11.56-27.37,18.41,2.58,4.2,5.09,8.42,7.45,12.71,2.12,3.85,4.1,7.77,5.96,11.75Z"/>
        <g class="cls-3">
          <path class="cls-1" d="M0,635.97v15.94c11.31-4.09,21.96-9.78,30.38-18.25-10.12.62-20.29,1.26-30.38,2.31Z"/>
        </g>
        <path class="cls-2" d="M0,635.97v15.94c11.31-4.09,21.96-9.78,30.38-18.25-10.12.62-20.29,1.26-30.38,2.31Z"/>
        <g class="cls-3">
          <path class="cls-1" d="M66.63,622.16c8.47,1.2,17.52.04,20.78-6.09,6.57-12.36-8.67-27.32-64.84-14.82-6.51,1.45-14.19,3.43-22.57,5.78v9.78c27.1-1.28,51.64,3.22,66.63,5.34Z"/>
        </g>
        <path class="cls-2" d="M66.63,622.16c8.47,1.2,17.52.04,20.78-6.09,6.57-12.36-8.67-27.32-64.84-14.82-6.51,1.45-14.19,3.43-22.57,5.78v9.78c27.1-1.28,51.64,3.22,66.63,5.34Z"/>
        <g class="cls-3">
          <path class="cls-1" d="M42,569.14c3.31-7.03-2.77-10.6-8.91-11.45-9.53-1.33-17.01,3.46-24.07,9.11-2.95,2.36-5.96,4.59-9.01,6.79v16.41c1.96-.58,3.96-1.17,6.03-1.79,9.04-2.75,31.76-10.11,35.97-19.06Z"/>
        </g>
        <path class="cls-2" d="M42,569.14c3.31-7.03-2.77-10.6-8.91-11.45-9.53-1.33-17.01,3.46-24.07,9.11-2.95,2.36-5.96,4.59-9.01,6.79v16.41c1.96-.58,3.96-1.17,6.03-1.79,9.04-2.75,31.76-10.11,35.97-19.06Z"/>
        <g class="cls-3">
          <path class="cls-1" d="M27.59,498.26c7.19-10.37,13.75-21.63,22.34-31.05,2.94-3.22,6.29-6.25,9.88-9.14-1.6-2.97-3.12-5.96-4.52-9.01-6.6,8.2-12.98,16.56-19.22,25.05,5.18-14.08,10.12-24.45,15.63-33.57-.7-1.87-1.35-3.75-1.95-5.66-2.62,4.11-5.14,8.27-7.41,12.57-8.89,16.85-12.23,31.3-22.48,50.88-1.36-9.94-.95-22.16-.92-30.78.11-29.47,2.18-38.4,12.3-65.7,22.85-61.64,19.11-75.53,19.33-86.99-15.65,14.98-27,28.42-35.31,51.95-15.24,43.13-4.81,78.98-3.35,110.29.47,10.06,2.54,20.27.58,30.29-1.7,8.7-7.28,16.27-12.49,23.54v9.34c3.86-5.41,7.84-10.8,11.44-16,5.84-8.42,10.34-17.65,16.15-26.03Z"/>
        </g>
        <path class="cls-2" d="M27.59,498.26c7.19-10.37,13.75-21.63,22.34-31.05,2.94-3.22,6.29-6.25,9.88-9.14-1.6-2.97-3.12-5.96-4.52-9.01-6.6,8.2-12.98,16.56-19.22,25.05,5.18-14.08,10.12-24.45,15.63-33.57-.7-1.87-1.35-3.75-1.95-5.66-2.62,4.11-5.14,8.27-7.41,12.57-8.89,16.85-12.23,31.3-22.48,50.88-1.36-9.94-.95-22.16-.92-30.78.11-29.47,2.18-38.4,12.3-65.7,22.85-61.64,19.11-75.53,19.33-86.99-15.65,14.98-27,28.42-35.31,51.95-15.24,43.13-4.81,78.98-3.35,110.29.47,10.06,2.54,20.27.58,30.29-1.7,8.7-7.28,16.27-12.49,23.54v9.34c3.86-5.41,7.84-10.8,11.44-16,5.84-8.42,10.34-17.65,16.15-26.03Z"/>
        <g class="cls-3">
          <path class="cls-1" d="M54.6,536.55c11.81-6.47,25.93-13.59,37.78-22.32-1.87-3.98-3.84-7.9-5.96-11.75-2.36-4.29-4.88-8.51-7.45-12.71-5.48,4.37-10.74,9.05-15.77,14.12-14.45,14.54-32.11,23.92-48.97,35.2-4.28,2.86-9.24,7.03-14.22,11.07v9.82c7.33-3.25,15.08-5.53,22.39-8.81,10.61-4.76,21.85-8.94,32.2-14.61Z"/>
        </g>
        <path class="cls-2" d="M54.6,536.55c11.81-6.47,25.93-13.59,37.78-22.32-1.87-3.98-3.84-7.9-5.96-11.75-2.36-4.29-4.88-8.51-7.45-12.71-5.48,4.37-10.74,9.05-15.77,14.12-14.45,14.54-32.11,23.92-48.97,35.2-4.28,2.86-9.24,7.03-14.22,11.07v9.82c7.33-3.25,15.08-5.53,22.39-8.81,10.61-4.76,21.85-8.94,32.2-14.61Z"/>
      </g>
    </g>
  </g>
</svg>