<?xml version="1.0" encoding="UTF-8"?>
<svg xmlns="http://www.w3.org/2000/svg" version="1.1" viewBox="0 0 189.07 344.3">
  <defs>
    <style>
      .cls-1 {
        fill: #355e74;
        opacity: .08;
      }
    </style>
  </defs>
  <!-- Generator: Adobe Illustrator 28.7.1, SVG Export Plug-In . SVG Version: 1.2.0 Build 142)  -->
  <g>
    <g id="Content">
      <path class="cls-1" d="M100.71,199.07c-.68,1.63-.52,3.84.21,5.41.69,1.5,2.32,3.24,3.97,3.68.13.04.27.07.4.11,1.74.47,3.31.44,4.74-.07,2.08-.4,3.87-2.05,4.67-3.96.78-1.86.34-4.33-.94-6-.75-1.33-1.92-2.39-3.58-3.19-.12-.06-.25-.12-.38-.18-3.56-1.71-7.73.91-9.1,4.18ZM42.99,234.11c5.28-2.43,1.51-10.61-3.76-8.19-5.28,2.43-1.51,10.61,3.76,8.19ZM42.46,152.21c7.08-3.25,2.02-14.23-5.04-10.98-7.08,3.25-2.02,14.23,5.04,10.98ZM144.5,100.58c5.28-2.42,1.78-10.4-3.39-8.62.21-1.43.04-2.95-.54-4.37-1.57-3.86-6.56-5.47-10.23-3.79-3.93,1.81-5.37,6.35-3.79,10.23,1.57,3.86,6.56,5.47,10.23,3.79.48-.22.92-.49,1.33-.78.53,2.67,3.18,5.01,6.39,3.54ZM145.94,128.29c-8.98,4.13-2.57,18.06,6.4,13.94s2.57-18.06-6.4-13.94ZM104.48,139.81c-3.27,1.5-.93,6.57,2.33,5.07,3.27-1.5.93-6.57-2.33-5.07ZM161.72,273.37c.54,1.76,1.57,3.31,3.09,4.38,2.41,1.69,5.52,1.83,8.2.74,3.04-1.24,4.85-4.63,4.75-7.78-.05-1.78-.63-3.72-1.87-5.07-.86-.93-2.18-2.13-3.46-2.43-.08-.02-.17-.04-.25-.06-1.27-.46-2.56-.58-3.89-.4.21-.07.41-.12.62-.22,6.15-2.83,1.76-12.36-4.38-9.54-5.65,2.59-2.4,10.81,2.91,9.97-.46.14-.91.28-1.37.42-2.08.84-3.19,2.61-4.15,4.48-.04.08-.08.15-.12.23-.79,1.53-.57,3.69-.08,5.27ZM181.07,222.32c-6.7,3.08-1.91,13.46,4.77,10.39,6.7-3.08,1.91-13.46-4.77-10.39ZM167.33,213.48c-5.66,2.6-1.62,11.38,4.03,8.78s1.62-11.38-4.03-8.78ZM130.25,231.02c8.6-3.95,2.46-17.29-6.13-13.35-8.6,3.95-2.46,17.29,6.13,13.35ZM183.31,160.51c-4.46,2.05-1.28,8.97,3.18,6.93,4.46-2.05,1.28-8.97-3.18-6.93ZM169.64,337.86c4.3-1.98,1.23-8.64-3.06-6.67-4.3,1.98-1.23,8.65,3.06,6.67ZM90.75,285.43c-2.56,1.17-.73,5.14,1.82,3.97s.73-5.14-1.82-3.97ZM37.99,289.92c2.18-1,.62-4.38-1.55-3.38-2.18,1-.62,4.38,1.55,3.38ZM126.3,204.88c6.31-2.9,1.8-12.69-4.5-9.8-6.32,2.9-1.81,12.69,4.5,9.8ZM135,178.19c4.46-2.05,1.28-8.97-3.18-6.93-4.46,2.05-1.28,8.97,3.18,6.93ZM158,182.63c-3.59,1.65-1.03,7.22,2.56,5.57,3.59-1.65,1.03-7.22-2.56-5.57ZM68.31,92.65c-5.93,2.73-1.7,11.93,4.23,9.21,5.93-2.73,1.69-11.93-4.23-9.21ZM165.68,34.35c3.65-1.68,1.04-7.33-2.6-5.66-3.65,1.68-1.04,7.33,2.6,5.66ZM174.08,196.58c-1.47.67-.42,2.95,1.05,2.28s.42-2.95-1.05-2.28ZM84.38,29.35c-1.96.9-.56,3.94,1.4,3.04,1.96-.9.56-3.94-1.4-3.04ZM137.36,5.23c.34-.89.38-1.88-.04-2.79l-.15-.33c-.86-1.87-3.02-2.55-4.87-1.8-1.84.75-2.61,3.12-1.8,4.87l.15.33c.42.91,1.2,1.52,2.09,1.85,0,0,.02.01.03.02,1.88,1.22,4.29.11,4.59-2.11,0,0,0-.02,0-.03ZM115.98,343.88c5.06-2.33,1.45-10.18-3.61-7.86-5.06,2.33-1.45,10.18,3.61,7.86ZM.7,194.64c.31.35.62.71.93,1.06,1.7,1.94,4.92.46,4.56-2.09-.07-.47-.13-.93-.2-1.4-.28-1.95-2.5-3.06-4.24-2.26s-2.35,3.21-1.05,4.69ZM122.8,287.62c1.11,2.75,4.67,3.89,7.27,2.69,2.79-1.28,3.81-4.52,2.69-7.27-1.12-2.75-4.67-3.89-7.27-2.69-2.79,1.28-3.81,4.52-2.69,7.27ZM86.24,244.02c4.35-2,1.24-8.75-3.1-6.76-4.36,2-1.25,8.75,3.1,6.76ZM66,187.79c.35.24.69.48,1.04.72,1.15.8,2.78.05,2.92-1.34.04-.42.09-.84.13-1.26.2-1.97-1.89-3.44-3.68-2.62-1.79.82-2.03,3.37-.41,4.5ZM181.23,113.84c-1.96.9-.56,3.94,1.4,3.04,1.96-.9.56-3.94-1.4-3.04ZM160.44,166.87c4.85-2.23,1.38-9.74-3.45-7.52s-1.39,9.74,3.45,7.52ZM137.91,254.73c-3.59,1.65-1.03,7.22,2.56,5.57,3.59-1.65,1.03-7.22-2.56-5.57ZM106.33,168.41c-4.52,2.08-1.29,9.08,3.22,7.01,4.52-2.07,1.29-9.08-3.22-7.01ZM175.64,91.15c-3.1,1.43-.89,6.24,2.21,4.81,3.1-1.43.89-6.24-2.21-4.81ZM163.64,68.53c2.99-1.38.86-6.02-2.13-4.65-2.99,1.38-.86,6.02,2.13,4.65ZM160.3,306.99c4.63-2.12,1.32-9.3-3.3-7.18-4.63,2.13-1.32,9.3,3.3,7.18ZM114.14,52.02c-4.46,2.05-1.28,8.97,3.18,6.93,4.46-2.05,1.28-8.97-3.18-6.93ZM98.64,106.04c-4.3,1.98-1.23,8.65,3.06,6.67,4.3-1.98,1.23-8.64-3.06-6.67ZM70.87,150.89c2.4-1.1.69-4.82-1.71-3.72-2.39,1.1-.68,4.81,1.71,3.72ZM31.11,102.92c-2.89,1.33-.83,5.8,2.06,4.48,2.88-1.32.82-5.8-2.06-4.48ZM103.45,260.42c2.78-1.27.79-5.58-1.98-4.31-2.78,1.28-.79,5.58,1.98,4.31ZM149.94,228.27c-1.85.85-.53,3.72,1.32,2.87,1.85-.85.53-3.72-1.32-2.87Z"/>
    </g>
  </g>
</svg>