<?xml version="1.0" encoding="UTF-8"?>
<svg xmlns="http://www.w3.org/2000/svg" version="1.1" viewBox="0 0 178.24 68.84">
  <defs>
    <style>
      .cls-1 {
        fill: #fff;
      }

      .cls-2 {
        fill: #cb6d61;
      }
    </style>
  </defs>
  <!-- Generator: Adobe Illustrator 28.7.1, SVG Export Plug-In . SVG Version: 1.2.0 Build 142)  -->
  <g>
    <g id="Content">
      <g>
        <g>
          <g>
            <path class="cls-2" d="M27.62,19.03c-.13-2.01-1.77-3.64-3.79-3.76-1.23-.07-2.34.4-3.13,1.2-.06.06-.15.06-.2,0-.79-.8-1.91-1.27-3.13-1.2-2,.12-3.64,1.74-3.78,3.74-.09,1.26.4,2.41,1.23,3.2l5.45,5.45c.19.19.5.19.69,0l5.42-5.42c.84-.8,1.34-1.95,1.26-3.22Z"/>
            <g>
              <polygon class="cls-1" points="41.12 18.09 31.19 18.11 31.19 32.38 9.94 32.38 9.94 18.11 0 18.09 0 22.15 5.88 22.16 5.88 36.44 35.25 36.44 35.25 22.16 41.13 22.15 41.12 18.09"/>
              <path class="cls-1" d="M14.46,8.43l.4-.16c3.81-1.59,8.16-1.55,11.94.1,2.68,1.17,4.4,3.81,4.4,6.73v.11h4.06v-.11c0-4.53-2.68-8.63-6.84-10.45-1.86-.81-3.83-1.31-5.82-1.51V0s-4.05,0-4.05,0v3.17s-.09,0-.09,0c-1.76.21-3.5.65-5.16,1.34l-.4.16c-4.26,1.78-7.01,5.91-7.01,10.52h4.06c0-2.97,1.77-5.63,4.52-6.78Z"/>
            </g>
          </g>
          <g>
            <path class="cls-2" d="M15.3,54.65c0-4.57,2.9-7.47,8.23-7.47,2.07,0,4.06.4,5.54,1.11v3.49c-1.59-.62-3.52-.99-5.37-.99-2.64,0-4.14,1.42-4.14,3.86s1.5,3.86,4.14,3.86c1.85,0,3.78-.37,5.37-.99v3.49c-1.48.71-3.46,1.11-5.54,1.11-5.34,0-8.23-2.9-8.23-7.47Z"/>
            <path class="cls-2" d="M45.5,52.29v9.45h-4.06v-8.49c0-1.5-.88-2.36-2.36-2.36-2.16,0-3.86,1.76-3.86,4.09v6.76h-4.09v-21.29h4.09v9.37c1.16-1.7,2.98-2.67,5.25-2.67,3.15,0,5.02,1.9,5.02,5.14Z"/>
            <path class="cls-2" d="M47.4,54.65c0-4.57,2.98-7.47,7.86-7.47,4.32,0,7.13,2.58,7.13,6.56,0,.82-.09,1.7-.23,2.24h-10.36c.45,1.87,1.96,2.81,4.54,2.81,1.73,0,3.43-.43,4.68-1.08v3.29c-1.22.68-3.32,1.11-5.62,1.11-5.08,0-8.01-2.78-8.01-7.47ZM58.53,53.62c.03-.11.06-.26.06-.43,0-1.45-1.14-2.78-3.26-2.78s-3.38,1.05-3.63,3.21h6.84Z"/>
            <path class="cls-2" d="M79.4,47.55h9.65v14.19h-4.09v-10.76h-5.56v10.76h-4.06v-10.76h-5.59v10.76h-4.06v-10.76h-2.24v-3.43h2.24v-.79c0-4.34,2.02-6.67,5.17-6.67,1.08,0,1.82.11,2.47.34v3.41c-.2-.03-.62-.11-1.25-.11-1.25,0-2.33.71-2.33,2.84v.99h5.59v-.79c0-4.34,2.02-6.67,5.17-6.67,1.08,0,1.82.11,2.47.34v3.43c-.2-.06-.62-.14-1.25-.14-1.25,0-2.33.71-2.33,2.84v.99ZM89.05,40.45v5.05h-4.09v-5.05h4.09Z"/>
            <path class="cls-2" d="M97.82,46.75v.79h4.14v3.43h-4.14v10.76h-4.06v-10.76h-2.53v-3.43h2.53v-.79c0-4.34,2.38-6.67,5.9-6.67,1.48,0,2.44.17,3.09.43v3.43c-.54-.14-1.14-.26-2.07-.26-1.33,0-2.87.65-2.87,3.07Z"/>
            <path class="cls-2" d="M104.15,68.47v-3.44c.82.23,1.76.4,2.75.4,1.73,0,2.55-.62,3.12-2.38l.43-1.31h-2.67l-4.83-14.19h4.37l3.26,10.62h.91l2.95-10.62h4.37l-5.22,16.49c-1.08,3.38-3.07,4.8-6.44,4.8-1.14,0-2.13-.11-3.01-.37Z"/>
          </g>
        </g>
        <g>
          <path class="cls-1" d="M118.78,56h6.27c-.21.67-.31,1.01-.52,1.68h-4.42c-.3.95-.44,1.43-.74,2.38h3.8c-.2.62-.29.93-.49,1.56h-3.8c-.32,1.03-.48,1.54-.8,2.57h4.53c-.21.67-.32,1.01-.53,1.68h-6.4c1.24-3.95,1.86-5.92,3.09-9.87Z"/>
          <path class="cls-1" d="M125.53,58.59h1.65c-.17.54-.26.81-.43,1.35.39-.46.85-.82,1.38-1.08.52-.26,1.04-.39,1.56-.39.56,0,.96.14,1.18.42.22.28.32.66.29,1.12.43-.5.91-.88,1.42-1.15.51-.26,1.02-.4,1.54-.4.31,0,.56.04.76.13.2.09.35.21.45.36.11.15.17.33.2.53.03.2.03.43,0,.67-.02.15-.04.32-.08.51-.04.19-.1.41-.18.66-.57,1.82-.86,2.73-1.43,4.54h-1.83c.51-1.63.76-2.45,1.27-4.09.04-.14.08-.27.11-.4.03-.13.05-.24.06-.34.03-.32,0-.56-.12-.72-.12-.15-.29-.23-.52-.23-.34,0-.69.14-1.07.43-.38.29-.7.65-.97,1.1-.53,1.7-.79,2.54-1.32,4.24h-1.83c.51-1.63.76-2.45,1.27-4.09.08-.29.14-.54.16-.75.03-.32,0-.56-.12-.71-.11-.15-.29-.22-.52-.22-.16,0-.34.04-.52.11-.18.07-.36.18-.54.31-.18.13-.36.29-.52.48-.17.19-.31.39-.45.61-.53,1.7-.8,2.55-1.33,4.25h-1.83c.91-2.91,1.37-4.37,2.28-7.28Z"/>
          <path class="cls-1" d="M137.7,58.59h1.6c-.16.5-.23.75-.39,1.25.39-.43.82-.76,1.28-1.01.47-.25.96-.37,1.48-.37.38,0,.72.08,1.01.23.29.15.53.37.72.64.18.27.32.59.39.95.08.36.09.75.05,1.17-.06.6-.23,1.18-.49,1.72-.27.55-.6,1.03-1,1.45-.4.42-.85.76-1.34,1.01-.49.25-1,.38-1.51.38s-.94-.13-1.26-.38c-.32-.25-.52-.6-.6-1.04-.53,1.7-.8,2.54-1.33,4.24h-1.83c1.29-4.1,1.93-6.15,3.21-10.24ZM139.39,64.43c.29,0,.58-.08.86-.23.28-.15.54-.35.77-.6.23-.25.42-.54.58-.85s.25-.65.29-.98c.05-.49-.03-.9-.25-1.22-.22-.32-.55-.49-.99-.49-.16,0-.34.03-.51.09-.18.06-.36.15-.53.26-.18.11-.34.24-.5.39-.16.15-.3.31-.42.49-.22.68-.33,1.03-.55,1.71.03.42.16.76.38,1.04.23.27.52.41.87.41Z"/>
          <path class="cls-1" d="M146.05,58.59h1.68c-.2.62-.29.93-.49,1.56.4-.5.83-.9,1.28-1.19.46-.29.9-.44,1.33-.44.09,0,.16,0,.2,0,.04,0,.09.01.12.02-.21.66-.31.99-.51,1.65-.52,0-1.02.12-1.5.33-.48.21-.88.52-1.18.94-.55,1.76-.83,2.64-1.38,4.41h-1.83c.91-2.91,1.37-4.37,2.28-7.28Z"/>
          <path class="cls-1" d="M151.75,66.01c-.45,0-.85-.08-1.2-.23-.34-.15-.63-.37-.85-.64-.23-.27-.39-.6-.48-.97-.09-.38-.12-.79-.07-1.23.06-.6.24-1.17.53-1.72.29-.54.66-1.02,1.1-1.42.45-.41.96-.73,1.53-.97.58-.24,1.18-.36,1.82-.36.77,0,1.37.17,1.79.52.42.35.6.85.53,1.51-.16,1.57-1.62,2.35-4.36,2.35h-.5c-.17,0-.35,0-.54-.03,0,.07-.01.11-.02.18-.05.49.02.89.2,1.2.19.31.52.46.99.46.36,0,.72-.09,1.06-.26.34-.18.62-.42.85-.74.56.18.84.28,1.4.46-.21.28-.46.53-.75.77-.29.24-.6.44-.93.6-.33.17-.67.3-1.03.39-.36.09-.71.14-1.07.14ZM153.72,59.81c-.26,0-.51.05-.75.15-.24.1-.45.23-.65.4-.2.17-.37.36-.53.58-.16.22-.29.46-.4.71.14,0,.29.01.42.01h.42c.44,0,.81-.02,1.12-.07.31-.05.56-.12.76-.21.2-.09.34-.2.44-.33.1-.12.15-.27.17-.44.03-.27-.05-.47-.24-.6-.19-.13-.44-.2-.76-.2Z"/>
          <path class="cls-1" d="M158.63,66.01c-.57,0-1.1-.1-1.59-.29-.49-.19-.87-.47-1.14-.83.41-.47.62-.7,1.04-1.17.63.64,1.32.96,2.07.96.38,0,.69-.08.93-.25.24-.17.37-.4.4-.7.02-.2-.06-.36-.24-.48-.18-.12-.49-.24-.91-.37-.35-.11-.65-.22-.9-.33-.25-.11-.45-.22-.6-.35s-.26-.28-.32-.44c-.06-.16-.08-.35-.06-.56.04-.41.17-.78.38-1.12.21-.34.47-.63.79-.87.32-.24.68-.43,1.09-.56.41-.13.83-.2,1.26-.2.51,0,.96.08,1.35.24.39.16.73.41,1.01.76-.43.45-.65.68-1.09,1.13-.26-.28-.53-.48-.82-.61s-.58-.19-.89-.19-.6.08-.85.24c-.25.16-.39.4-.42.72-.02.19.05.34.21.44.16.1.44.21.84.33.74.21,1.28.45,1.62.72s.48.63.43,1.09c-.04.4-.16.76-.36,1.09-.2.33-.45.61-.77.85-.32.24-.68.42-1.1.56-.42.13-.87.2-1.35.2Z"/>
          <path class="cls-1" d="M165.41,66.01c-.4,0-.75-.08-1.05-.23-.3-.15-.54-.36-.73-.63-.19-.27-.32-.59-.4-.95-.08-.37-.09-.76-.05-1.17.06-.6.23-1.18.5-1.73.27-.55.61-1.04,1.01-1.45.4-.42.85-.75,1.35-1,.5-.25,1.01-.38,1.53-.38.49,0,.9.13,1.21.39.32.26.52.6.6,1.01.16-.5.24-.75.4-1.25h1.83c-.64,2.05-.96,3.07-1.6,5.11-.04.1-.06.19-.07.25-.02.19.08.3.3.31-.2.63-.3.95-.49,1.58-.17.03-.31.05-.44.07-.12.02-.23.03-.32.03-.32,0-.56-.07-.73-.21-.17-.14-.24-.35-.21-.62.01-.11.06-.29.14-.53-.39.46-.84.81-1.33,1.05-.49.24-.98.35-1.45.35ZM166.4,64.43c.15,0,.32-.03.51-.09s.36-.15.54-.26c.17-.11.34-.24.5-.39.16-.15.3-.31.42-.49.21-.7.32-1.04.54-1.74-.01-.41-.14-.75-.37-1.01-.24-.27-.53-.4-.87-.4-.29,0-.58.08-.87.23-.29.15-.55.36-.78.61-.23.26-.43.54-.58.86-.16.32-.25.65-.29.98-.05.48.03.88.26,1.21s.55.49,1,.49Z"/>
          <path class="cls-1" d="M173.69,66.01c-.57,0-1.1-.1-1.59-.29-.49-.19-.87-.47-1.14-.83.41-.47.62-.7,1.04-1.17.63.64,1.32.96,2.07.96.38,0,.69-.08.93-.25.24-.17.37-.4.4-.7.02-.2-.06-.36-.24-.48-.18-.12-.49-.24-.91-.37-.35-.11-.65-.22-.9-.33-.25-.11-.45-.22-.6-.35-.15-.13-.26-.28-.32-.44-.06-.16-.08-.35-.06-.56.04-.41.17-.78.38-1.12.21-.34.47-.63.79-.87.32-.24.68-.43,1.09-.56.41-.13.83-.2,1.26-.2.51,0,.96.08,1.35.24.39.16.73.41,1.01.76l-1.09,1.13c-.26-.28-.53-.48-.82-.61-.28-.13-.58-.19-.89-.19s-.6.08-.85.24c-.25.16-.39.4-.42.72-.02.19.05.34.21.44.16.1.44.21.84.33.74.21,1.28.45,1.62.72s.48.63.43,1.09c-.04.4-.16.76-.36,1.09-.2.33-.45.61-.77.85-.32.24-.68.42-1.1.56-.42.13-.87.2-1.35.2Z"/>
        </g>
      </g>
    </g>
  </g>
</svg>