<?xml version="1.0" encoding="UTF-8"?>
<svg xmlns="http://www.w3.org/2000/svg" version="1.1" viewBox="0 0 119.48 34.75">
  <defs>
    <style>
      .cls-1 {
        fill: #fff;
      }
    </style>
  </defs>
  <!-- Generator: Adobe Illustrator 28.7.1, SVG Export Plug-In . SVG Version: 1.2.0 Build 142)  -->
  <g>
    <g id="Content">
      <g>
        <path class="cls-1" d="M39.68,24.32c1.67,3.27,3.33,6.52,5,9.79-.08.01-.14.02-.19.02-1.76,0-3.52,0-5.27,0-.15,0-.23-.06-.29-.19-.54-1.07-1.07-2.13-1.61-3.19-.59-1.17-1.2-2.33-1.79-3.5-.24-.48-.49-.96-.72-1.44-.08-.16-.17-.21-.35-.2-.39.03-.77.04-1.16.04-2.7,0-5.4,0-8.1,0h-.29v8.43c-.22.06-4.88.06-5.1.01-.04-.17-.06-24.92,0-25.23.06,0,.13-.01.2-.01,4.63,0,9.26,0,13.89,0,.93,0,1.86.11,2.77.3,1.05.21,2.06.54,3.02,1.03,1.03.53,1.93,1.24,2.64,2.16.64.83,1.08,1.76,1.33,2.78.2.84.28,1.7.24,2.56-.03.67-.11,1.34-.29,1.99-.33,1.22-.94,2.29-1.85,3.18-.55.53-1.16.97-1.84,1.33-.07.04-.14.07-.24.13ZM24.92,21.1h.31c2.41,0,4.81,0,7.22,0,.83,0,1.66,0,2.48-.13.72-.1,1.43-.28,2.09-.58.82-.37,1.36-.99,1.59-1.86.23-.86.23-1.72,0-2.58-.18-.64-.5-1.2-1.08-1.56-.29-.18-.59-.34-.91-.46-.94-.35-1.93-.52-2.92-.53-2.87-.03-5.73,0-8.6,0-.06,0-.12.01-.18.02v7.67Z"/>
        <path class="cls-1" d="M59.62,34.75c-1.19,0-2.36-.12-3.52-.38-1.17-.25-2.29-.64-3.38-1.16-.95-.45-1.85-.99-2.69-1.63-.67-.51-1.29-1.09-1.87-1.71-.7-.76-1.31-1.58-1.81-2.49-.59-1.07-1.02-2.2-1.28-3.4-.17-.81-.27-1.62-.28-2.44,0-1,.11-1.98.36-2.95.23-.91.55-1.78.98-2.61.53-1.05,1.21-2,2-2.86.74-.81,1.56-1.53,2.46-2.15,1.45-.99,3.01-1.73,4.7-2.19.75-.21,1.52-.36,2.3-.45.55-.06,1.1-.08,1.65-.11.52-.03,1.03,0,1.54.03.87.05,1.74.18,2.59.38,1.06.25,2.07.61,3.06,1.07,1.37.64,2.62,1.46,3.73,2.49,1.06.98,1.98,2.09,2.69,3.36.48.86.88,1.77,1.14,2.73.18.68.31,1.37.37,2.07.06.69.06,1.38.02,2.06-.04.67-.16,1.33-.32,1.98-.21.86-.5,1.7-.9,2.49-.4.81-.89,1.57-1.45,2.27-.61.76-1.29,1.46-2.04,2.08-.87.73-1.82,1.34-2.84,1.84-.81.41-1.65.75-2.53,1.01-.83.25-1.68.42-2.54.53-.71.09-1.43.14-2.15.14ZM59.68,12.77c-.4.02-.8.04-1.21.07-.81.06-1.59.24-2.35.51-1.01.35-1.94.87-2.79,1.53-1.18.91-2.08,2.02-2.69,3.38-.41.92-.64,1.88-.69,2.88-.03.69.03,1.37.19,2.05.24,1.06.68,2.03,1.31,2.92.54.78,1.21,1.44,1.96,2.01.93.71,1.94,1.24,3.06,1.58,1.14.35,2.31.5,3.5.45.62-.02,1.24-.08,1.86-.2.78-.15,1.53-.38,2.25-.73,1.3-.63,2.43-1.5,3.34-2.63,1.03-1.28,1.67-2.74,1.85-4.37.09-.79.04-1.59-.14-2.38-.27-1.17-.78-2.23-1.48-3.2-.51-.69-1.11-1.29-1.79-1.82-.84-.65-1.75-1.16-2.76-1.5-1.1-.37-2.23-.56-3.4-.55Z"/>
        <path class="cls-1" d="M81.41,29.53h13.52v4.55c-.16.05-20.12.07-20.45.01,0-.06-.01-.13-.01-.2,0-1.16,0-2.31,0-3.47,0-.13.04-.24.12-.34,1.03-1.26,2.05-2.53,3.07-3.8.83-1.03,1.65-2.06,2.48-3.08,1.01-1.25,2.02-2.49,3.03-3.74.72-.89,1.43-1.79,2.15-2.68.86-1.06,1.72-2.13,2.58-3.19.04-.05.07-.1.14-.19-2.29,0-4.54,0-6.79,0s-4.49,0-6.73,0c-.06-.2-.08-3.95-.03-4.5,0,0,.01,0,.02-.01,0,0,.01-.01.02-.01,6.75,0,13.5,0,20.26-.01.06,0,.12,0,.2,0,0,.08.02.14.02.2,0,1.16,0,2.33,0,3.49,0,.13-.04.22-.12.32-1.2,1.47-2.39,2.94-3.59,4.42-.76.93-1.52,1.86-2.27,2.8-.74.91-1.47,1.83-2.22,2.75-1.15,1.42-2.3,2.83-3.45,4.25-.64.79-1.27,1.57-1.9,2.36,0,.01-.01.03-.03.09Z"/>
        <path class="cls-1" d="M18.58,8.88v4.52H5.14c-.05.19-.07,7.26-.03,7.66,0,0,.01.01.02.02,0,0,.01.01.02.02,0,0,.01,0,.02,0,0,0,.02,0,.02,0,0,0,.02,0,.02,0,.02,0,.03,0,.05,0,.02,0,.03,0,.05,0,3.4,0,6.79,0,10.19,0,0,0,.02,0,.02,0,.02,0,.03,0,.05,0,0,0,.01,0,.04.01v4.5c-.69,0-1.39,0-2.08,0-.7,0-1.41,0-2.11,0h-6.31v8.5c-1.7-.01-3.38-.03-5.05-.04-.02-.02-.02-.02-.03-.03,0,0-.01-.01-.01-.02C0,25.71,0,17.38,0,9.06c0-.05,0-.11.01-.18h18.57Z"/>
        <path class="cls-1" d="M105.45,13.4h-8.82c-.05-.19-.07-4.28-.02-4.58h22.87c0,1.52,0,3.03,0,4.58h-8.91v20.7h-5.05s0,0-.01,0c0,0-.01-.01-.01-.02,0,0,0-.02,0-.02,0-.02,0-.03,0-.05,0-.02,0-.03,0-.05,0-.02,0-.03,0-.05,0-6.78,0-13.57,0-20.35,0-.02,0-.03,0-.05,0,0,0-.02,0-.02,0,0,0-.02,0-.02,0,0,0-.01-.03-.06Z"/>
        <path class="cls-1" d="M68.64,0c1.26,0,2.21.38,2.99,1.16.59.59.94,1.3,1.02,2.16.16,1.73-.95,3.12-2.36,3.67-.52.21-1.06.31-1.62.28-1.49-.07-2.66-.7-3.39-2.03-.67-1.22-.5-2.73.39-3.8.81-.97,1.86-1.43,2.96-1.44ZM70.36,3.63c0-.41-.18-.75-.48-1.02-.6-.53-1.54-.55-2.18-.01-.61.52-.69,1.4-.08,1.98.47.45,1.03.57,1.64.41.63-.16,1.09-.74,1.1-1.36Z"/>
      </g>
    </g>
  </g>
</svg>