<?xml version="1.0" encoding="UTF-8"?>
<svg xmlns="http://www.w3.org/2000/svg" version="1.1" viewBox="0 0 93.27 54.03">
  <defs>
    <style>
      .cls-1 {
        fill: #343451;
      }

      .cls-2 {
        fill: #cb6d61;
      }
    </style>
  </defs>
  <!-- Generator: Adobe Illustrator 28.7.1, SVG Export Plug-In . SVG Version: 1.2.0 Build 142)  -->
  <g>
    <g id="Content">
      <g>
        <g>
          <path class="cls-2" d="M21.68,14.93c-.1-1.58-1.39-2.86-2.97-2.95-.96-.06-1.84.31-2.46.94-.04.04-.11.04-.16,0-.62-.63-1.5-1-2.46-.94-1.57.1-2.86,1.37-2.97,2.94-.07.99.31,1.89.96,2.52l4.28,4.28c.15.15.39.15.54,0l4.25-4.25c.66-.62,1.05-1.53.99-2.52Z"/>
          <g>
            <polygon class="cls-1" points="32.28 14.2 24.48 14.21 24.48 25.41 7.8 25.41 7.8 14.21 0 14.2 0 17.38 4.62 17.39 4.62 28.6 27.67 28.6 27.67 17.39 32.28 17.38 32.28 14.2"/>
            <path class="cls-1" d="M11.35,6.61l.31-.13c2.99-1.25,6.4-1.22,9.37.08,2.1.92,3.46,2.99,3.46,5.28v.09h3.19v-.09c0-3.56-2.11-6.78-5.37-8.2-1.46-.64-3-1.03-4.57-1.18V0s-3.18,0-3.18,0v2.49s-.07,0-.07,0c-1.38.16-2.75.51-4.05,1.06l-.31.13c-3.34,1.39-5.51,4.64-5.51,8.26h3.19c0-2.33,1.39-4.42,3.55-5.32Z"/>
          </g>
        </g>
        <g>
          <path class="cls-1" d="M12.01,42.89c0-3.59,2.27-5.86,6.46-5.86,1.63,0,3.19.31,4.34.87v2.74c-1.25-.49-2.76-.78-4.21-.78-2.07,0-3.25,1.11-3.25,3.03s1.18,3.03,3.25,3.03c1.45,0,2.96-.29,4.21-.78v2.74c-1.16.56-2.72.87-4.34.87-4.19,0-6.46-2.27-6.46-5.86Z"/>
          <path class="cls-1" d="M35.72,41.04v7.42h-3.19v-6.66c0-1.18-.69-1.85-1.85-1.85-1.69,0-3.03,1.38-3.03,3.21v5.3h-3.21v-16.71h3.21v7.35c.91-1.34,2.34-2.09,4.12-2.09,2.47,0,3.94,1.49,3.94,4.03Z"/>
          <path class="cls-1" d="M37.21,42.89c0-3.59,2.34-5.86,6.17-5.86,3.39,0,5.59,2.03,5.59,5.15,0,.65-.07,1.34-.18,1.76h-8.13c.36,1.47,1.54,2.21,3.57,2.21,1.36,0,2.7-.33,3.68-.85v2.58c-.96.53-2.61.87-4.41.87-3.99,0-6.28-2.18-6.28-5.86ZM45.94,42.09c.02-.09.04-.2.04-.33,0-1.14-.89-2.18-2.56-2.18s-2.65.82-2.85,2.52h5.37Z"/>
          <path class="cls-1" d="M62.32,37.32h7.58v11.14h-3.21v-8.44h-4.37v8.44h-3.19v-8.44h-4.39v8.44h-3.19v-8.44h-1.76v-2.7h1.76v-.62c0-3.41,1.58-5.24,4.06-5.24.85,0,1.43.09,1.94.27v2.67c-.16-.02-.49-.09-.98-.09-.98,0-1.83.56-1.83,2.23v.78h4.39v-.62c0-3.41,1.58-5.24,4.06-5.24.85,0,1.43.09,1.94.27v2.7c-.16-.04-.49-.11-.98-.11-.98,0-1.83.56-1.83,2.23v.78ZM69.89,31.75v3.97h-3.21v-3.97h3.21Z"/>
          <path class="cls-1" d="M76.78,36.7v.62h3.25v2.7h-3.25v8.44h-3.19v-8.44h-1.98v-2.7h1.98v-.62c0-3.41,1.87-5.24,4.63-5.24,1.16,0,1.92.13,2.43.33v2.7c-.42-.11-.89-.2-1.63-.2-1.05,0-2.25.51-2.25,2.41Z"/>
          <path class="cls-1" d="M81.75,53.74v-2.7c.65.18,1.38.31,2.16.31,1.36,0,2.01-.49,2.45-1.87l.33-1.02h-2.09l-3.79-11.14h3.43l2.56,8.33h.71l2.32-8.33h3.43l-4.1,12.95c-.85,2.65-2.41,3.77-5.06,3.77-.89,0-1.67-.09-2.36-.29Z"/>
        </g>
      </g>
    </g>
  </g>
</svg>