<?xml version="1.0" encoding="UTF-8"?>
<svg xmlns="http://www.w3.org/2000/svg" version="1.1" viewBox="0 0 116.85 67.7">
  <defs>
    <style>
      .cls-1 {
        fill: #ce6c61;
      }

      .cls-2 {
        fill: #fff;
      }
    </style>
  </defs>
  <!-- Generator: Adobe Illustrator 28.7.1, SVG Export Plug-In . SVG Version: 1.2.0 Build 142)  -->
  <g>
    <g id="Content">
      <g>
        <g>
          <path class="cls-1" d="M27.16,18.71c-.13-1.98-1.74-3.58-3.72-3.7-1.21-.07-2.31.39-3.08,1.18-.06.06-.14.06-.2,0-.77-.79-1.87-1.25-3.08-1.18-1.97.12-3.58,1.71-3.72,3.68-.09,1.24.39,2.37,1.21,3.15l5.36,5.36c.19.19.49.19.67,0l5.33-5.33c.83-.78,1.32-1.92,1.24-3.16Z"/>
          <g>
            <polygon class="cls-2" points="40.44 17.79 30.67 17.81 30.67 31.84 9.77 31.84 9.77 17.81 0 17.79 0 21.78 5.78 21.79 5.78 35.83 34.66 35.83 34.66 21.79 40.45 21.78 40.44 17.79"/>
            <path class="cls-2" d="M14.22,8.29l.39-.16c3.74-1.56,8.02-1.52,11.74.1,2.63,1.15,4.33,3.75,4.33,6.62v.11h3.99v-.11c0-4.46-2.64-8.49-6.72-10.27-1.83-.8-3.76-1.29-5.72-1.48V0s-3.98,0-3.98,0v3.12s-.09,0-.09,0c-1.73.2-3.44.64-5.07,1.32l-.39.16c-4.19,1.75-6.9,5.81-6.9,10.35h3.99c0-2.92,1.74-5.54,4.44-6.67Z"/>
          </g>
        </g>
        <g>
          <path class="cls-1" d="M15.04,53.74c0-4.49,2.85-7.34,8.1-7.34,2.04,0,3.99.39,5.44,1.09v3.43c-1.56-.61-3.46-.98-5.28-.98-2.6,0-4.08,1.4-4.08,3.8s1.48,3.8,4.08,3.8c1.81,0,3.71-.36,5.28-.98v3.43c-1.45.7-3.41,1.09-5.44,1.09-5.25,0-8.1-2.85-8.1-7.34Z"/>
          <path class="cls-1" d="M44.75,51.42v9.3h-3.99v-8.35c0-1.48-.87-2.32-2.32-2.32-2.12,0-3.8,1.73-3.8,4.02v6.64h-4.02v-20.94h4.02v9.21c1.14-1.67,2.93-2.62,5.16-2.62,3.1,0,4.94,1.87,4.94,5.05Z"/>
          <path class="cls-1" d="M46.62,53.74c0-4.49,2.93-7.34,7.73-7.34,4.24,0,7.01,2.54,7.01,6.45,0,.81-.08,1.67-.22,2.21h-10.19c.45,1.84,1.93,2.76,4.47,2.76,1.7,0,3.38-.42,4.61-1.06v3.24c-1.2.67-3.27,1.09-5.53,1.09-5,0-7.87-2.74-7.87-7.34ZM57.56,52.73c.03-.11.06-.25.06-.42,0-1.42-1.12-2.74-3.21-2.74s-3.32,1.03-3.57,3.15h6.73Z"/>
          <path class="cls-1" d="M78.08,46.76h9.49v13.96h-4.02v-10.58h-5.47v10.58h-3.99v-10.58h-5.5v10.58h-3.99v-10.58h-2.21v-3.38h2.21v-.78c0-4.27,1.98-6.56,5.08-6.56,1.06,0,1.79.11,2.43.34v3.35c-.2-.03-.61-.11-1.23-.11-1.23,0-2.29.7-2.29,2.79v.98h5.5v-.78c0-4.27,1.98-6.56,5.08-6.56,1.06,0,1.79.11,2.43.34v3.38c-.2-.06-.61-.14-1.23-.14-1.23,0-2.29.7-2.29,2.79v.98ZM87.57,39.78v4.97h-4.02v-4.97h4.02Z"/>
          <path class="cls-1" d="M96.19,45.98v.78h4.08v3.38h-4.08v10.58h-3.99v-10.58h-2.48v-3.38h2.48v-.78c0-4.27,2.35-6.56,5.81-6.56,1.45,0,2.4.17,3.04.42v3.38c-.53-.14-1.12-.25-2.04-.25-1.31,0-2.82.64-2.82,3.01Z"/>
          <path class="cls-1" d="M102.42,67.33v-3.38c.81.22,1.73.39,2.71.39,1.7,0,2.51-.61,3.07-2.35l.42-1.28h-2.62l-4.75-13.96h4.3l3.21,10.44h.89l2.9-10.44h4.3l-5.14,16.22c-1.06,3.32-3.02,4.72-6.34,4.72-1.12,0-2.09-.11-2.96-.36Z"/>
        </g>
      </g>
    </g>
  </g>
</svg>